<?xml version="1.0" encoding="UTF-8"?>
<!DOCTYPE svg PUBLIC "-//W3C//DTD SVG 1.0//EN" "http://www.w3.org/TR/2001/REC-SVG-20010904/DTD/svg10.dtd">
<!-- Creator: CorelDRAW 2020 (64-Bit) -->
<svg xmlns="http://www.w3.org/2000/svg" xml:space="preserve" width="368px" height="368px" version="1.0" style="shape-rendering:geometricPrecision; text-rendering:geometricPrecision; image-rendering:optimizeQuality; fill-rule:evenodd; clip-rule:evenodd"
viewBox="0 0 4575140 4575140"
 xmlns:xlink="http://www.w3.org/1999/xlink"
 xmlns:xodm="http://www.corel.com/coreldraw/odm/2003">
 <defs>
  <style type="text/css">
   <![CDATA[
    .str0 {stroke:fuchsia;stroke-width:298380;stroke-miterlimit:22.9256}
    .str2 {stroke:fuchsia;stroke-width:49730;stroke-miterlimit:22.9256}
    .str1 {stroke:fuchsia;stroke-width:99460;stroke-miterlimit:22.9256}
    .fil0 {fill:none}
    .fil1 {fill:white}
   ]]>
  </style>
 </defs>
 <g id="Слой_x0020_1">
  <metadata id="CorelCorpID_0Corel-Layer"/>
  <rect class="fil0 str0" x="149190" y="149190" width="4276760" height="4276760"/>
  <g id="_1887311732848">
   <path class="fil1 str1" d="M3376330 1931400l28190 880 27760 2200 27310 3080 26870 4850 26430 6170 25990 7480 25550 8370 24670 10140 24230 11010 23790 11890 22910 13220 22020 14100 21590 15410 20700 16300 19820 17180 18950 18060 18060 18950 17180 19820 16300 20700 14980 21590 14530 22030 13220 22900 11890 23350 11010 24230 9700 25110 8810 25110 7040 25990 6170 26430 4850 27310 3520 27310 2200 27760 450 28190 0 4410 0 4400 0 4410 0 4400 -450 4850 0 4400 0 1760 -2640 37890 -4840 36560 -6170 34800 -7930 33040 -9690 32600 -11020 30840 -12330 30390 -13660 29960 -14530 29510 -15860 29080 -16740 29510 -17180 29080 -37010 60350 -39200 62990 -20270 33480 -20260 34360 -20260 36560 -20270 37890 -20260 39650 -20260 42290 -19830 44050 -19380 47130 -18500 49340 -18500 52860 -17180 55510 -16740 59030 -15420 62550 -14540 66080 -13660 70040 -12330 74450 -1320 7050 -1320 6170 -2210 6160 -2200 5290 -2640 5290 -2650 4400 -3080 4410 -3520 3520 -3090 3080 -3960 3090 -3530 2200 -3960 2200 -3960 1320 -4410 1330 -3960 440 -3970 0 -4400 0 -3970 -880 -3960 -890 -4410 -1760 -3520 -1760 -3970 -2640 -3520 -2650 -3530 -3520 -3520 -3520 -3080 -4410 -2650 -4400 -2640 -5290 -2200 -5290 -1760 -5720 -1770 -6610 -1320 -6610 -12330 -74450 -13220 -70040 -14540 -66080 -15850 -62550 -16740 -59030 -17180 -55510 -18070 -52860 -18940 -49340 -19380 -47130 -19820 -44050 -19830 -42290 -20260 -39650 -20710 -37890 -20260 -36560 -20260 -34360 -19830 -33480 -39200 -62990 -37010 -60350 -17620 -29080 -16740 -29510 -15860 -29080 -14530 -29510 -13660 -29960 -12330 -30390 -11020 -30840 -9250 -32600 -8370 -33040 -6170 -34800 -4400 -36560 -2640 -37890 0 -1760 -440 -4400 0 -4850 0 -4400 -440 -4410 0 -4400 0 -4410 880 -28190 2200 -27760 3080 -27310 4850 -27310 6170 -26430 7480 -25990 8370 -25110 10140 -25110 11010 -24230 11890 -23350 13220 -22900 14100 -22030 15410 -21590 16300 -20700 17180 -19820 18060 -18950 18950 -18060 19820 -17180 20700 -16300 21590 -15410 22030 -14100 22900 -13220 23350 -11890 24230 -11010 25110 -10140 25550 -8370 25550 -7480 26430 -6170 27310 -4850 27310 -3080 27760 -2200 28190 -880z"/>
   <path class="fil1 str2" d="M3376330 2253420l11450 440 11460 880 11010 1320 11450 2200 10580 2200 11010 3090 10130 3520 10130 3970 10140 4840 9690 4850 9250 5280 9250 5730 8810 6610 8370 6610 8370 7040 7930 7490 7490 7930 7050 7930 6600 8370 6170 8810 5730 9250 5720 9250 4850 9700 4400 10130 3970 10130 3520 10570 3090 10570 2640 11020 1760 11010 1320 11010 880 11460 450 11890 -450 11450 -880 11460 -1320 11010 -1760 11450 -2640 10580 -3090 10570 -3520 10570 -3970 10130 -4400 10140 -4850 9690 -5720 9250 -5730 9250 -6170 8810 -6600 8370 -7050 8370 -7490 7930 -7930 7050 -8370 7040 -8370 7050 -8810 6170 -9250 5730 -9250 5280 -9690 5290 -10140 4400 -10130 3970 -10130 3520 -11010 3090 -10580 2640 -11450 1760 -11010 1320 -11460 880 -11450 450 -11890 -450 -11020 -880 -11450 -1320 -11010 -1760 -11020 -2640 -10570 -3090 -10570 -3520 -10130 -3970 -10130 -4400 -9700 -5290 -9250 -5280 -9250 -5730 -8810 -6170 -8370 -7050 -7930 -7040 -7930 -7050 -7490 -7930 -7040 -8370 -6610 -8370 -6170 -8810 -6170 -9250 -5280 -9250 -4850 -9690 -4840 -10140 -3970 -10130 -3520 -10570 -3090 -10570 -2200 -10580 -2200 -11450 -1320 -11010 -880 -11460 -440 -11450 440 -11890 880 -11460 1320 -11010 2200 -11010 2200 -11020 3090 -10570 3520 -10570 3970 -10130 4840 -10130 4850 -9700 5280 -9250 6170 -9250 6170 -8810 6610 -8370 7040 -7930 7490 -7930 7930 -7490 7930 -7040 8370 -6610 8810 -6610 9250 -5730 9250 -5280 9700 -4850 10130 -4840 10130 -3970 10570 -3520 10570 -3090 11020 -2200 11010 -2200 11450 -1320 11020 -880 11890 -440z"/>
  </g>
 </g>
</svg>
