<svg width="12" height="22" viewBox="0 0 12 22" fill="none" xmlns="http://www.w3.org/2000/svg">
<path d="M6.03497 0H6.01378C2.81393 0 0.273987 2.40222 0.273987 5.46896V16.0777C0.273987 19.2326 3.0712 22 6.22192 22H6.30138V19.3881H6.22192C4.55515 19.3881 2.88586 17.7485 2.88586 16.0778V5.46896C2.88586 3.86688 4.27849 2.61187 6.01378 2.61187H6.03497C7.75228 2.61187 9.01371 3.84026 9.01371 5.46896V13.0262C9.01371 13.7647 8.51053 14.3653 7.85093 14.3653H7.83847C7.15667 14.3653 6.5023 13.727 6.5023 13.0262V6.63014H3.99088V13.0262C3.99088 15.1853 5.69975 16.8767 7.83847 16.8767H7.85093C10.0061 16.8767 11.726 15.1495 11.726 13.0262V5.46896C11.726 2.40222 9.24496 0 6.03497 0Z" fill="#404040"/>
</svg>
