<?xml version="1.0" encoding="UTF-8"?>
<!DOCTYPE svg PUBLIC "-//W3C//DTD SVG 1.1//EN" "http://www.w3.org/Graphics/SVG/1.1/DTD/svg11.dtd">
<!-- Creator: CorelDRAW 2020 (64-Bit) -->
<svg xmlns="http://www.w3.org/2000/svg" xml:space="preserve" width="440px" height="352px" version="1.1" shape-rendering="geometricPrecision" text-rendering="geometricPrecision" image-rendering="optimizeQuality" fill-rule="evenodd" clip-rule="evenodd"
viewBox="0 0 146280 117020"
 xmlns:xlink="http://www.w3.org/1999/xlink"
 xmlns:xodm="http://www.corel.com/coreldraw/odm/2003">
 <g id="Слой_x0020_1">
  <metadata id="CorelCorpID_0Corel-Layer"/>
  <path fill="fuchsia" fill-rule="nonzero" d="M2380 111210c-30,-1450 -80,-2900 -150,-4360 -70,-1460 -150,-2920 -230,-4400 -90,-1480 -190,-2980 -290,-4490 -100,-1510 -210,-3040 -310,-4590 -110,-1540 -210,-3110 -310,-4690 -100,-1590 -200,-3190 -300,-4800 -90,-1620 -180,-3250 -260,-4900 -40,-900 -80,-1810 -120,-2720 0,1550 0,3100 0,4650 0,1610 0,3220 0,4840 0,1610 0,3220 0,4830 0,1610 0,3220 0,4840 0,1610 0,3220 0,4830 0,1620 0,3230 0,4840 0,1610 0,3220 0,4830 0,1610 0,3230 0,4840 0,750 0,1510 0,2260l2000 0c0,-480 10,-970 20,-1450 0,-1460 -10,-2910 -50,-4360z"/>
  <path fill="fuchsia" fill-rule="nonzero" d="M200 43650c-50,1680 -90,3360 -120,5040 -30,1690 -50,3380 -60,5070 -10,1160 -20,2330 -20,3490l0 80 0 80 0 160 0 80 0 80c0,370 0,740 0,1110 10,1700 20,3390 50,5080 20,1700 60,3390 100,5070 50,1680 100,3360 170,5030 30,740 60,1490 90,2240 0,-60 0,-120 0,-190 0,-1610 0,-3220 0,-4830 0,-1610 0,-3230 0,-4840 0,-1610 0,-3220 0,-4830 0,-1610 0,-3230 0,-4840 0,-1610 0,-3220 0,-4830 0,-1620 0,-3230 0,-4840 0,-1610 0,-3220 0,-4840 0,-1610 0,-3220 0,-4830 0,-80 0,-170 0,-250 -20,500 -40,1000 -60,1500 -50,1660 -100,3340 -150,5010z"/>
  <path fill="fuchsia" fill-rule="nonzero" d="M410 8380c0,1610 0,3220 0,4830 0,1610 0,3230 0,4840 0,1610 0,3220 0,4830 0,1610 0,3230 0,4840 0,1610 0,3220 0,4830 0,1530 0,3060 0,4590 40,-1160 80,-2330 130,-3490 60,-1650 130,-3300 200,-4950 70,-1650 140,-3290 210,-4940 60,-1640 130,-3280 200,-4930 60,-1640 120,-3280 180,-4930 60,-1650 110,-3290 160,-4950 50,-1650 100,-3300 130,-4960 30,-1330 60,-2660 80,-3990l-1290 0c0,1180 0,2360 0,3540 0,1610 0,3220 0,4840z"/>
  <path fill="fuchsia" fill-rule="nonzero" d="M15610 112740c360,-1070 710,-2170 1020,-3330 310,-1150 590,-2350 830,-3600 250,-1240 440,-2530 600,-3860 150,-1330 260,-2700 310,-4110 50,-1410 40,-2860 -20,-4340 -50,-1470 -170,-2990 -340,-4530 -170,-1550 -380,-3120 -650,-4730 -270,-1610 -580,-3250 -940,-4910 -350,-1670 -750,-3360 -1170,-5090 -420,-1720 -870,-3470 -1340,-5250 -460,-1780 -950,-3590 -1430,-5420 -490,-1830 -980,-3690 -1450,-5570 -480,-1870 -950,-3770 -1400,-5690 -440,-1920 -860,-3850 -1250,-5800 -390,-1940 -740,-3900 -1050,-5860 -310,-1970 -580,-3940 -800,-5910 -220,-1970 -390,-3940 -510,-5910 -120,-1960 -200,-3920 -220,-5880 -30,-1950 -10,-3900 60,-5830 60,-1940 160,-3870 290,-5780 140,-1920 300,-3830 480,-5720 190,-1880 390,-3760 590,-5620l-1160 0c-160,1760 -320,3530 -480,5300 -160,1830 -320,3680 -460,5520 -140,1850 -260,3700 -360,5550 -100,1860 -170,3720 -210,5590 -40,1870 -50,3750 -30,5630 30,1890 90,3780 190,5670 100,1900 240,3800 410,5700 170,1900 380,3800 610,5690 240,1900 510,3790 800,5670 300,1890 610,3760 940,5630 330,1860 680,3710 1030,5540 350,1830 700,3650 1050,5440 350,1800 690,3570 1020,5320 320,1750 630,3480 920,5180 290,1700 550,3370 790,5020 230,1640 430,3260 600,4840 160,1590 290,3140 390,4660 90,1520 150,3000 160,4440 20,1450 10,2850 -40,4220 -50,1370 -140,2690 -250,3970 -110,1280 -250,2510 -410,3710 -160,1190 -350,2340 -560,3450 -210,1120 -430,2190 -680,3250 -170,680 -340,1360 -530,2030l2980 0c180,-400 350,-790 520,-1200 400,-990 790,-2020 1150,-3080z"/>
  <path fill="fuchsia" fill-rule="nonzero" d="M36310 112340c1020,-1120 1950,-2290 2760,-3480 810,-1190 1500,-2420 2070,-3670 570,-1240 1010,-2510 1320,-3790 310,-1290 500,-2580 560,-3900 60,-1310 -10,-2650 -190,-4000 -180,-1350 -480,-2710 -890,-4110 -400,-1390 -910,-2810 -1510,-4250 -610,-1450 -1300,-2930 -2070,-4440 -770,-1510 -1610,-3060 -2520,-4660 -910,-1590 -1880,-3230 -2890,-4920 -1010,-1690 -2060,-3430 -3140,-5220 -1070,-1800 -2160,-3650 -3260,-5550 -1090,-1910 -2180,-3870 -3250,-5890 -1080,-2020 -2120,-4100 -3120,-6230 -990,-2130 -1940,-4310 -2820,-6530 -880,-2230 -1690,-4500 -2400,-6800 -720,-2290 -1340,-4620 -1860,-6960 -510,-2340 -920,-4700 -1210,-7050 -300,-2340 -470,-4690 -530,-7000 -70,-2310 -10,-4600 150,-6840 160,-2230 430,-4420 790,-6540 30,-170 70,-340 100,-510l-1170 0c-20,130 -40,270 -70,400 -330,2060 -600,4170 -780,6320 -180,2150 -280,4340 -290,6560 0,2210 90,4460 290,6710 190,2250 480,4520 870,6780 390,2250 870,4510 1450,6750 570,2230 1220,4450 1950,6630 730,2180 1530,4340 2380,6450 840,2110 1740,4180 2670,6210 930,2020 1890,4000 2850,5930 970,1920 1940,3800 2900,5630 960,1830 1900,3610 2810,5350 920,1740 1790,3420 2620,5070 830,1650 1600,3250 2310,4820 710,1570 1340,3100 1900,4600 550,1500 1020,2970 1400,4410 370,1440 650,2860 830,4250 170,1390 240,2760 190,4110 -40,1350 -200,2680 -470,3980 -260,1310 -650,2590 -1140,3850 -490,1260 -1100,2490 -1790,3680 -700,1200 -1500,2350 -2370,3470 -870,1110 -1820,2170 -2810,3180 -640,660 -1310,1280 -1980,1880l4280 0c600,-470 1200,-960 1780,-1460 1170,-1020 2290,-2100 3300,-3220z"/>
  <path fill="fuchsia" fill-rule="nonzero" d="M55910 112550c1480,-1220 2790,-2460 3900,-3700 1110,-1240 2030,-2480 2760,-3710 740,-1240 1280,-2460 1660,-3670 370,-1210 570,-2410 610,-3600 50,-1200 -70,-2380 -320,-3570 -260,-1190 -650,-2370 -1170,-3570 -530,-1200 -1170,-2400 -1930,-3630 -760,-1220 -1620,-2470 -2590,-3740 -960,-1280 -2020,-2590 -3170,-3940 -1150,-1350 -2380,-2750 -3670,-4200 -1300,-1450 -2670,-2960 -4080,-4530 -1420,-1580 -2890,-3230 -4390,-4960 -1500,-1720 -3030,-3530 -4570,-5430 -1540,-1900 -3080,-3890 -4610,-5970 -1520,-2090 -3030,-4270 -4480,-6550 -1440,-2280 -2840,-4650 -4140,-7110 -1300,-2470 -2510,-5020 -3600,-7630 -1070,-2620 -2030,-5310 -2810,-8030 -790,-2720 -1410,-5480 -1840,-8230 -430,-2740 -660,-5480 -680,-8140 -20,-2660 170,-5240 580,-7670 50,-330 110,-650 170,-970l-1200 0c-50,290 -110,570 -160,860 -400,2350 -620,4840 -650,7400 -40,2550 120,5180 460,7830 330,2650 840,5320 1510,7960 670,2650 1500,5270 2460,7840 950,2570 2030,5080 3210,7520 1180,2440 2450,4810 3790,7090 1330,2290 2720,4480 4150,6590 1420,2110 2870,4130 4330,6070 1450,1940 2900,3800 4330,5570 1430,1780 2830,3480 4190,5110 1360,1640 2680,3200 3920,4710 1250,1510 2440,2960 3550,4370 1100,1400 2130,2770 3060,4100 930,1320 1770,2620 2500,3890 730,1270 1350,2530 1840,3760 500,1240 870,2470 1100,3690 240,1220 330,2430 280,3650 -60,1220 -270,2440 -650,3670 -380,1220 -920,2450 -1630,3680 -720,1230 -1610,2460 -2680,3690 -1070,1230 -2320,2440 -3720,3640 -1410,1190 -2980,2360 -4680,3470 -450,290 -910,580 -1370,860l3970 0c500,-290 990,-590 1470,-900 1830,-1150 3500,-2350 4990,-3570z"/>
  <path fill="fuchsia" fill-rule="nonzero" d="M73380 110990c1650,-1350 3030,-2700 4170,-4000 1140,-1310 2040,-2590 2720,-3820 680,-1240 1150,-2440 1430,-3600 280,-1170 380,-2300 330,-3400 -60,-1110 -280,-2190 -640,-3250 -350,-1070 -850,-2110 -1460,-3160 -620,-1040 -1350,-2080 -2190,-3120 -850,-1050 -1800,-2100 -2850,-3170 -1050,-1080 -2190,-2170 -3430,-3300 -1240,-1130 -2560,-2300 -3970,-3510 -1400,-1220 -2890,-2490 -4450,-3820 -1560,-1340 -3180,-2740 -4870,-4230 -1690,-1500 -3430,-3070 -5210,-4760 -1780,-1680 -3600,-3480 -5440,-5390 -1830,-1920 -3680,-3960 -5500,-6140 -1830,-2170 -3640,-4490 -5370,-6950 -1740,-2460 -3420,-5060 -4970,-7800 -1560,-2730 -2990,-5610 -4250,-8580 -1250,-2980 -2330,-6060 -3160,-9190 -840,-3120 -1430,-6290 -1720,-9390 -290,-3100 -270,-6140 100,-8950 60,-500 140,-980 230,-1460l-1270 0c-90,440 -160,880 -230,1340 -380,2710 -440,5640 -220,8640 230,3000 730,6070 1470,9120 740,3040 1720,6060 2870,8990 1150,2930 2480,5770 3940,8490 1450,2720 3030,5330 4680,7800 1650,2470 3380,4810 5130,7020 1760,2220 3540,4300 5320,6260 1780,1960 3550,3800 5290,5540 1750,1740 3460,3380 5110,4920 1660,1550 3270,3010 4800,4410 1540,1390 3010,2710 4400,3980 1400,1270 2710,2480 3940,3660 1220,1180 2360,2320 3390,3440 1040,1110 1980,2210 2810,3290 820,1090 1540,2160 2140,3230 590,1080 1070,2160 1400,3250 320,1080 520,2190 550,3310 30,1120 -100,2270 -410,3440 -320,1180 -810,2380 -1520,3620 -710,1230 -1630,2500 -2780,3790 -1150,1290 -2540,2610 -4180,3940 -1630,1320 -3510,2660 -5630,3960 -870,540 -1780,1060 -2720,1580l3150 0c1170,-630 2280,-1280 3330,-1940 2180,-1350 4090,-2730 5740,-4090z"/>
  <path fill="fuchsia" fill-rule="nonzero" d="M88090 108350c1570,-1480 2820,-2910 3820,-4270 990,-1360 1720,-2660 2230,-3900 520,-1240 820,-2420 950,-3540 130,-1130 80,-2210 -100,-3240 -190,-1040 -520,-2040 -970,-3010 -450,-970 -1030,-1910 -1700,-2840 -680,-920 -1460,-1830 -2340,-2740 -880,-910 -1850,-1810 -2920,-2730 -1060,-910 -2210,-1840 -3450,-2780 -1250,-950 -2570,-1930 -3980,-2940 -1410,-1020 -2910,-2070 -4490,-3190 -1580,-1120 -3230,-2290 -4960,-3560 -1740,-1260 -3540,-2600 -5410,-4060 -1870,-1450 -3810,-3010 -5780,-4710 -1980,-1700 -4000,-3530 -6040,-5530 -2030,-2000 -4080,-4160 -6100,-6500 -2010,-2350 -4000,-4880 -5890,-7600 -1890,-2730 -3690,-5650 -5320,-8750 -1630,-3090 -3090,-6370 -4280,-9780 -1190,-3400 -2120,-6920 -2690,-10430 -560,-3500 -760,-7000 -480,-10220 60,-690 150,-1370 250,-2030l-1350 0c-100,620 -180,1240 -250,1880 -300,3120 -150,6520 350,9930 500,3420 1350,6870 2470,10210 1110,3350 2490,6590 4040,9670 1550,3080 3270,6000 5100,8740 1820,2740 3750,5290 5710,7670 1960,2380 3960,4580 5960,6630 2000,2040 3990,3930 5940,5680 1960,1750 3880,3370 5740,4870 1860,1510 3660,2910 5390,4230 1720,1310 3390,2540 4960,3710 1580,1160 3090,2270 4500,3330 1420,1060 2750,2070 3990,3060 1250,990 2410,1950 3470,2900 1070,940 2040,1880 2910,2820 880,930 1650,1870 2320,2820 660,960 1220,1920 1650,2910 430,990 730,2010 890,3060 160,1050 170,2140 0,3270 -170,1140 -520,2320 -1080,3560 -560,1240 -1330,2540 -2370,3890 -1040,1350 -2340,2760 -3950,4210 -1600,1460 -3520,2960 -5760,4480 -1740,1170 -3680,2340 -5810,3490l2460 0c2490,-1340 4720,-2720 6670,-4080 2240,-1560 4130,-3100 5700,-4590z"/>
  <path fill="fuchsia" fill-rule="nonzero" d="M94950 110090c2110,-1740 3790,-3410 5140,-4980 1350,-1570 2370,-3060 3130,-4450 750,-1390 1260,-2700 1570,-3920 310,-1230 420,-2390 380,-3470 -30,-1090 -220,-2120 -530,-3100 -310,-990 -730,-1920 -1260,-2810 -520,-900 -1150,-1760 -1860,-2600 -710,-840 -1510,-1650 -2380,-2450 -880,-810 -1840,-1600 -2880,-2390 -1040,-790 -2150,-1580 -3350,-2390 -1200,-810 -2470,-1630 -3830,-2480 -1360,-850 -2810,-1740 -4340,-2670 -1530,-940 -3140,-1930 -4840,-2990 -1700,-1060 -3490,-2200 -5360,-3440 -1860,-1240 -3810,-2580 -5830,-4060 -2010,-1480 -4100,-3100 -6220,-4890 -2130,-1790 -4300,-3760 -6470,-5930 -2170,-2180 -4330,-4560 -6440,-7190 -2110,-2630 -4150,-5500 -6040,-8610 -1890,-3110 -3630,-6480 -5100,-10050 -1470,-3570 -2680,-7350 -3470,-11190 -800,-3840 -1180,-7750 -990,-11380 40,-900 130,-1790 250,-2650l-1440 0c-120,810 -200,1640 -260,2490 -200,3540 140,7350 880,11120 750,3760 1890,7490 3300,11030 1420,3530 3090,6890 4930,10010 1840,3120 3830,6000 5890,8660 2070,2660 4200,5080 6340,7300 2140,2220 4290,4230 6400,6080 2110,1840 4190,3510 6200,5040 2020,1530 3970,2930 5840,4220 1880,1290 3670,2470 5390,3580 1710,1110 3340,2140 4880,3120 1550,970 3010,1900 4380,2790 1380,890 2670,1740 3880,2580 1210,840 2340,1660 3390,2480 1050,820 2010,1630 2890,2460 880,820 1680,1660 2380,2520 710,850 1320,1730 1830,2650 510,910 910,1860 1200,2850 280,1000 420,2030 430,3130 -10,1100 -170,2260 -530,3490 -360,1240 -920,2540 -1740,3930 -820,1390 -1900,2860 -3310,4410 -1420,1560 -3160,3200 -5310,4900 -2150,1700 -4710,3460 -7720,5210 -560,330 -1140,650 -1730,970l2000 0c940,-520 1850,-1040 2710,-1560 3000,-1820 5520,-3630 7620,-5370z"/>
  <path fill="fuchsia" fill-rule="nonzero" d="M105360 106860c1840,-1870 3230,-3620 4290,-5250 1060,-1620 1800,-3130 2310,-4520 510,-1400 780,-2690 890,-3900 100,-1210 40,-2330 -150,-3380 -190,-1050 -490,-2040 -900,-2970 -400,-930 -900,-1810 -1470,-2650 -580,-830 -1240,-1630 -1960,-2400 -720,-770 -1510,-1510 -2360,-2230 -860,-720 -1780,-1420 -2770,-2120 -990,-700 -2040,-1390 -3170,-2080 -1130,-700 -2330,-1410 -3620,-2130 -1280,-730 -2640,-1480 -4090,-2270 -1450,-790 -2990,-1630 -4620,-2530 -1630,-900 -3350,-1860 -5160,-2930 -1820,-1060 -3720,-2210 -5720,-3500 -1990,-1290 -4070,-2710 -6210,-4300 -2140,-1590 -4350,-3360 -6580,-5360 -2230,-1990 -4500,-4200 -6720,-6690 -2220,-2490 -4410,-5240 -6460,-8300 -2050,-3050 -3970,-6420 -5630,-10060 -1660,-3650 -3050,-7580 -4000,-11670 -960,-4080 -1480,-8330 -1350,-12330 40,-1120 130,-2230 280,-3290l-1510 0c-140,1010 -230,2060 -270,3130 -130,3910 350,8090 1280,12110 920,4040 2270,7950 3890,11580 1620,3630 3510,7000 5520,10080 2030,3070 4180,5860 6380,8380 2210,2530 4450,4790 6670,6820 2230,2040 4430,3860 6570,5500 2150,1640 4230,3110 6230,4440 2000,1340 3930,2530 5760,3640 1830,1100 3570,2100 5220,3040 1640,940 3200,1810 4680,2630 1470,830 2850,1610 4160,2360 1300,760 2520,1490 3670,2210 1150,720 2220,1440 3220,2160 1010,710 1940,1440 2800,2180 870,740 1660,1490 2380,2280 720,780 1370,1590 1930,2450 570,850 1050,1740 1430,2680 380,940 660,1940 820,3000 150,1060 160,2190 10,3400 -150,1220 -480,2510 -1050,3910 -570,1400 -1380,2900 -2520,4520 -1140,1620 -2610,3350 -4520,5190 -1900,1840 -4260,3800 -7150,5800 -1700,1170 -3590,2360 -5670,3530l1670 0c2480,-1410 4680,-2840 6610,-4240 2850,-2060 5130,-4050 6960,-5920z"/>
  <path fill="fuchsia" fill-rule="nonzero" d="M107880 109780c2560,-2250 4500,-4370 6010,-6320 1500,-1950 2570,-3740 3330,-5380 770,-1640 1230,-3140 1500,-4530 270,-1380 320,-2640 250,-3820 -70,-1170 -280,-2260 -590,-3270 -310,-1010 -720,-1960 -1200,-2840 -480,-890 -1030,-1720 -1640,-2510 -600,-790 -1270,-1530 -1980,-2240 -720,-710 -1490,-1390 -2310,-2050 -820,-660 -1690,-1290 -2620,-1910 -930,-630 -1910,-1240 -2970,-1850 -1050,-620 -2170,-1230 -3360,-1860 -1200,-640 -2470,-1280 -3830,-1960 -1350,-680 -2800,-1400 -4340,-2170 -1540,-780 -3170,-1610 -4910,-2520 -1730,-920 -3570,-1920 -5500,-3050 -1930,-1130 -3960,-2380 -6070,-3800 -2120,-1430 -4310,-3020 -6550,-4840 -2240,-1820 -4530,-3860 -6790,-6190 -2270,-2330 -4530,-4950 -6660,-7910 -2140,-2960 -4160,-6260 -5920,-9910 -1750,-3650 -3250,-7660 -4290,-11910 -1040,-4240 -1620,-8750 -1500,-13050 40,-1330 150,-2640 330,-3890l-1580 0c-170,1210 -270,2470 -310,3740 -120,4230 460,8680 1480,12890 1030,4220 2500,8210 4240,11870 1740,3650 3740,6970 5860,9960 2130,2980 4370,5640 6630,8010 2260,2370 4550,4460 6790,6320 2240,1860 4440,3500 6570,4960 2120,1460 4170,2760 6120,3920 1940,1170 3800,2210 5560,3160 1760,950 3410,1810 4980,2610 1560,800 3030,1550 4410,2260 1380,700 2680,1370 3890,2030 1220,650 2360,1290 3440,1920 1070,630 2070,1260 3020,1900 940,640 1830,1290 2660,1970 830,670 1600,1360 2320,2090 720,720 1380,1480 1980,2280 610,800 1140,1640 1610,2540 460,900 840,1850 1120,2870 280,1030 460,2120 490,3310 30,1180 -80,2450 -410,3840 -320,1390 -860,2890 -1700,4530 -840,1650 -1990,3430 -3580,5360 -1600,1940 -3630,4030 -6270,6240 -2490,2080 -5540,4270 -9240,6440l1470 0c120,-70 240,-140 360,-210 3960,-2380 7140,-4780 9700,-7030z"/>
  <path fill="fuchsia" fill-rule="nonzero" d="M115840 106640c2200,-2390 3770,-4580 4940,-6570 1160,-1990 1910,-3780 2400,-5410 480,-1630 700,-3110 760,-4460 50,-1350 -60,-2580 -290,-3720 -230,-1140 -560,-2180 -970,-3150 -410,-980 -900,-1880 -1430,-2720 -530,-850 -1110,-1630 -1740,-2380 -620,-740 -1290,-1440 -1990,-2100 -700,-660 -1440,-1290 -2220,-1900 -780,-600 -1590,-1180 -2460,-1750 -870,-560 -1790,-1120 -2760,-1660 -970,-550 -2010,-1100 -3110,-1660 -1110,-560 -2290,-1130 -3550,-1730 -1260,-600 -2610,-1220 -4050,-1900 -1440,-680 -2980,-1410 -4630,-2220 -1640,-810 -3390,-1690 -5250,-2690 -1850,-1010 -3810,-2120 -5870,-3410 -2050,-1280 -4200,-2720 -6410,-4390 -2200,-1670 -4470,-3560 -6740,-5750 -2260,-2180 -4530,-4660 -6690,-7500 -2150,-2840 -4200,-6050 -5990,-9660 -1790,-3610 -3320,-7630 -4370,-11970 -1040,-4320 -1610,-9000 -1440,-13540 60,-1500 210,-2980 440,-4400l-1620 0c-220,1380 -350,2820 -400,4270 -160,4490 420,9130 1480,13440 1050,4320 2570,8350 4360,11970 1790,3620 3830,6860 5990,9730 2160,2870 4430,5390 6690,7610 2280,2220 4550,4150 6770,5850 2220,1710 4380,3190 6450,4510 2080,1310 4060,2460 5930,3490 1880,1040 3650,1950 5320,2780 1670,840 3240,1590 4700,2290 1470,700 2840,1350 4130,1970 1290,620 2490,1200 3620,1780 1120,570 2180,1140 3180,1700 990,570 1930,1130 2810,1710 880,580 1720,1170 2510,1790 790,620 1530,1260 2240,1940 700,670 1370,1380 1990,2130 620,760 1200,1560 1720,2410 520,860 980,1770 1370,2750 380,990 690,2040 880,3190 190,1150 260,2390 160,3750 -110,1360 -400,2840 -950,4480 -560,1640 -1390,3430 -2640,5410 -1250,1990 -2920,4160 -5220,6520 -2300,2350 -5230,4900 -9020,7520 -990,670 -2030,1350 -3140,2030l1310 0c1450,-900 2800,-1810 4050,-2710 3720,-2690 6550,-5290 8750,-7670z"/>
  <path fill="fuchsia" fill-rule="nonzero" d="M122480 103460c1810,-2470 3020,-4690 3860,-6680 840,-1990 1300,-3750 1550,-5350 240,-1610 250,-3040 130,-4350 -130,-1310 -390,-2500 -740,-3590 -350,-1100 -780,-2100 -1270,-3040 -490,-930 -1030,-1790 -1600,-2590 -570,-810 -1180,-1550 -1810,-2250 -640,-710 -1290,-1360 -1980,-1980 -680,-620 -1380,-1210 -2120,-1770 -740,-560 -1510,-1100 -2320,-1620 -810,-520 -1660,-1020 -2560,-1520 -900,-500 -1850,-990 -2870,-1500 -1020,-500 -2110,-1020 -3280,-1550 -1170,-540 -2420,-1110 -3760,-1720 -1350,-610 -2800,-1260 -4350,-1990 -1540,-730 -3210,-1530 -4970,-2440 -1770,-910 -3650,-1930 -5630,-3110 -1980,-1170 -4060,-2500 -6210,-4040 -2150,-1550 -4370,-3310 -6600,-5370 -2220,-2060 -4460,-4410 -6590,-7130 -2130,-2720 -4160,-5830 -5920,-9370 -1770,-3540 -3260,-7520 -4250,-11890 -1000,-4350 -1480,-9130 -1190,-13820 100,-1620 290,-3240 590,-4790l-1640 0c-280,1520 -460,3110 -550,4700 -250,4660 270,9410 1280,13760 1010,4370 2520,8370 4290,11930 1780,3560 3820,6690 5960,9440 2140,2760 4390,5140 6630,7230 2230,2090 4470,3880 6640,5460 2170,1570 4270,2930 6270,4130 2000,1200 3900,2240 5690,3170 1790,930 3480,1760 5050,2500 1580,750 3050,1420 4420,2050 1370,630 2650,1210 3840,1760 1190,550 2300,1080 3350,1590 1040,520 2010,1030 2930,1540 920,510 1790,1030 2610,1560 830,530 1610,1080 2360,1650 750,570 1460,1170 2150,1800 690,630 1350,1300 1980,2010 630,710 1230,1470 1790,2280 570,820 1090,1690 1560,2630 470,950 880,1960 1200,3070 320,1100 540,2300 620,3630 80,1320 20,2760 -280,4370 -310,1620 -850,3390 -1770,5380 -920,2000 -2220,4210 -4140,6660 -1920,2460 -4460,5170 -7920,8040 -1850,1530 -3990,3110 -6420,4680l1190 0c2780,-1820 5170,-3650 7200,-5420 3360,-2930 5780,-5670 7600,-8140z"/>
  <path fill="fuchsia" fill-rule="nonzero" d="M121600 108800c2950,-3120 4950,-5950 6380,-8460 1440,-2510 2310,-4710 2860,-6680 550,-1960 780,-3690 810,-5250 40,-1550 -120,-2940 -390,-4200 -270,-1270 -660,-2410 -1110,-3460 -440,-1050 -960,-2010 -1510,-2900 -550,-890 -1130,-1710 -1730,-2470 -600,-770 -1230,-1480 -1860,-2140 -640,-660 -1280,-1280 -1950,-1860 -660,-590 -1340,-1140 -2040,-1660 -690,-520 -1420,-1020 -2170,-1500 -760,-480 -1540,-950 -2380,-1410 -830,-460 -1710,-920 -2650,-1380 -940,-470 -1950,-940 -3030,-1440 -1080,-490 -2240,-1010 -3500,-1580 -1250,-560 -2610,-1170 -4060,-1840 -1460,-680 -3020,-1420 -4700,-2270 -1680,-840 -3470,-1790 -5360,-2890 -1900,-1090 -3900,-2340 -5980,-3790 -2070,-1450 -4230,-3120 -6380,-5070 -2160,-1950 -4340,-4190 -6410,-6800 -2070,-2620 -4030,-5620 -5720,-9080 -1690,-3450 -3100,-7370 -3980,-11720 -880,-4330 -1230,-9130 -770,-13910 160,-1700 430,-3410 810,-5040l-1690 0c-360,1610 -610,3310 -750,4990 -410,4760 -10,9560 900,13900 920,4360 2360,8300 4070,11780 1710,3480 3700,6500 5790,9150 2090,2640 4280,4910 6460,6890 2180,1970 4360,3660 6450,5140 2100,1470 4130,2740 6040,3850 1920,1120 3740,2080 5440,2940 1700,860 3290,1620 4770,2310 1490,680 2860,1300 4140,1880 1280,570 2470,1100 3570,1610 1110,500 2130,990 3100,1460 960,480 1860,940 2710,1410 850,480 1650,950 2420,1440 770,490 1500,1000 2210,1530 710,530 1400,1090 2070,1690 670,590 1320,1220 1950,1890 640,670 1250,1390 1850,2170 590,770 1170,1600 1700,2510 530,900 1030,1870 1450,2930 420,1060 780,2220 1010,3500 240,1270 350,2670 260,4240 -90,1570 -370,3310 -1000,5290 -620,1970 -1590,4180 -3120,6680 -1540,2510 -3650,5320 -6710,8390 -2380,2370 -5350,4930 -9080,7450l1130 0c4060,-2800 7220,-5620 9680,-8220z"/>
  <path fill="fuchsia" fill-rule="nonzero" d="M127340 105980c2500,-3250 4080,-6120 5180,-8630 1080,-2520 1670,-4690 1980,-6610 300,-1920 330,-3590 190,-5100 -130,-1500 -430,-2830 -820,-4050 -380,-1210 -870,-2300 -1390,-3310 -530,-1000 -1100,-1920 -1700,-2770 -600,-850 -1210,-1630 -1840,-2350 -630,-730 -1260,-1400 -1890,-2020 -640,-630 -1280,-1210 -1930,-1760 -640,-550 -1290,-1070 -1960,-1550 -670,-500 -1350,-960 -2050,-1410 -710,-450 -1440,-890 -2220,-1320 -770,-430 -1590,-860 -2460,-1300 -870,-440 -1800,-880 -2800,-1350 -1010,-470 -2080,-960 -3250,-1500 -1180,-530 -2440,-1110 -3800,-1750 -1370,-650 -2850,-1350 -4430,-2160 -1590,-810 -3290,-1710 -5090,-2750 -1810,-1050 -3720,-2240 -5710,-3620 -1980,-1390 -4050,-2980 -6130,-4850 -2070,-1870 -4160,-4020 -6140,-6540 -1980,-2530 -3850,-5430 -5430,-8800 -1570,-3360 -2850,-7200 -3580,-11490 -730,-4280 -890,-9050 -220,-13830 240,-1740 600,-3490 1070,-5160l-1710 0c-440,1670 -770,3410 -990,5140 -600,4790 -390,9570 390,13870 770,4310 2090,8170 3700,11560 1610,3390 3510,6320 5520,8870 2010,2550 4120,4720 6220,6610 2100,1890 4200,3490 6210,4900 2010,1400 3950,2600 5780,3660 1830,1060 3560,1970 5170,2780 1610,820 3110,1530 4500,2180 1390,650 2680,1240 3870,1780 1190,540 2300,1040 3320,1510 1020,480 1980,930 2860,1380 900,440 1720,880 2520,1320 790,440 1530,880 2250,1340 720,460 1410,930 2090,1430 670,500 1330,1020 1980,1580 650,560 1290,1150 1930,1790 630,630 1260,1320 1880,2050 620,740 1230,1530 1820,2390 580,860 1140,1790 1650,2800 500,1020 960,2130 1320,3350 360,1230 620,2580 710,4100 90,1520 10,3210 -360,5140 -370,1940 -1030,4120 -2210,6640 -1180,2510 -2880,5370 -5500,8590 -2600,3160 -6120,6710 -11060,10260l1060 0c210,-150 420,-300 620,-450 4930,-3700 8370,-7360 10880,-10590z"/>
  <path fill="fuchsia" fill-rule="nonzero" d="M132190 103200c2060,-3330 3280,-6200 4060,-8690 780,-2490 1130,-4610 1240,-6480 100,-1860 -30,-3480 -300,-4920 -260,-1450 -670,-2730 -1150,-3890 -480,-1160 -1030,-2210 -1620,-3170 -590,-950 -1210,-1830 -1850,-2630 -630,-810 -1280,-1550 -1920,-2240 -650,-690 -1290,-1320 -1930,-1910 -640,-590 -1270,-1140 -1900,-1660 -630,-520 -1260,-1010 -1900,-1470 -640,-460 -1280,-900 -1950,-1320 -670,-430 -1350,-840 -2080,-1250 -720,-420 -1480,-830 -2290,-1240 -810,-420 -1680,-850 -2610,-1310 -930,-450 -1940,-930 -3030,-1450 -1090,-520 -2270,-1080 -3560,-1710 -1280,-630 -2660,-1320 -4160,-2100 -1500,-790 -3100,-1670 -4820,-2680 -1710,-1020 -3520,-2170 -5420,-3520 -1880,-1350 -3860,-2890 -5830,-4700 -1970,-1810 -3950,-3890 -5820,-6340 -1860,-2450 -3610,-5270 -5050,-8540 -1430,-3280 -2540,-7030 -3080,-11240 -530,-4190 -470,-8880 440,-13610 320,-1720 780,-3470 1340,-5130l-1710 0c-540,1670 -960,3420 -1260,5150 -840,4750 -830,9470 -240,13690 590,4230 1750,8010 3230,11310 1480,3300 3260,6140 5160,8610 1900,2470 3910,4570 5920,6390 2000,1830 4000,3380 5920,4740 1920,1350 3760,2510 5500,3530 1740,1030 3370,1910 4890,2700 1530,790 2930,1480 4240,2110 1310,630 2510,1200 3620,1720 1120,520 2140,1010 3090,1460 960,460 1840,890 2670,1320 820,420 1590,840 2330,1250 740,420 1440,840 2120,1270 670,430 1330,880 1970,1350 650,470 1280,960 1920,1490 630,520 1270,1080 1910,1680 630,600 1270,1250 1910,1950 640,690 1280,1450 1900,2260 630,820 1240,1710 1810,2680 580,970 1110,2030 1570,3210 450,1170 830,2470 1060,3930 240,1460 330,3090 170,4980 -160,1880 -560,4010 -1430,6510 -860,2500 -2180,5370 -4370,8690 -2190,3290 -5260,7070 -9870,11010 -790,680 -1640,1360 -2530,2030l1020 0c1140,-890 2210,-1780 3190,-2650 4480,-4030 7410,-7850 9480,-11170z"/>
  <path fill="fuchsia" fill-rule="nonzero" d="M128230 112100c3950,-4300 6370,-8230 8030,-11590 1650,-3370 2540,-6210 3080,-8660 520,-2440 670,-4500 620,-6310 -50,-1810 -300,-3360 -660,-4750 -370,-1390 -860,-2620 -1410,-3730 -540,-1110 -1160,-2110 -1790,-3020 -640,-910 -1300,-1740 -1970,-2510 -670,-770 -1340,-1470 -1990,-2120 -660,-650 -1310,-1250 -1960,-1810 -640,-560 -1260,-1080 -1890,-1570 -620,-490 -1230,-950 -1850,-1390 -620,-430 -1240,-850 -1870,-1260 -640,-410 -1280,-800 -1970,-1200 -680,-400 -1390,-790 -2150,-1200 -750,-410 -1560,-830 -2430,-1280 -880,-450 -1820,-920 -2840,-1440 -1020,-510 -2130,-1070 -3330,-1700 -1200,-620 -2500,-1310 -3910,-2090 -1410,-790 -2930,-1660 -4540,-2670 -1620,-1000 -3340,-2140 -5120,-3470 -1790,-1320 -3650,-2840 -5510,-4610 -1860,-1770 -3720,-3810 -5440,-6190 -1730,-2390 -3330,-5140 -4590,-8330 -1260,-3190 -2190,-6840 -2500,-10950 -310,-4080 0,-8660 1170,-13270 410,-1670 960,-3370 1610,-4980l-1740 0c-620,1630 -1140,3340 -1530,5030 -1090,4650 -1330,9270 -950,13390 380,4130 1360,7820 2680,11030 1310,3220 2960,5980 4720,8390 1770,2400 3670,4450 5560,6230 1900,1780 3790,3300 5610,4630 1810,1330 3560,2470 5200,3480 1650,1010 3190,1880 4620,2660 1440,780 2760,1470 3990,2090 1230,630 2350,1190 3390,1700 1040,520 2000,990 2890,1440 890,450 1710,870 2490,1290 770,410 1490,810 2180,1210 700,400 1360,800 2000,1210 640,410 1270,840 1890,1280 620,450 1240,910 1870,1410 620,500 1250,1020 1890,1590 640,570 1290,1180 1940,1840 660,660 1320,1380 1980,2150 660,780 1310,1630 1930,2550 630,930 1220,1940 1750,3060 540,1130 1000,2370 1340,3780 340,1400 560,2970 580,4800 0,1820 -200,3900 -790,6360 -600,2460 -1590,5310 -3350,8680 -1780,3340 -4340,7250 -8450,11480 -1370,1390 -2930,2830 -4690,4260l1000 0c1990,-1650 3720,-3320 5210,-4920z"/>
  <path fill="fuchsia" fill-rule="nonzero" d="M133020 109810c3390,-4500 5320,-8490 6620,-11860 1270,-3370 1900,-6170 2220,-8560 320,-2390 330,-4390 170,-6140 -160,-1740 -500,-3240 -940,-4570 -440,-1340 -980,-2510 -1580,-3570 -600,-1060 -1250,-2020 -1920,-2890 -670,-870 -1370,-1660 -2060,-2390 -690,-730 -1380,-1390 -2050,-2010 -670,-620 -1330,-1190 -1980,-1720 -640,-530 -1270,-1020 -1890,-1480 -610,-470 -1210,-910 -1820,-1320 -600,-420 -1200,-820 -1810,-1220 -610,-390 -1230,-770 -1880,-1160 -650,-390 -1320,-780 -2030,-1190 -720,-400 -1480,-830 -2300,-1270 -820,-450 -1700,-930 -2660,-1450 -960,-530 -1990,-1100 -3120,-1730 -1130,-630 -2350,-1330 -3680,-2120 -1320,-790 -2750,-1670 -4270,-2680 -1520,-1020 -3130,-2160 -4810,-3480 -1680,-1320 -3420,-2820 -5150,-4570 -1730,-1750 -3450,-3760 -5020,-6100 -1570,-2340 -3000,-5030 -4070,-8140 -1070,-3110 -1770,-6660 -1850,-10640 -70,-3950 510,-8390 1940,-12820 510,-1590 1140,-3200 1860,-4730l-1730 0c-700,1560 -1310,3190 -1790,4810 -1350,4490 -1850,8970 -1710,12970 140,4020 920,7600 2050,10730 1130,3130 2610,5840 4220,8190 1630,2350 3390,4370 5150,6120 1770,1760 3550,3260 5260,4580 1710,1320 3350,2460 4900,3470 1550,1010 3010,1890 4350,2680 1350,780 2600,1480 3750,2110 1150,630 2210,1190 3180,1710 980,520 1880,1000 2710,1450 830,440 1610,860 2330,1270 730,410 1410,800 2070,1190 660,390 1280,780 1900,1170 620,400 1220,800 1830,1230 600,420 1210,870 1830,1340 620,470 1240,970 1890,1510 640,540 1300,1110 1970,1740 670,630 1350,1300 2030,2040 690,740 1370,1540 2040,2430 660,880 1300,1850 1890,2920 580,1080 1110,2270 1530,3620 420,1350 740,2860 870,4620 130,1770 90,3780 -290,6190 -380,2410 -1080,5220 -2460,8600 -1390,3360 -3470,7340 -7020,11790 -1700,2100 -3780,4350 -6300,6540l960 0c2730,-2420 4910,-4910 6670,-7210z"/>
  <path fill="fuchsia" fill-rule="nonzero" d="M137130 107550c2820,-4650 4300,-8660 5270,-12010 960,-3350 1360,-6090 1530,-8420 170,-2330 80,-4270 -160,-5960 -240,-1680 -630,-3120 -1110,-4410 -480,-1280 -1060,-2410 -1690,-3430 -630,-1010 -1310,-1920 -2000,-2760 -700,-830 -1410,-1580 -2120,-2270 -710,-700 -1410,-1330 -2100,-1920 -690,-580 -1360,-1120 -2010,-1630 -650,-500 -1280,-970 -1890,-1420 -620,-440 -1220,-860 -1810,-1260 -590,-410 -1180,-800 -1770,-1180 -600,-380 -1200,-760 -1820,-1150 -620,-380 -1260,-770 -1940,-1180 -680,-410 -1410,-840 -2180,-1300 -770,-450 -1600,-940 -2510,-1480 -900,-540 -1870,-1120 -2940,-1770 -1060,-650 -2210,-1370 -3450,-2180 -1240,-800 -2580,-1700 -4000,-2730 -1420,-1030 -2930,-2190 -4500,-3510 -1560,-1330 -3170,-2840 -4760,-4580 -1590,-1750 -3150,-3730 -4550,-6040 -1400,-2300 -2640,-4930 -3490,-7970 -860,-3030 -1330,-6470 -1150,-10300 180,-3820 1040,-8070 2720,-12280 590,-1490 1290,-2990 2080,-4410l-1730 0c-770,1460 -1450,2990 -2020,4510 -1600,4290 -2380,8590 -2480,12450 -110,3880 430,7360 1350,10410 920,3050 2220,5700 3670,8020 1460,2310 3070,4300 4700,6050 1630,1740 3290,3240 4880,4570 1600,1330 3140,2470 4590,3500 1450,1020 2820,1910 4080,2720 1270,800 2440,1510 3520,2150 1080,650 2080,1230 2990,1760 920,530 1770,1010 2560,1470 780,450 1510,880 2200,1290 690,400 1340,790 1970,1180 630,380 1240,760 1830,1150 600,390 1190,780 1790,1190 590,400 1190,830 1810,1280 610,450 1240,920 1890,1440 650,510 1310,1060 2000,1650 680,600 1380,1240 2080,1940 710,700 1420,1470 2110,2310 690,840 1360,1770 1980,2800 620,1030 1190,2170 1670,3470 470,1300 840,2750 1060,4460 220,1700 290,3650 80,6000 -210,2360 -680,5110 -1720,8470 -1060,3360 -2680,7360 -5660,11980 -1830,2770 -4200,5840 -7370,8800l930 0c3340,-3200 5760,-6510 7590,-9470z"/>
  <path fill="fuchsia" fill-rule="nonzero" d="M144620 93300c680,-3310 930,-5980 990,-8260 60,-2270 -90,-4140 -370,-5780 -280,-1630 -690,-3020 -1190,-4260 -500,-1240 -1090,-2320 -1730,-3310 -640,-980 -1330,-1850 -2040,-2650 -720,-790 -1440,-1510 -2160,-2180 -720,-660 -1440,-1260 -2130,-1820 -700,-560 -1380,-1080 -2040,-1560 -650,-490 -1290,-940 -1900,-1360 -620,-430 -1220,-840 -1810,-1230 -590,-400 -1170,-780 -1750,-1160 -590,-380 -1170,-750 -1780,-1140 -600,-390 -1220,-780 -1870,-1200 -660,-420 -1340,-860 -2080,-1330 -740,-470 -1530,-980 -2380,-1530 -850,-560 -1770,-1170 -2770,-1840 -1000,-670 -2080,-1420 -3250,-2250 -1160,-840 -2410,-1760 -3740,-2820 -1320,-1050 -2720,-2220 -4160,-3570 -1440,-1350 -2920,-2860 -4350,-4610 -1440,-1740 -2830,-3710 -4050,-5990 -1210,-2280 -2240,-4860 -2860,-7810 -620,-2950 -850,-6280 -400,-9950 440,-3660 1570,-7690 3480,-11640 660,-1380 1420,-2750 2260,-4050l-1730 0c-820,1340 -1570,2750 -2210,4160 -1840,4040 -2890,8130 -3250,11840 -370,3720 -70,7090 620,10060 700,2980 1800,5570 3060,7860 1270,2290 2720,4260 4200,6010 1490,1740 3010,3250 4480,4590 1480,1340 2920,2510 4270,3550 1350,1050 2630,1970 3820,2790 1180,830 2290,1560 3300,2230 1020,670 1960,1270 2820,1810 870,550 1670,1050 2420,1520 750,470 1440,900 2110,1320 660,410 1280,810 1890,1190 610,390 1200,770 1780,1150 590,380 1170,760 1760,1160 590,390 1190,800 1810,1230 610,440 1240,890 1900,1380 650,490 1330,1010 2020,1580 700,570 1410,1180 2130,1850 720,670 1440,1400 2150,2210 700,810 1390,1690 2030,2680 640,990 1230,2090 1730,3340 500,1250 900,2660 1170,4310 270,1650 410,3540 320,5830 -90,2290 -380,4980 -1130,8310 -770,3320 -1980,7310 -4400,12040 -1780,3380 -4230,7270 -7900,11020l920 0c3790,-3990 6220,-8120 7960,-11680 2250,-4750 3340,-8740 4030,-12040z"/>
  <path fill="fuchsia" fill-rule="nonzero" d="M145870 91850c-540,3260 -1380,7220 -3260,12000 -1590,3940 -3910,8610 -7900,13170l920 0c4050,-4820 6290,-9720 7800,-13820 1630,-4570 2370,-8360 2850,-11520l0 -2990c-100,990 -240,2030 -410,3160z"/>
  <path fill="fuchsia" fill-rule="nonzero" d="M98140 14940c-620,3550 -580,6800 -130,9680 460,2900 1340,5450 2410,7700 1070,2260 2340,4230 3660,5980 1330,1740 2710,3270 4060,4630 1350,1360 2670,2560 3930,3630 1250,1070 2440,2020 3550,2880 1110,850 2150,1620 3110,2310 960,690 1840,1320 2670,1890 820,570 1580,1090 2300,1580 710,490 1380,930 2020,1360 640,430 1250,830 1840,1220 600,390 1180,770 1760,1150 580,380 1160,760 1750,1150 590,390 1190,790 1810,1210 620,420 1260,860 1920,1330 660,470 1350,970 2050,1520 700,540 1420,1130 2140,1780 730,640 1460,1340 2170,2120 710,780 1400,1630 2040,2580 640,960 1230,2020 1730,3240 500,1210 900,2570 1190,4170 60,340 110,690 160,1040l0 -2530c-260,-1170 -590,-2220 -980,-3160 -500,-1200 -1080,-2260 -1720,-3200 -630,-950 -1320,-1800 -2030,-2570 -710,-760 -1440,-1460 -2160,-2100 -730,-630 -1450,-1210 -2150,-1750 -710,-540 -1400,-1040 -2060,-1510 -660,-460 -1300,-900 -1920,-1320 -630,-410 -1230,-810 -1820,-1200 -590,-390 -1170,-770 -1750,-1150 -580,-380 -1160,-760 -1750,-1150 -590,-400 -1190,-810 -1830,-1240 -630,-430 -1290,-880 -2000,-1370 -710,-500 -1460,-1020 -2270,-1600 -810,-590 -1680,-1220 -2630,-1920 -940,-700 -1950,-1480 -3040,-2340 -1090,-870 -2250,-1830 -3470,-2910 -1230,-1080 -2520,-2290 -3830,-3650 -1310,-1370 -2640,-2910 -3910,-4650 -1270,-1750 -2490,-3720 -3500,-5970 -1000,-2250 -1800,-4780 -2190,-7640 -380,-2860 -340,-6070 370,-9560 690,-3470 2080,-7250 4190,-10910 720,-1260 1540,-2510 2420,-3690l-1760 0c-860,1220 -1670,2500 -2370,3800 -2060,3750 -3360,7610 -3980,11140z"/>
  <path fill="fuchsia" fill-rule="nonzero" d="M145020 101810c-1300,4410 -3280,9810 -7370,15210l960 0c4050,-5690 5890,-11310 7070,-15860 220,-920 420,-1790 600,-2640l0 -2020c-320,1640 -730,3400 -1260,5310z"/>
  <path fill="fuchsia" fill-rule="nonzero" d="M102950 13840c-870,3350 -1100,6460 -880,9260 210,2800 850,5290 1710,7520 860,2220 1940,4190 3100,5940 1150,1750 2380,3300 3600,4680 1220,1390 2430,2610 3580,3720 1160,1100 2260,2080 3300,2970 1030,890 2010,1680 2910,2410 910,720 1750,1380 2530,1980 780,600 1520,1140 2210,1650 690,510 1340,980 1960,1420 620,440 1230,860 1810,1260 590,400 1160,790 1740,1170 580,390 1160,770 1750,1160 600,390 1210,780 1830,1190 630,420 1270,850 1940,1310 670,450 1360,940 2060,1470 710,530 1430,1100 2150,1720 730,630 1450,1310 2160,2060 700,760 1380,1580 2000,2520 620,930 1180,1960 1660,3140 70,190 140,380 210,570l0 -1330c-430,-1050 -940,-1980 -1490,-2820 -610,-920 -1280,-1750 -1980,-2490 -690,-750 -1420,-1430 -2140,-2050 -720,-620 -1440,-1180 -2140,-1710 -710,-520 -1400,-1010 -2070,-1460 -670,-460 -1320,-890 -1940,-1300 -630,-410 -1240,-810 -1840,-1200 -590,-380 -1170,-770 -1750,-1150 -580,-390 -1160,-780 -1740,-1190 -590,-400 -1190,-830 -1810,-1280 -620,-450 -1260,-920 -1940,-1440 -690,-510 -1410,-1070 -2180,-1680 -770,-610 -1600,-1270 -2490,-2010 -890,-730 -1840,-1540 -2850,-2440 -1010,-900 -2090,-1890 -3210,-3010 -1120,-1110 -2290,-2340 -3470,-3740 -1170,-1390 -2350,-2940 -3450,-4690 -1090,-1760 -2110,-3720 -2900,-5930 -790,-2220 -1350,-4700 -1480,-7460 -130,-2760 180,-5830 1130,-9110 940,-3270 2550,-6770 4820,-10100 790,-1170 1660,-2290 2580,-3370l-1830 0c-910,1110 -1770,2270 -2530,3470 -2230,3430 -3770,7030 -4630,10370z"/>
  <path fill="fuchsia" fill-rule="nonzero" d="M107840 12720c-1110,3130 -1590,6090 -1620,8780 -40,2690 360,5120 990,7310 640,2190 1520,4140 2490,5900 970,1750 2040,3310 3120,4720 1080,1410 2170,2660 3220,3800 1060,1140 2070,2150 3040,3080 960,920 1870,1750 2720,2510 850,760 1650,1440 2400,2070 750,630 1460,1210 2130,1740 670,540 1300,1030 1920,1490 610,460 1200,900 1790,1320 580,420 1160,820 1740,1210 580,400 1170,780 1770,1180 600,390 1210,780 1840,1200 640,410 1290,840 1960,1290 670,460 1360,940 2070,1460 700,520 1420,1070 2130,1690 710,610 1420,1280 2100,2020 670,740 1320,1550 1900,2470 260,400 500,820 730,1270l0 -1070c-120,-210 -240,-410 -360,-610 -560,-910 -1200,-1730 -1860,-2460 -670,-740 -1370,-1410 -2070,-2020 -710,-610 -1420,-1170 -2120,-1680 -700,-520 -1390,-1000 -2060,-1460 -670,-450 -1330,-880 -1960,-1290 -640,-420 -1250,-810 -1850,-1210 -600,-400 -1190,-790 -1780,-1190 -580,-400 -1160,-800 -1740,-1230 -590,-420 -1180,-860 -1790,-1330 -610,-480 -1240,-980 -1910,-1520 -660,-540 -1360,-1130 -2100,-1770 -740,-640 -1530,-1340 -2360,-2110 -840,-770 -1720,-1610 -2660,-2550 -940,-930 -1930,-1960 -2950,-3110 -1010,-1140 -2060,-2400 -3090,-3820 -1030,-1410 -2050,-2980 -2960,-4730 -910,-1760 -1720,-3700 -2280,-5880 -560,-2170 -870,-4580 -750,-7230 120,-2650 690,-5550 1860,-8600 1170,-3050 2960,-6250 5330,-9230 870,-1090 1800,-2140 2790,-3130l-1880 0c-970,1020 -1880,2090 -2720,3200 -2340,3100 -4080,6400 -5170,9520z"/>
  <path fill="fuchsia" fill-rule="nonzero" d="M118370 3050c-2400,2740 -4290,5730 -5590,8610 -1300,2880 -2020,5660 -2300,8230 -290,2560 -140,4920 270,7060 410,2140 1070,4070 1850,5820 780,1750 1690,3320 2620,4750 930,1420 1900,2700 2840,3870 950,1160 1880,2210 2760,3170 890,960 1740,1820 2540,2620 800,790 1570,1510 2290,2170 720,670 1400,1270 2050,1840 650,560 1280,1080 1890,1570 610,490 1200,950 1780,1380 590,440 1170,860 1760,1270 590,410 1180,810 1780,1220 610,400 1230,810 1870,1230 630,420 1290,850 1960,1300 670,460 1350,940 2050,1460 690,520 1390,1080 2080,1690 680,610 1360,1280 2000,2010 500,580 970,1210 1410,1900l0 -970c-310,-460 -640,-900 -990,-1320 -620,-740 -1280,-1400 -1950,-2020 -680,-610 -1370,-1170 -2060,-1690 -680,-520 -1360,-1010 -2030,-1470 -670,-460 -1330,-890 -1960,-1320 -640,-420 -1260,-830 -1870,-1240 -610,-410 -1200,-820 -1790,-1230 -590,-420 -1170,-850 -1760,-1300 -590,-440 -1180,-910 -1790,-1410 -600,-500 -1230,-1030 -1870,-1600 -650,-580 -1330,-1190 -2040,-1870 -710,-670 -1450,-1410 -2240,-2210 -790,-810 -1610,-1680 -2470,-2650 -860,-970 -1760,-2030 -2660,-3210 -910,-1170 -1830,-2460 -2710,-3890 -880,-1430 -1720,-3010 -2430,-4750 -720,-1750 -1300,-3670 -1630,-5790 -320,-2120 -390,-4440 -20,-6960 370,-2510 1170,-5220 2530,-8020 1360,-2790 3290,-5650 5700,-8270 980,-1070 2030,-2080 3140,-3030l-2010 0c-1060,960 -2060,1970 -3000,3050z"/>
  <path fill="fuchsia" fill-rule="nonzero" d="M144700 60810c-630,-630 -1280,-1200 -1940,-1740 -660,-540 -1320,-1040 -1980,-1510 -650,-480 -1300,-940 -1940,-1380 -630,-440 -1260,-870 -1870,-1300 -610,-430 -1210,-860 -1800,-1310 -600,-440 -1190,-890 -1780,-1370 -590,-470 -1180,-970 -1780,-1500 -610,-530 -1220,-1090 -1860,-1700 -630,-610 -1280,-1260 -1970,-1970 -680,-710 -1380,-1480 -2120,-2320 -730,-840 -1500,-1750 -2270,-2750 -780,-1000 -1580,-2090 -2370,-3290 -790,-1190 -1570,-2500 -2290,-3940 -720,-1430 -1380,-3000 -1890,-4720 -510,-1730 -870,-3600 -970,-5650 -90,-2040 100,-4260 690,-6610 590,-2360 1600,-4850 3100,-7370 1500,-2510 3490,-5020 5900,-7290 1160,-1110 2380,-2110 3710,-3090l-2130 0c-1240,960 -2390,1960 -3480,3040 -2410,2400 -4390,5040 -5840,7650 -1460,2620 -2400,5200 -2910,7610 -520,2420 -620,4670 -440,6750 170,2070 620,3970 1200,5700 590,1730 1310,3310 2090,4740 780,1440 1610,2740 2440,3930 830,1190 1660,2270 2470,3260 810,990 1600,1890 2350,2710 750,830 1480,1590 2170,2280 690,700 1350,1340 1990,1940 640,590 1260,1140 1860,1660 610,520 1200,1010 1790,1470 590,470 1180,910 1770,1340 590,430 1190,860 1800,1280 610,420 1230,840 1870,1280 640,430 1290,880 1950,1350 660,470 1340,960 2000,1490 670,530 1340,1100 1990,1720 650,620 1270,1290 1850,2040 70,100 150,200 220,300l0 -930c-490,-650 -1020,-1250 -1580,-1800z"/>
  <path fill="fuchsia" fill-rule="nonzero" d="M146050 59770c-560,-660 -1150,-1260 -1770,-1830 -610,-560 -1240,-1090 -1870,-1600 -630,-500 -1260,-980 -1880,-1460 -630,-470 -1250,-930 -1850,-1390 -610,-460 -1220,-930 -1810,-1400 -600,-480 -1190,-960 -1780,-1470 -590,-510 -1180,-1050 -1780,-1610 -600,-560 -1210,-1160 -1830,-1810 -620,-640 -1250,-1330 -1900,-2070 -650,-750 -1320,-1550 -1990,-2420 -680,-870 -1380,-1810 -2070,-2840 -690,-1020 -1390,-2130 -2050,-3340 -660,-1220 -1300,-2530 -1850,-3960 -550,-1430 -1020,-2980 -1330,-4660 -300,-1680 -440,-3490 -310,-5430 130,-1950 540,-4030 1330,-6190 780,-2160 1950,-4420 3540,-6630 1580,-2210 3560,-4360 5910,-6300 1430,-1200 2910,-2240 4660,-3360l-2330 0c-1560,1050 -2940,2070 -4260,3230 -2370,2060 -4360,4340 -5920,6670 -1570,2330 -2680,4680 -3400,6910 -720,2240 -1050,4380 -1100,6360 -50,1990 180,3830 560,5520 380,1700 920,3260 1530,4700 620,1430 1310,2740 2020,3950 710,1210 1450,2310 2170,3330 730,1010 1450,1940 2150,2800 700,860 1380,1650 2040,2380 670,740 1310,1410 1930,2040 630,630 1240,1210 1840,1770 600,550 1190,1070 1780,1560 600,500 1190,970 1780,1430 600,470 1200,920 1810,1370 610,450 1230,890 1860,1350 630,460 1270,940 1910,1430 650,490 1290,1010 1920,1560 630,550 1260,1140 1840,1790 250,270 490,560 730,850l0 -950c-80,-100 -150,-190 -230,-280z"/>
  <path fill="fuchsia" fill-rule="nonzero" d="M145800 56880c-540,-610 -1110,-1180 -1700,-1730 -580,-540 -1180,-1070 -1780,-1580 -600,-520 -1200,-1020 -1790,-1520 -600,-510 -1190,-1010 -1780,-1530 -600,-510 -1180,-1040 -1770,-1590 -580,-550 -1170,-1120 -1760,-1730 -590,-600 -1180,-1240 -1780,-1920 -600,-680 -1210,-1400 -1820,-2180 -610,-780 -1230,-1610 -1850,-2510 -610,-900 -1230,-1860 -1830,-2900 -590,-1050 -1180,-2170 -1710,-3380 -530,-1210 -1010,-2510 -1400,-3920 -380,-1400 -660,-2910 -760,-4530 -100,-1610 -30,-3330 300,-5150 340,-1810 930,-3720 1870,-5670 920,-1940 2180,-3920 3780,-5820 1600,-1910 3510,-3700 5740,-5350 1750,-1290 3540,-2400 6040,-3870l-2480 0c-2160,1300 -3840,2380 -5460,3640 -2280,1760 -4230,3690 -5830,5710 -1600,2020 -2840,4110 -3720,6140 -880,2040 -1410,4020 -1670,5880 -260,1870 -250,3630 -70,5280 180,1640 530,3160 980,4580 450,1420 990,2730 1570,3940 590,1210 1210,2330 1850,3370 640,1040 1280,1990 1920,2880 650,890 1280,1710 1910,2480 630,760 1240,1470 1850,2140 610,660 1210,1280 1800,1870 600,590 1190,1150 1780,1680 590,530 1170,1050 1770,1550 590,490 1190,980 1790,1470 610,480 1220,970 1830,1460 610,500 1220,1010 1820,1540 610,530 1210,1080 1780,1670 370,380 720,770 1060,1180l0 -1020c-160,-190 -320,-380 -480,-560z"/>
  <polygon fill="fuchsia" fill-rule="nonzero" points="146280,1160 146280,1160 146280,0 146280,0 "/>
  <path fill="fuchsia" fill-rule="nonzero" d="M145800 54040c-520,-610 -1060,-1190 -1610,-1750 -550,-570 -1110,-1130 -1670,-1690 -570,-550 -1140,-1110 -1710,-1670 -570,-570 -1140,-1150 -1710,-1740 -570,-600 -1140,-1210 -1710,-1860 -570,-650 -1140,-1330 -1710,-2050 -570,-710 -1140,-1470 -1700,-2280 -570,-810 -1130,-1670 -1670,-2590 -550,-920 -1080,-1890 -1580,-2940 -490,-1050 -950,-2170 -1350,-3370 -390,-1200 -720,-2470 -930,-3830 -210,-1360 -310,-2800 -230,-4320 80,-1520 340,-3120 840,-4780 490,-1650 1230,-3360 2240,-5060 1000,-1700 2280,-3390 3810,-4970 1540,-1600 3300,-3060 5430,-4490 1590,-1070 3270,-2050 5740,-3490l0 -1160 -590 0c-3130,1840 -5110,2980 -7020,4310 -2170,1510 -3990,3090 -5560,4810 -1570,1710 -2850,3520 -3840,5320 -980,1800 -1670,3590 -2110,5310 -440,1720 -620,3380 -640,4940 -10,1560 160,3030 440,4410 280,1380 670,2670 1120,3870 450,1210 960,2330 1490,3380 540,1040 1110,2020 1680,2930 580,910 1160,1760 1750,2560 580,790 1170,1540 1750,2240 580,710 1160,1370 1740,2000 580,630 1160,1230 1740,1800 580,580 1160,1140 1740,1680 580,550 1160,1080 1740,1610 580,540 1160,1070 1730,1620 580,540 1140,1100 1690,1680 400,420 780,870 1150,1320l0 -1150c-160,-200 -320,-410 -480,-600z"/>
  <path fill="fuchsia" fill-rule="nonzero" d="M146060 51140c-460,-640 -960,-1260 -1470,-1880 -500,-620 -1030,-1240 -1550,-1870 -530,-620 -1060,-1260 -1600,-1910 -530,-650 -1070,-1310 -1600,-2010 -540,-690 -1070,-1410 -1590,-2170 -530,-750 -1050,-1550 -1550,-2380 -500,-840 -990,-1720 -1450,-2650 -460,-930 -900,-1910 -1280,-2950 -390,-1040 -720,-2140 -980,-3310 -260,-1160 -430,-2380 -490,-3670 -50,-1290 10,-2630 240,-4030 230,-1400 630,-2840 1230,-4310 600,-1460 1400,-2940 2400,-4380 1010,-1440 2210,-2830 3620,-4120 1420,-1310 2990,-2490 5030,-3780 400,-250 810,-510 1260,-780l0 -1560c-1170,700 -2150,1280 -3060,1870 -2060,1330 -3710,2620 -5190,4040 -1460,1410 -2710,2920 -3730,4470 -1010,1550 -1800,3120 -2360,4670 -570,1540 -910,3060 -1090,4510 -170,1450 -180,2840 -60,4160 120,1320 350,2570 670,3740 310,1180 700,2290 1130,3340 430,1040 900,2030 1400,2950 500,930 1020,1800 1550,2630 530,820 1070,1600 1610,2340 550,740 1100,1450 1650,2120 550,670 1100,1320 1660,1950 550,630 1100,1230 1650,1830 550,600 1090,1200 1630,1790 530,590 1060,1180 1570,1790 330,400 660,810 970,1230l0 -1370c-70,-100 -140,-200 -220,-300z"/>
  <path fill="fuchsia" fill-rule="nonzero" d="M145340 46080c-450,-700 -910,-1400 -1380,-2110 -470,-710 -940,-1430 -1410,-2170 -470,-750 -940,-1510 -1400,-2310 -460,-790 -910,-1610 -1330,-2470 -420,-850 -830,-1740 -1190,-2680 -370,-930 -690,-1900 -970,-2920 -270,-1020 -480,-2080 -610,-3190 -120,-1100 -170,-2250 -100,-3440 70,-1190 260,-2410 590,-3660 320,-1240 790,-2500 1410,-3750 620,-1250 1390,-2480 2310,-3650 910,-1180 1970,-2280 3210,-3340 560,-480 1150,-940 1810,-1420l0 -1750c-1440,940 -2580,1800 -3640,2720 -1310,1150 -2430,2380 -3400,3660 -960,1280 -1760,2620 -2380,3960 -620,1340 -1070,2680 -1360,4000 -300,1310 -440,2590 -460,3820 -20,1230 70,2420 250,3550 180,1130 440,2210 760,3240 320,1030 700,2010 1100,2950 410,930 850,1820 1310,2660 460,850 940,1660 1430,2440 490,780 990,1520 1490,2250 500,720 1000,1420 1500,2100 500,690 1000,1360 1490,2020 490,670 960,1320 1420,1990 170,240 330,480 490,730l0 -1730c-310,-500 -620,-1000 -940,-1500z"/>
  <path fill="fuchsia" fill-rule="nonzero" d="M145380 40550c-370,-790 -750,-1600 -1110,-2430 -360,-830 -710,-1670 -1030,-2540 -330,-870 -630,-1770 -890,-2690 -260,-930 -480,-1880 -640,-2850 -160,-980 -260,-1980 -290,-3010 -20,-1030 30,-2080 170,-3140 150,-1070 390,-2140 730,-3210 350,-1060 800,-2120 1340,-3150 550,-1020 1200,-2000 1950,-2930 220,-270 440,-530 670,-780l0 -2260c-940,830 -1740,1660 -2460,2550 -830,1030 -1540,2120 -2130,3240 -590,1120 -1060,2270 -1410,3420 -350,1140 -570,2290 -690,3410 -130,1120 -140,2210 -80,3280 70,1060 220,2090 420,3090 210,1000 480,1960 780,2890 310,920 660,1820 1030,2690 370,860 760,1700 1170,2510 410,810 820,1600 1240,2380 420,770 840,1530 1260,2270 290,550 590,1080 870,1620l0 -2420c-300,-640 -600,-1280 -900,-1940z"/>
  <path fill="fuchsia" fill-rule="nonzero" d="M146040 32310c-150,-900 -270,-1810 -340,-2730 -80,-920 -110,-1850 -80,-2780 30,-930 120,-1860 260,-2780 110,-640 240,-1270 400,-1890l0 -4650c-110,190 -220,390 -320,580 -470,910 -860,1850 -1180,2810 -310,970 -550,1950 -700,2930 -160,990 -240,1980 -250,2950 -10,980 40,1940 150,2890 110,940 270,1870 470,2780 200,910 440,1810 700,2680 260,880 540,1740 830,2580 100,290 200,570 300,850l0 -4940c-90,-420 -170,-850 -240,-1280z"/>
 </g>
</svg>
