<?xml version="1.0" encoding="UTF-8"?>
<!DOCTYPE svg PUBLIC "-//W3C//DTD SVG 1.1//EN" "http://www.w3.org/Graphics/SVG/1.1/DTD/svg11.dtd">
<!-- Creator: CorelDRAW 2020 (64-Bit) -->
<svg xmlns="http://www.w3.org/2000/svg" xml:space="preserve" width="440px" height="321px" version="1.1" shape-rendering="geometricPrecision" text-rendering="geometricPrecision" image-rendering="optimizeQuality" fill-rule="evenodd" clip-rule="evenodd"
viewBox="0 0 434 317"
 xmlns:xlink="http://www.w3.org/1999/xlink"
 xmlns:xodm="http://www.corel.com/coreldraw/odm/2003">
 <g id="Слой_x0020_1">
  <metadata id="CorelCorpID_0Corel-Layer"/>
  <polygon fill="fuchsia" fill-rule="nonzero" points="194,1 412,1 412,0 194,0 "/>
  <polygon fill="fuchsia" fill-rule="nonzero" points="349,292 316,292 316,293 293,293 293,295 281,295 281,295 238,295 238,295 64,295 64,295 76,295 76,294 99,294 99,294 132,294 132,293 284,293 284,292 66,292 66,292 0,292 0,300 149,300 149,300 168,300 168,298 284,298 284,298 294,298 294,298 385,298 385,298 366,298 366,300 434,300 434,292 349,292 "/>
  <polygon fill="fuchsia" fill-rule="nonzero" points="347,22 324,22 324,22 129,22 129,21 0,21 0,24 112,24 112,23 315,23 315,24 330,24 330,24 434,24 434,21 347,21 "/>
  <polygon fill="fuchsia" fill-rule="nonzero" points="390,161 350,161 350,162 291,162 291,164 100,164 100,165 317,165 317,164 434,164 434,161 390,161 "/>
  <polygon fill="fuchsia" fill-rule="nonzero" points="428,13 264,13 264,15 434,15 434,11 428,11 "/>
  <polygon fill="fuchsia" fill-rule="nonzero" points="378,34 351,34 351,36 406,36 406,37 434,37 434,34 378,34 "/>
  <polygon fill="fuchsia" fill-rule="nonzero" points="386,44 324,44 324,46 434,46 434,44 386,44 "/>
  <polygon fill="fuchsia" fill-rule="nonzero" points="342,80 412,80 412,80 224,80 224,81 194,81 194,81 195,81 195,79 125,79 125,78 0,78 0,82 51,82 51,83 248,83 248,83 190,83 190,84 160,84 160,84 68,84 68,83 31,83 31,82 0,82 0,86 172,86 172,86 207,86 207,86 389,86 389,86 434,86 434,82 268,82 268,82 411,82 411,82 434,82 434,78 342,78 "/>
  <polygon fill="fuchsia" fill-rule="nonzero" points="403,89 303,89 303,91 336,91 336,91 434,91 434,88 403,88 "/>
  <polygon fill="fuchsia" fill-rule="nonzero" points="366,60 265,60 265,62 423,62 423,63 343,63 343,63 206,63 206,62 47,62 47,61 149,61 149,59 0,59 0,65 125,65 125,64 126,64 126,64 343,64 343,65 434,65 434,59 366,59 "/>
  <polygon fill="fuchsia" fill-rule="nonzero" points="386,248 431,248 431,248 434,248 434,246 386,246 "/>
  <polygon fill="fuchsia" fill-rule="nonzero" points="336,176 361,176 361,177 434,177 434,174 336,174 "/>
  <polygon fill="fuchsia" fill-rule="nonzero" points="380,56 434,56 434,54 380,54 "/>
  <polygon fill="fuchsia" fill-rule="nonzero" points="404,222 306,222 306,221 88,221 88,221 0,221 0,227 197,227 197,225 163,225 163,224 210,224 210,223 187,223 187,222 263,222 263,224 353,224 353,225 236,225 236,226 414,226 414,227 434,227 434,221 404,221 "/>
  <polygon fill="fuchsia" fill-rule="nonzero" points="366,105 198,105 198,107 412,107 412,107 214,107 214,109 432,109 432,108 434,108 434,105 366,105 "/>
  <polygon fill="fuchsia" fill-rule="nonzero" points="383,261 309,261 309,263 229,263 229,264 73,264 73,266 290,266 290,265 434,265 434,261 383,261 "/>
  <polygon fill="fuchsia" fill-rule="nonzero" points="382,152 434,152 434,150 382,150 "/>
  <polygon fill="fuchsia" fill-rule="nonzero" points="385,160 434,160 434,158 385,158 "/>
  <polygon fill="fuchsia" fill-rule="nonzero" points="377,283 434,283 434,281 377,281 "/>
  <polygon fill="fuchsia" fill-rule="nonzero" points="371,278 261,278 261,278 230,278 230,277 13,277 13,278 0,278 0,280 30,280 30,280 60,280 60,281 0,281 0,283 160,283 160,281 278,281 278,280 434,280 434,278 371,278 "/>
  <polygon fill="fuchsia" fill-rule="nonzero" points="385,114 226,114 226,115 168,115 168,114 0,114 0,116 8,116 8,116 104,116 104,117 322,117 322,117 345,117 345,116 434,116 434,114 385,114 "/>
  <polygon fill="fuchsia" fill-rule="nonzero" points="347,193 396,193 396,193 434,193 434,191 347,191 "/>
  <polygon fill="fuchsia" fill-rule="nonzero" points="363,187 318,187 318,186 101,186 101,187 0,187 0,189 40,189 40,189 146,189 146,187 257,187 257,189 434,189 434,187 363,187 "/>
  <polygon fill="fuchsia" fill-rule="nonzero" points="324,167 209,167 209,169 227,169 227,169 434,169 434,166 324,166 "/>
  <polygon fill="fuchsia" fill-rule="nonzero" points="347,211 247,211 247,213 383,213 383,213 273,213 273,215 434,215 434,211 347,211 "/>
  <polygon fill="fuchsia" fill-rule="nonzero" points="318,179 433,179 433,180 434,180 434,177 318,177 "/>
  <polygon fill="fuchsia" fill-rule="nonzero" points="318,1 318,1 275,1 275,2 138,2 138,4 247,4 247,4 252,4 252,4 127,4 127,5 92,5 92,6 0,6 0,10 73,10 73,10 113,10 113,9 35,9 35,8 138,8 138,7 309,7 309,6 434,6 434,1 "/>
  <polygon fill="fuchsia" fill-rule="nonzero" points="355,7 252,7 252,9 291,9 291,10 434,10 434,6 355,6 "/>
  <polygon fill="fuchsia" fill-rule="nonzero" points="0,135 42,135 42,133 0,133 "/>
  <polygon fill="fuchsia" fill-rule="nonzero" points="26,131 137,131 137,129 102,129 102,128 0,128 0,132 26,132 "/>
  <polygon fill="fuchsia" fill-rule="nonzero" points="0,310 74,310 74,308 0,308 "/>
  <polygon fill="fuchsia" fill-rule="nonzero" points="0,305 54,305 54,303 0,303 "/>
  <polygon fill="fuchsia" fill-rule="nonzero" points="59,276 149,276 149,274 94,274 94,274 129,274 129,272 113,272 113,272 0,272 0,277 59,277 "/>
  <polygon fill="fuchsia" fill-rule="nonzero" points="0,122 59,122 59,120 0,120 "/>
  <polygon fill="fuchsia" fill-rule="nonzero" points="0,58 17,58 17,56 0,56 "/>
  <polygon fill="fuchsia" fill-rule="nonzero" points="9,168 162,168 162,166 107,166 107,166 0,166 0,169 9,169 "/>
  <polygon fill="fuchsia" fill-rule="nonzero" points="74,163 133,163 133,163 172,163 172,161 0,161 0,164 74,164 "/>
  <polygon fill="fuchsia" fill-rule="nonzero" points="0,219 39,219 39,217 0,217 "/>
  <polygon fill="fuchsia" fill-rule="nonzero" points="56,214 166,214 166,212 129,212 129,211 0,211 0,215 56,215 "/>
  <polygon fill="fuchsia" fill-rule="nonzero" points="0,171 3,171 3,169 0,169 "/>
  <polygon fill="fuchsia" fill-rule="nonzero" points="119,90 185,90 185,88 0,88 0,91 119,91 "/>
  <polygon fill="fuchsia" fill-rule="nonzero" points="23,5 80,5 80,3 85,3 85,3 100,3 100,1 0,1 0,6 23,6 "/>
  <polygon fill="fuchsia" fill-rule="nonzero" points="101,41 252,41 252,40 47,40 47,38 0,38 0,40 35,40 35,40 0,40 0,42 101,42 "/>
  <polygon fill="fuchsia" fill-rule="nonzero" points="82,312 50,312 50,312 0,312 0,313 82,313 "/>
  <polygon fill="fuchsia" fill-rule="nonzero" points="0,307 88,307 88,305 0,305 "/>
  <polygon fill="fuchsia" fill-rule="nonzero" points="0,30 66,30 66,28 0,28 "/>
  <polygon fill="fuchsia" fill-rule="nonzero" points="0,49 76,49 76,48 0,48 "/>
  <polygon fill="fuchsia" fill-rule="nonzero" points="47,13 210,13 210,11 0,11 0,15 47,15 "/>
  <polygon fill="fuchsia" fill-rule="nonzero" points="12,264 111,264 111,263 166,263 166,261 0,261 0,265 12,265 "/>
  <polygon fill="fuchsia" fill-rule="nonzero" points="27,95 29,95 29,93 0,93 0,96 27,96 "/>
  <polygon fill="fuchsia" fill-rule="nonzero" points="148,120 365,120 365,118 148,118 "/>
  <polygon fill="fuchsia" fill-rule="nonzero" points="56,126 273,126 273,124 56,124 "/>
  <polygon fill="fuchsia" fill-rule="nonzero" points="259,134 84,134 84,136 201,136 201,137 418,137 418,135 301,135 301,135 434,135 434,133 259,133 "/>
  <polygon fill="fuchsia" fill-rule="nonzero" points="195,106 148,106 148,105 0,105 0,108 195,108 "/>
  <polygon fill="fuchsia" fill-rule="nonzero" points="168,159 317,159 317,158 99,158 99,158 0,158 0,160 168,160 "/>
  <polygon fill="fuchsia" fill-rule="nonzero" points="256,219 434,219 434,217 256,217 "/>
  <polygon fill="fuchsia" fill-rule="nonzero" points="63,158 280,158 280,156 63,156 "/>
  <polygon fill="fuchsia" fill-rule="nonzero" points="313,205 302,205 302,207 353,207 353,207 144,207 144,208 136,208 136,206 96,206 96,205 0,205 0,208 113,208 113,209 50,209 50,211 59,211 59,211 276,211 276,209 330,209 330,209 361,209 361,208 434,208 434,205 313,205 "/>
  <polygon fill="fuchsia" fill-rule="nonzero" points="220,171 434,171 434,169 220,169 "/>
  <polygon fill="fuchsia" fill-rule="nonzero" points="303,250 38,250 38,251 0,251 0,253 52,253 52,252 269,252 269,253 434,253 434,251 303,251 "/>
  <polygon fill="fuchsia" fill-rule="nonzero" points="278,232 337,232 337,232 367,232 367,233 280,233 280,233 176,233 176,233 150,233 150,232 120,232 120,231 61,231 61,230 0,230 0,235 63,235 63,234 96,234 96,235 153,235 153,236 145,236 145,238 362,238 362,236 371,236 371,235 434,235 434,230 278,230 "/>
  <polygon fill="fuchsia" fill-rule="nonzero" points="332,120 115,120 115,122 276,122 276,122 88,122 88,123 305,123 305,122 434,122 434,120 332,120 "/>
  <polygon fill="fuchsia" fill-rule="nonzero" points="309,110 91,110 91,111 73,111 73,110 0,110 0,113 132,113 132,113 173,113 173,111 290,111 290,112 317,112 317,112 349,112 349,113 434,113 434,110 309,110 "/>
  <path fill="fuchsia" fill-rule="nonzero" d="M289 149l-69 0 0 0 69 0 0 0zm-177 -1l-40 0 0 -1 40 0 0 1zm112 -11l-100 0 0 0 -117 0 0 0 -7 0 0 2 61 0 0 0 -61 0 0 7 103 0 0 -2 42 0 0 -2 -7 0 0 0 171 0 0 0 46 0 0 1 7 0 0 1 -42 0 0 1 -171 0 0 1 -63 0 0 0 -85 0 0 3 3 0 0 1 -3 0 0 2 165 0 0 0 154 0 0 -1 41 0 0 -2 74 0 0 -3 -69 0 0 0 69 0 0 -7 -131 0 0 0 -174 0 0 1 -42 0 0 1 -1 0 0 -2 191 0 0 0 63 0 0 0 93 0 0 -2 -210 0 0 0z"/>
  <polygon fill="fuchsia" fill-rule="nonzero" points="72,104 289,104 289,102 72,102 "/>
  <polygon fill="fuchsia" fill-rule="nonzero" points="272,56 55,56 55,58 234,58 234,58 434,58 434,56 272,56 "/>
  <polygon fill="fuchsia" fill-rule="nonzero" points="249,92 31,92 31,93 246,93 246,94 244,94 244,96 434,96 434,93 249,93 "/>
  <polygon fill="fuchsia" fill-rule="nonzero" points="12,25 12,27 116,27 116,28 333,28 333,26 229,26 229,25 "/>
  <polygon fill="fuchsia" fill-rule="nonzero" points="212,18 158,18 158,18 42,18 42,17 110,17 110,15 0,15 0,20 212,20 "/>
  <polygon fill="fuchsia" fill-rule="nonzero" points="416,238 199,238 199,239 164,239 164,238 0,238 0,241 41,241 41,240 51,240 51,241 258,241 258,241 434,241 434,238 416,238 "/>
  <polygon fill="fuchsia" fill-rule="nonzero" points="163,54 248,54 248,53 242,53 242,51 25,51 25,53 31,53 31,54 0,54 0,56 163,56 "/>
  <polygon fill="fuchsia" fill-rule="nonzero" points="111,99 85,99 85,99 280,99 280,97 63,97 63,98 0,98 0,101 111,101 "/>
  <polygon fill="fuchsia" fill-rule="nonzero" points="107,46 169,46 169,44 0,44 0,46 107,46 "/>
  <polygon fill="fuchsia" fill-rule="nonzero" points="297,200 277,200 277,201 237,201 237,200 80,200 80,199 0,199 0,204 145,204 145,202 78,202 78,202 10,202 10,202 20,202 20,202 227,202 227,203 295,203 295,204 362,204 362,204 434,204 434,199 297,199 "/>
  <polygon fill="fuchsia" fill-rule="nonzero" points="36,183 36,185 253,185 253,183 229,183 229,183 "/>
  <polygon fill="fuchsia" fill-rule="nonzero" points="365,183 365,181 147,181 147,181 12,181 12,183 36,183 36,183 229,183 229,183 "/>
  <polygon fill="fuchsia" fill-rule="nonzero" points="251,67 423,67 423,68 434,68 434,65 251,65 "/>
  <polygon fill="fuchsia" fill-rule="nonzero" points="384,38 167,38 167,39 264,39 264,40 434,40 434,38 384,38 "/>
  <polygon fill="fuchsia" fill-rule="nonzero" points="283,30 434,30 434,28 283,28 "/>
  <polygon fill="fuchsia" fill-rule="nonzero" points="290,31 247,31 247,31 73,31 73,31 0,31 0,33 104,33 104,33 133,33 133,34 0,34 0,37 189,37 189,36 329,36 329,34 161,34 161,34 350,34 350,33 434,33 434,31 290,31 "/>
  <polygon fill="fuchsia" fill-rule="nonzero" points="178,192 311,192 311,190 94,190 94,191 0,191 0,193 178,193 "/>
  <polygon fill="fuchsia" fill-rule="nonzero" points="216,179 101,179 101,177 232,177 232,176 143,176 143,175 118,175 118,174 0,174 0,177 15,177 15,177 0,177 0,180 216,180 "/>
  <path fill="fuchsia" fill-rule="nonzero" d="M57 76l12 0 0 0 -12 0 0 0zm268 -1l-183 0 0 0 -34 0 0 -1 -107 0 0 4 76 0 0 -1 198 0 0 1 19 0 0 0 141 0 0 -4 -110 0 0 1z"/>
  <polygon fill="fuchsia" fill-rule="nonzero" points="431,15 214,15 214,17 259,17 259,18 375,18 375,20 429,20 429,20 434,20 434,15 431,15 "/>
  <polygon fill="fuchsia" fill-rule="nonzero" points="318,42 434,42 434,40 318,40 "/>
  <polygon fill="fuchsia" fill-rule="nonzero" points="212,44 429,44 429,42 212,42 "/>
  <polygon fill="fuchsia" fill-rule="nonzero" points="200,270 42,270 42,270 0,270 0,272 200,272 "/>
  <polygon fill="fuchsia" fill-rule="nonzero" points="410,266 193,266 193,268 147,268 147,267 0,267 0,270 202,270 202,268 364,268 364,269 420,269 420,270 434,270 434,267 410,267 "/>
  <polygon fill="fuchsia" fill-rule="nonzero" points="137,302 354,302 354,300 137,300 "/>
  <polygon fill="fuchsia" fill-rule="nonzero" points="293,49 213,49 213,51 430,51 430,49 434,49 434,48 293,48 "/>
  <polygon fill="fuchsia" fill-rule="nonzero" points="271,305 434,305 434,303 271,303 "/>
  <polygon fill="fuchsia" fill-rule="nonzero" points="359,256 247,256 247,256 29,256 29,258 0,258 0,260 167,260 167,258 121,258 121,258 142,258 142,258 339,258 339,260 385,260 385,260 434,260 434,258 359,258 "/>
  <polygon fill="fuchsia" fill-rule="nonzero" points="417,314 412,314 412,314 195,314 195,316 199,316 199,316 348,316 348,317 434,317 434,315 417,315 "/>
  <polygon fill="fuchsia" fill-rule="nonzero" points="267,313 299,313 299,313 434,313 434,312 267,312 "/>
  <polygon fill="fuchsia" fill-rule="nonzero" points="29,256 246,256 246,254 29,254 "/>
  <polygon fill="fuchsia" fill-rule="nonzero" points="71,249 289,249 289,247 214,247 214,246 169,246 169,246 277,246 277,244 268,244 268,243 50,243 50,244 0,244 0,246 59,246 59,246 0,246 0,248 71,248 "/>
  <polygon fill="fuchsia" fill-rule="nonzero" points="305,307 162,307 162,307 135,307 135,309 214,309 214,310 291,310 291,310 434,310 434,308 431,308 431,308 379,308 379,307 434,307 434,305 305,305 "/>
  <polygon fill="fuchsia" fill-rule="nonzero" points="353,126 136,126 136,128 319,128 319,130 354,130 354,131 243,131 243,132 434,132 434,128 353,128 "/>
  <polygon fill="fuchsia" fill-rule="nonzero" points="303,100 202,100 202,101 419,101 419,101 434,101 434,98 303,98 "/>
  <polygon fill="fuchsia" fill-rule="nonzero" points="330,274 346,274 346,274 311,274 311,275 366,275 366,275 277,275 277,277 434,277 434,272 330,272 "/>
  <polygon fill="fuchsia" fill-rule="nonzero" points="323,246 434,246 434,244 323,244 "/>
  <polygon fill="fuchsia" fill-rule="nonzero" points="206,66 33,66 33,65 0,65 0,68 206,68 "/>
  <polygon fill="fuchsia" fill-rule="nonzero" points="181,72 398,72 398,70 425,70 425,69 207,69 207,70 181,70 "/>
  <polygon fill="fuchsia" fill-rule="nonzero" points="260,272 417,272 417,272 434,272 434,270 260,270 "/>
  <polygon fill="fuchsia" fill-rule="nonzero" points="0,317 131,317 131,315 0,315 "/>
  <polygon fill="fuchsia" fill-rule="nonzero" points="208,243 425,243 425,241 208,241 "/>
  <path fill="fuchsia" fill-rule="nonzero" d="M413 289l0 0 -23 0 0 0 -195 0 0 -1 -58 0 0 -1 161 0 0 1 57 0 0 1 58 0zm-296 -2l-36 0 0 0 36 0 0 0zm214 -2l73 0 0 1 -42 0 0 -1 -118 0 0 -1 -130 0 0 -1 -113 0 0 8 109 0 0 -1 64 0 0 1 153 0 0 0 109 0 0 -8 -104 0 0 2z"/>
 </g>
</svg>
