<?xml version="1.0" encoding="UTF-8"?>
<!DOCTYPE svg PUBLIC "-//W3C//DTD SVG 1.0//EN" "http://www.w3.org/TR/2001/REC-SVG-20010904/DTD/svg10.dtd">
<!-- Creator: CorelDRAW 2020 (64-Bit) -->
<svg xmlns="http://www.w3.org/2000/svg" xml:space="preserve" width="440mm" height="294.845mm" version="1.0" style="shape-rendering:geometricPrecision; text-rendering:geometricPrecision; image-rendering:optimizeQuality; fill-rule:evenodd; clip-rule:evenodd"
viewBox="0 0 399.41 267.64"
 xmlns:xlink="http://www.w3.org/1999/xlink"
 xmlns:xodm="http://www.corel.com/coreldraw/odm/2003">
 <defs>
  <style type="text/css">
   <![CDATA[
    .fil0 {fill:fuchsia;fill-rule:nonzero}
   ]]>
  </style>
 </defs>
 <g id="Слой_x0020_1">
  <metadata id="CorelCorpID_0Corel-Layer"/>
  <path class="fil0" d="M214.68 121.89c2.76,0 4.99,-2.24 4.99,-4.99l0 -13.65c0,-2.76 -2.23,-4.99 -4.99,-4.99 -2.76,0 -4.99,2.24 -4.99,4.99l0 13.65c0,2.76 2.24,4.99 4.99,4.99zm-79.88 -39.9c2.76,0 4.99,-2.23 4.99,-4.99l0 -9.43c0,-2.76 -2.24,-4.99 -4.99,-4.99 -2.76,0 -4.99,2.23 -4.99,4.99l0 9.43c0,2.76 2.23,4.99 4.99,4.99zm0 55.39c2.76,0 4.99,-2.24 4.99,-4.99l0 -29.12c0,-2.76 -2.24,-4.99 -4.99,-4.99 -2.76,0 -4.99,2.23 -4.99,4.99l0 29.12c0,2.76 2.23,4.99 4.99,4.99zm-19.97 -14.63c2.76,0 4.99,-2.23 4.99,-4.99l0 -10.65c0,-2.76 -2.24,-4.99 -4.99,-4.99 -2.76,0 -4.99,2.24 -4.99,4.99l0 10.65c0,2.76 2.24,4.99 4.99,4.99zm0 -82.91c2.76,0 4.99,-2.24 4.99,-4.99l0 -6.6c0,-2.76 -2.24,-4.99 -4.99,-4.99 -2.76,0 -4.99,2.23 -4.99,4.99l0 6.6c0,2.76 2.24,4.99 4.99,4.99zm19.97 2.71c2.76,0 4.99,-2.23 4.99,-4.99l0 0c0,-2.76 -2.24,-4.99 -4.99,-4.99 -2.76,0 -4.99,2.24 -4.99,4.99l0 0c0,2.76 2.23,4.99 4.99,4.99zm19.97 -13.86c2.76,0 4.99,-2.23 4.99,-4.99l0 -7.56c0,-2.76 -2.23,-4.99 -4.99,-4.99 -2.76,0 -4.99,2.24 -4.99,4.99l0 7.56c0,2.76 2.24,4.99 4.99,4.99zm39.94 35.99c2.76,0 4.99,-2.24 4.99,-4.99l0 -6.6c0,-2.76 -2.23,-4.99 -4.99,-4.99 -2.76,0 -4.99,2.24 -4.99,4.99l0 6.6c0,2.76 2.23,4.99 4.99,4.99zm0 71.79c2.76,0 4.99,-2.23 4.99,-4.99l0 -37.25c0,-2.76 -2.23,-4.99 -4.99,-4.99 -2.76,0 -4.99,2.24 -4.99,4.99l0 37.25c0,2.76 2.23,4.99 4.99,4.99zm-19.97 17.6c2.76,0 4.99,-2.23 4.99,-4.99l0 -72.46c0,-2.76 -2.24,-4.99 -4.99,-4.99 -2.76,0 -4.99,2.23 -4.99,4.99l0 72.46c0,2.76 2.24,4.99 4.99,4.99zm0 -98.51c2.76,0 4.99,-2.23 4.99,-4.99l0 -16.03c0,-2.76 -2.24,-4.99 -4.99,-4.99 -2.76,0 -4.99,2.23 -4.99,4.99l0 16.03c0,2.76 2.24,4.99 4.99,4.99zm-19.97 55.61c2.76,0 4.99,-2.23 4.99,-4.99l0 -51.43c0,-2.76 -2.23,-4.99 -4.99,-4.99 -2.76,0 -4.99,2.23 -4.99,4.99l0 51.43c0,2.76 2.24,4.99 4.99,4.99zm-39.94 -23.16c2.76,0 4.99,-2.24 4.99,-4.99l0 -21.47c0,-2.76 -2.24,-4.99 -4.99,-4.99 -2.76,0 -4.99,2.24 -4.99,4.99l0 21.47c0,2.76 2.24,4.99 4.99,4.99zm-79.88 -69.14c2.76,0 4.99,-2.23 4.99,-4.99 0,-2.76 -2.23,-4.99 -4.99,-4.99 -2.76,0 -4.99,2.24 -4.99,4.99 0,2.76 2.24,4.99 4.99,4.99zm-19.97 33.37c2.76,0 4.99,-2.24 4.99,-4.99l0 -13.32c0,-2.76 -2.24,-4.99 -4.99,-4.99 -2.76,0 -4.99,2.24 -4.99,4.99l0 13.32c0,2.76 2.23,4.99 4.99,4.99zm39.94 4.16c2.76,0 4.99,-2.24 4.99,-4.99l0 -6.6c0,-2.76 -2.23,-4.99 -4.99,-4.99 -2.76,0 -4.99,2.24 -4.99,4.99l0 6.6c0,2.76 2.24,4.99 4.99,4.99zm-19.97 40.71c2.76,0 4.99,-2.24 4.99,-4.99l0 -28.46c0,-2.76 -2.23,-4.99 -4.99,-4.99 -2.76,0 -4.99,2.23 -4.99,4.99l0 28.46c0,2.76 2.24,4.99 4.99,4.99zm19.97 18.82c2.76,0 4.99,-2.23 4.99,-4.99l0 -27.23c0,-2.76 -2.23,-4.99 -4.99,-4.99 -2.76,0 -4.99,2.23 -4.99,4.99l0 27.23c0,2.76 2.24,4.99 4.99,4.99zm39.94 -92.23c2.76,0 4.99,-2.24 4.99,-4.99l0 -13.7c0,-2.76 -2.23,-4.99 -4.99,-4.99 -2.76,0 -4.99,2.23 -4.99,4.99l0 13.7c0,2.76 2.24,4.99 4.99,4.99zm0 82.82c2.76,0 4.99,-2.24 4.99,-4.99l0 -47.26c0,-2.76 -2.23,-4.99 -4.99,-4.99 -2.76,0 -4.99,2.23 -4.99,4.99l0 47.26c0,2.76 2.24,4.99 4.99,4.99zm-19.97 -87.64c2.76,0 4.99,-2.23 4.99,-4.99 0,-2.76 -2.24,-4.99 -4.99,-4.99 -2.76,0 -4.99,2.24 -4.99,4.99 0,2.76 2.23,4.99 4.99,4.99zm0 111.33c2.76,0 4.99,-2.23 4.99,-4.99l0 -18.86c0,-2.76 -2.24,-4.99 -4.99,-4.99 -2.76,0 -4.99,2.24 -4.99,4.99l0 18.86c0,2.76 2.23,4.99 4.99,4.99zm0 -55.77c2.76,0 4.99,-2.23 4.99,-4.99l0 -30.27c0,-2.76 -2.24,-4.99 -4.99,-4.99 -2.76,0 -4.99,2.24 -4.99,4.99l0 30.27c0,2.76 2.23,4.99 4.99,4.99zm239.64 -4.52c2.76,0 4.99,-2.24 4.99,-4.99l0 -21.24c0,-2.76 -2.23,-4.99 -4.99,-4.99 -2.76,0 -4.99,2.24 -4.99,4.99l0 21.24c0,2.76 2.23,4.99 4.99,4.99zm59.91 36.37c2.76,0 4.99,-2.23 4.99,-4.99l0 -33.73c0,-2.76 -2.23,-4.99 -4.99,-4.99 -2.76,0 -4.99,2.23 -4.99,4.99l0 33.73c0,2.76 2.23,4.99 4.99,4.99zm-19.97 -31.14c2.76,0 4.99,-2.23 4.99,-4.99l0 -7.78c0,-2.76 -2.23,-4.99 -4.99,-4.99 -2.76,0 -4.99,2.24 -4.99,4.99l0 7.78c0,2.76 2.23,4.99 4.99,4.99zm-19.97 -59.01c2.76,0 4.99,-2.24 4.99,-4.99 0,-2.76 -2.23,-4.99 -4.99,-4.99 -2.76,0 -4.99,2.24 -4.99,4.99 0,2.76 2.23,4.99 4.99,4.99zm19.97 127.94c2.76,0 4.99,-2.23 4.99,-4.99l0 -31.98c0,-2.76 -2.23,-4.99 -4.99,-4.99 -2.76,0 -4.99,2.24 -4.99,4.99l0 31.98c0,2.76 2.23,4.99 4.99,4.99zm-339.5 -19.31c2.76,0 4.99,-2.23 4.99,-4.99l0 -41.95c0,-2.76 -2.24,-4.99 -4.99,-4.99 -2.76,0 -4.99,2.23 -4.99,4.99l0 41.95c0,2.76 2.23,4.99 4.99,4.99zm319.53 -50.04c2.76,0 4.99,-2.23 4.99,-4.99l0 -39.97c0,-2.76 -2.23,-4.99 -4.99,-4.99 -2.76,0 -4.99,2.23 -4.99,4.99l0 39.97c0,2.76 2.23,4.99 4.99,4.99zm0 48.68c2.76,0 4.99,-2.24 4.99,-4.99l0 -16.7c0,-2.76 -2.23,-4.99 -4.99,-4.99 -2.76,0 -4.99,2.24 -4.99,4.99l0 16.7c0,2.76 2.23,4.99 4.99,4.99zm59.91 -88.16c-2.76,0 -4.99,2.24 -4.99,4.99l0 35.23c0,2.76 2.23,4.99 4.99,4.99 2.76,0 4.99,-2.23 4.99,-4.99l0 -35.23c0,-2.76 -2.23,-4.99 -4.99,-4.99zm-19.97 3.12c2.76,0 4.99,-2.23 4.99,-4.99l0 -8.91c0,-2.76 -2.23,-4.99 -4.99,-4.99 -2.76,0 -4.99,2.23 -4.99,4.99l0 8.91c0,2.76 2.23,4.99 4.99,4.99zm19.97 56.9c-2.76,0 -4.99,2.24 -4.99,4.99l0 48.68c0,2.76 2.23,4.99 4.99,4.99 2.76,0 4.99,-2.23 4.99,-4.99l0 -48.68c0,-2.76 -2.23,-4.99 -4.99,-4.99zm0 -83.43c2.76,0 4.99,-2.23 4.99,-4.99 0,-2.76 -2.23,-4.99 -4.99,-4.99 -2.76,0 -4.99,2.24 -4.99,4.99 0,2.76 2.23,4.99 4.99,4.99zm0 158.24c-2.76,0 -4.99,2.24 -4.99,4.99l0 15.87c0,2.76 -2.23,4.99 -4.99,4.99 -2.76,0 -4.99,-2.24 -4.99,-4.99l0 -59.75c0,-2.76 -2.23,-4.99 -4.99,-4.99 -2.76,0 -4.99,2.23 -4.99,4.99l0 64.37c0,2.76 -2.23,4.99 -4.99,4.99 -2.76,0 -4.99,-2.23 -4.99,-4.99l0 -36.76c0,-2.76 -2.23,-4.99 -4.99,-4.99 -2.76,0 -4.99,2.23 -4.99,4.99l0 60.19c0,2.76 -2.23,4.99 -4.99,4.99 -2.76,0 -4.99,-2.23 -4.99,-4.99l0 -77.34c0,-2.76 -2.23,-4.99 -4.99,-4.99 -2.76,0 -4.99,2.24 -4.99,4.99l0 101.31c0,2.76 -2.23,4.99 -4.99,4.99 -2.76,0 -4.99,-2.24 -4.99,-4.99l0 -76.33c0,-2.76 -2.23,-4.99 -4.99,-4.99 -2.76,0 -4.99,2.23 -4.99,4.99l0 61.39c0,2.76 -2.23,4.99 -4.99,4.99 -2.76,0 -4.99,-2.24 -4.99,-4.99l0 -101.65c0,-2.76 -2.23,-4.99 -4.99,-4.99 -2.76,0 -4.99,2.23 -4.99,4.99l0 76.62c0,2.76 -2.23,4.99 -4.99,4.99 -2.76,0 -4.99,-2.24 -4.99,-4.99l0 -24.7c0,-2.76 -2.23,-4.99 -4.99,-4.99 -2.76,0 -4.99,2.24 -4.99,4.99l0 4.4c0,2.76 -2.23,4.99 -4.99,4.99 -2.76,0 -4.99,-2.24 -4.99,-4.99l0 -49.38c0,-2.76 -2.24,-4.99 -4.99,-4.99 -2.76,0 -4.99,2.24 -4.99,4.99l0 67.41c0,2.76 -2.24,4.99 -4.99,4.99 -2.76,0 -4.99,-2.23 -4.99,-4.99l0 -57.19c0,-2.76 -2.24,-4.99 -4.99,-4.99 -2.76,0 -4.99,2.23 -4.99,4.99l0 46.43c0,2.76 -2.23,4.99 -4.99,4.99 -2.76,0 -4.99,-2.23 -4.99,-4.99l0 -47.69c0,-2.76 -2.23,-4.99 -4.99,-4.99 -2.76,0 -4.99,2.23 -4.99,4.99l0 87.71c0,2.76 -2.24,4.99 -4.99,4.99 -2.76,0 -4.99,-2.23 -4.99,-4.99l0 -71.06c0,-2.76 -2.23,-4.99 -4.99,-4.99 -2.76,0 -4.99,2.24 -4.99,4.99l0 23.44c0,2.76 -2.24,4.99 -4.99,4.99 -2.76,0 -4.99,-2.23 -4.99,-4.99l0 -10.61c0,-2.76 -2.24,-4.99 -4.99,-4.99 -2.76,0 -4.99,2.24 -4.99,4.99l0 22.73c0,2.76 -2.23,4.99 -4.99,4.99 -2.76,0 -4.99,-2.23 -4.99,-4.99l0 -67.57c0,-2.76 -2.23,-4.99 -4.99,-4.99 -2.76,0 -4.99,2.23 -4.99,4.99l0 58.75c0,2.76 -2.24,4.99 -4.99,4.99 -2.76,0 -4.99,-2.23 -4.99,-4.99l0 -31.22c0,-2.76 -2.24,-4.99 -4.99,-4.99 -2.76,0 -4.99,2.23 -4.99,4.99l0 62.49c0,2.76 -2.24,4.99 -4.99,4.99 -2.76,0 -4.99,-2.23 -4.99,-4.99l0 -77.96c0,-2.76 -2.24,-4.99 -4.99,-4.99 -2.76,0 -4.99,2.23 -4.99,4.99l0 43.39c0,2.76 -2.23,4.99 -4.99,4.99 -2.76,0 -4.99,-2.23 -4.99,-4.99l0 -57.85c0,-2.76 -2.23,-4.99 -4.99,-4.99 -2.76,0 -4.99,2.24 -4.99,4.99l0 103.19c0,2.76 -2.24,4.99 -4.99,4.99 -2.76,0 -4.99,-2.24 -4.99,-4.99l0 -77.62c0,-2.76 -2.24,-4.99 -4.99,-4.99 -2.76,0 -4.99,2.23 -4.99,4.99l0 106.78c0,2.76 -2.24,4.99 -4.99,4.99 -2.76,0 -4.99,-2.24 -4.99,-4.99l0 -113.35c0,-2.76 -2.23,-4.99 -4.99,-4.99 -2.76,0 -4.99,2.23 -4.99,4.99l0 49.51c0,2.76 -2.23,4.99 -4.99,4.99 -2.76,0 -4.99,-2.24 -4.99,-4.99l0 -77.97c0,-2.76 -2.23,-4.99 -4.99,-4.99 -2.76,0 -4.99,2.23 -4.99,4.99l0 108.58c0,2.76 -2.24,4.99 -4.99,4.99 -2.76,0 -4.99,-2.23 -4.99,-4.99l0 -81.71c0,-2.76 -2.24,-4.99 -4.99,-4.99 -2.76,0 -4.99,2.24 -4.99,4.99l0 42.13c0,2.76 -2.24,4.99 -4.99,4.99 -2.76,0 -4.99,-2.23 -4.99,-4.99l0 25.85c0,-2.76 2.24,-4.99 4.99,-4.99 2.76,0 4.99,2.23 4.99,4.99l0 41.41c0,2.76 -2.24,4.99 -4.99,4.99 -2.76,0 -4.99,-2.24 -4.99,-4.99l0 16.33 19.97 0 0 -21.07c0,-2.76 2.23,-4.99 4.99,-4.99 2.76,0 4.99,2.23 4.99,4.99l0 21.07 9.99 0 0 -14.84c0,-2.76 2.24,-4.99 4.99,-4.99 2.76,0 4.99,2.23 4.99,4.99l0 14.84 29.96 0 0 -8.29c0,-2.76 2.23,-4.99 4.99,-4.99 2.76,0 4.99,2.23 4.99,4.99l0 8.29 11.39 0c0.91,-0.94 2.18,-1.52 3.59,-1.52 1.41,0 2.68,0.58 3.59,1.52l11.39 0 0 -25.1c0,-2.76 2.23,-4.99 4.99,-4.99 2.76,0 4.99,2.24 4.99,4.99l0 25.1 9.99 0 0 -3.54c0,-2.76 2.23,-4.99 4.99,-4.99 2.76,0 4.99,2.23 4.99,4.99l0 3.54 9.99 0 0 -45.19c0,-2.76 2.24,-4.99 4.99,-4.99 2.76,0 4.99,2.23 4.99,4.99l0 45.19 29.96 0 0 -1.49c0,-2.76 2.23,-4.99 4.99,-4.99 2.76,0 4.99,2.23 4.99,4.99l0 1.49 49.93 0 0 -14.82c0,-2.76 2.23,-4.99 4.99,-4.99 2.76,0 4.99,2.24 4.99,4.99l0 14.82 29.96 0 0 -16.33c0,-2.76 2.23,-4.99 4.99,-4.99 2.76,0 4.99,2.24 4.99,4.99l0 16.33 30.22 0c-0.17,-0.51 -0.27,-1.05 -0.27,-1.62l0 -19.13c0,-2.76 2.23,-4.99 4.99,-4.99 2.76,0 4.99,2.23 4.99,4.99l0 19.13c0,0.57 -0.09,1.11 -0.27,1.62l10.25 0 0 -50.32c0,-2.76 2.23,-4.99 4.99,-4.99 2.76,0 4.99,2.24 4.99,4.99l0 50.32 9.99 0 0 -35.03c0,-2.76 2.23,-4.99 4.99,-4.99 2.76,0 4.99,2.23 4.99,4.99l0 35.03 9.99 0 0 -92.57c0,-2.76 -2.23,-4.99 -4.99,-4.99zm-344.49 63.47c0,2.76 -2.23,4.99 -4.99,4.99 -2.76,0 -4.99,-2.24 -4.99,-4.99l0 -17.66c0,-2.76 2.24,-4.99 4.99,-4.99 2.76,0 4.99,2.23 4.99,4.99l0 17.66zm59.91 11.83c0,2.76 -2.23,4.99 -4.99,4.99 -2.76,0 -4.99,-2.23 -4.99,-4.99l0 -41.41c0,-2.76 2.24,-4.99 4.99,-4.99 2.76,0 4.99,2.23 4.99,4.99l0 41.41zm39.94 -9.15c0,2.76 -2.24,4.99 -4.99,4.99 -2.76,0 -4.99,-2.23 -4.99,-4.99l0 -28.6c0,-2.76 2.23,-4.99 4.99,-4.99 2.76,0 4.99,2.23 4.99,4.99l0 28.6zm39.94 15.23c0,2.76 -2.24,4.99 -4.99,4.99 -2.76,0 -4.99,-2.24 -4.99,-4.99l0 -45.67c0,-2.76 2.23,-4.99 4.99,-4.99 2.76,0 4.99,2.23 4.99,4.99l0 45.67zm39.94 -8.4c0,2.76 -2.23,4.99 -4.99,4.99 -2.76,0 -4.99,-2.23 -4.99,-4.99l0 -28.87c0,-2.76 2.24,-4.99 4.99,-4.99 2.76,0 4.99,2.23 4.99,4.99l0 28.87zm19.97 12.67c0,2.76 -2.24,4.99 -4.99,4.99 -2.76,0 -4.99,-2.23 -4.99,-4.99l0 -34.38c0,-2.76 2.23,-4.99 4.99,-4.99 2.76,0 4.99,2.23 4.99,4.99l0 34.38zm19.97 -32.93c0,2.76 -2.23,4.99 -4.99,4.99 -2.76,0 -4.99,-2.23 -4.99,-4.99l0 -10.7c0,-2.76 2.23,-4.99 4.99,-4.99 2.76,0 4.99,2.23 4.99,4.99l0 10.7zm19.97 31.02c0,2.76 -2.23,4.99 -4.99,4.99 -2.76,0 -4.99,-2.23 -4.99,-4.99l0 -21.97c0,-2.76 2.23,-4.99 4.99,-4.99 2.76,0 4.99,2.23 4.99,4.99l0 21.97zm-34.95 -216.25c2.76,0 4.99,-2.23 4.99,-4.99l0 -8.7c0,-2.76 -2.24,-4.99 -4.99,-4.99 -2.76,0 -4.99,2.24 -4.99,4.99l0 8.7c0,2.76 2.23,4.99 4.99,4.99zm0 61.25c2.76,0 4.99,-2.24 4.99,-4.99l0 -30.27c0,-2.76 -2.24,-4.99 -4.99,-4.99 -2.76,0 -4.99,2.23 -4.99,4.99l0 30.27c0,2.76 2.23,4.99 4.99,4.99zm-39.94 -12.68c2.76,0 4.99,-2.24 4.99,-4.99l0 -23.82c0,-2.76 -2.23,-4.99 -4.99,-4.99 -2.76,0 -4.99,2.24 -4.99,4.99l0 23.82c0,2.76 2.24,4.99 4.99,4.99zm19.97 -28.96c2.76,0 4.99,-2.23 4.99,-4.99l0 -8.22c0,-2.76 -2.24,-4.99 -4.99,-4.99 -2.76,0 -4.99,2.23 -4.99,4.99l0 8.22c0,2.76 2.24,4.99 4.99,4.99zm0 68.79c2.76,0 4.99,-2.24 4.99,-4.99l0 -37.76c0,-2.76 -2.24,-4.99 -4.99,-4.99 -2.76,0 -4.99,2.23 -4.99,4.99l0 37.76c0,2.76 2.24,4.99 4.99,4.99zm-19.97 -101.51c2.76,0 4.99,-2.24 4.99,-4.99 0,-2.76 -2.23,-4.99 -4.99,-4.99 -2.76,0 -4.99,2.23 -4.99,4.99 0,2.76 2.24,4.99 4.99,4.99zm79.88 80.89c2.76,0 4.99,-2.23 4.99,-4.99l0 -51.87c0,-2.76 -2.23,-4.99 -4.99,-4.99 -2.76,0 -4.99,2.23 -4.99,4.99l0 51.87c0,2.76 2.23,4.99 4.99,4.99zm19.97 39.8c2.76,0 4.99,-2.24 4.99,-4.99l0 -45.29c0,-2.76 -2.23,-4.99 -4.99,-4.99 -2.76,0 -4.99,2.23 -4.99,4.99l0 45.29c0,2.76 2.23,4.99 4.99,4.99zm-19.97 -115.24c2.76,0 4.99,-2.23 4.99,-4.99l0 -8.09c0,-2.76 -2.23,-4.99 -4.99,-4.99 -2.76,0 -4.99,2.24 -4.99,4.99l0 8.09c0,2.76 2.23,4.99 4.99,4.99zm-19.97 63.91c2.76,0 4.99,-2.23 4.99,-4.99l0 -13.7c0,-2.76 -2.23,-4.99 -4.99,-4.99 -2.76,0 -4.99,2.23 -4.99,4.99l0 13.7c0,2.76 2.23,4.99 4.99,4.99zm0 68.02c2.76,0 4.99,-2.24 4.99,-4.99l0 -34.35c0,-2.76 -2.23,-4.99 -4.99,-4.99 -2.76,0 -4.99,2.23 -4.99,4.99l0 34.35c0,2.76 2.23,4.99 4.99,4.99zm0 -109.98c2.76,0 4.99,-2.23 4.99,-4.99l0 -3.36c0,-2.76 -2.23,-4.99 -4.99,-4.99 -2.76,0 -4.99,2.23 -4.99,4.99l0 3.36c0,2.76 2.23,4.99 4.99,4.99z"/>
 </g>
</svg>
