<?xml version="1.0" encoding="UTF-8"?>
<!DOCTYPE svg PUBLIC "-//W3C//DTD SVG 1.1//EN" "http://www.w3.org/Graphics/SVG/1.1/DTD/svg11.dtd">
<!-- Creator: CorelDRAW 2020 (64-Bit) -->
<svg xmlns="http://www.w3.org/2000/svg" xml:space="preserve" width="440px" height="237px" version="1.1" shape-rendering="geometricPrecision" text-rendering="geometricPrecision" image-rendering="optimizeQuality" fill-rule="evenodd" clip-rule="evenodd"
viewBox="0 0 5852 3156"
 xmlns:xlink="http://www.w3.org/1999/xlink"
 xmlns:xodm="http://www.corel.com/coreldraw/odm/2003">
 <g id="Слой_x0020_1">
  <metadata id="CorelCorpID_0Corel-Layer"/>
  <path fill="none" fill-rule="nonzero" d="M4474 3141l31 0m-92 0l31 0m-306 0l153 0m123 -31l92 0m-214 0l92 0m-153 0l31 0m-153 0l31 0m889 -31l31 0m-92 0l31 0m-92 0l31 0m-429 0l31 0m-92 0l31 0m-306 0l153 0m735 -31l31 0m-613 0l92 0m-153 0l31 0m-184 0l92 0m-245 0l31 0m919 -31l61 0m-123 0l31 0m-92 0l31 0m-92 0l31 0m-398 0l61 0m-123 0l31 0m-123 0l31 0m-92 0l31 0m-92 0l31 0m-92 0l31 0m889 -31l31 0m-215 0l31 0m-92 0l31 0m-337 0l31 0m-92 0l31 0m-276 0l123 0m-245 0l31 0m950 -31l61 0m-153 0l31 0m-552 0l92 0m-153 0l31 0m-153 0l31 0m-92 0l31 0m-92 0l31 0m-123 0l31 0m950 -31l61 0m-184 0l31 0m-92 0l31 0m-398 0l61 0m-337 0l123 0m735 -31l61 0m-153 0l31 0m-490 0l61 0m-123 0l31 0m-92 0l31 0m-123 0l61 0m-123 0l31 0m-123 0l31 0m-92 0l31 0m919 -31l61 0m-184 0l31 0m-92 0l31 0m-429 0l92 0m-337 0l123 0m674 -31l92 0m-215 0l31 0m-92 0l31 0m-337 0l61 0m-215 0l123 0m-214 0l31 0m-123 0l61 0m-153 0l31 0m919 -31l61 0m-153 0l61 0m-153 0l61 0m-368 0l31 0m-123 0l61 0m-123 0l31 0m-215 0l123 0m-184 0l31 0m797 -31l153 0m-245 0l61 0m-123 0l31 0m-368 0l123 0m-184 0l31 0m-153 0l31 0m-92 0l31 0m-92 0l31 0m-123 0l31 0m-92 0l31 0m1042 -31l31 0m-215 0l153 0m-215 0l31 0m-306 0l61 0m-123 0l31 0m-92 0l31 0m-92 0l31 0m-215 0l153 0m-215 0l31 0m858 -31l92 0m-184 0l61 0m-123 0l31 0m-92 0l31 0m-245 0l31 0m-123 0l61 0m-276 0l31 0m-245 0l184 0m797 -31l61 0m-153 0l61 0m-184 0l92 0m-398 0l123 0m-184 0l31 0m-92 0l31 0m-215 0l123 0m-245 0l92 0m-153 0l31 0m827 -31l245 0m-582 0l92 0m-153 0l31 0m-245 0l92 0m-184 0l61 0m827 -31l92 0m-184 0l61 0m-123 0l31 0m-123 0l61 0m-276 0l31 0m-92 0l31 0m-123 0l31 0m-92 0l31 0m-92 0l31 0m-123 0l61 0m-184 0l92 0m-153 0l31 0m950 -31l123 0m-184 0l31 0m-521 0l153 0m-368 0l92 0m-153 0l31 0m-123 0l31 0m-123 0l31 0m1042 -31l92 0m-153 0l31 0m-92 0l31 0m-92 0l31 0m-92 0l31 0m-276 0l92 0m-153 0l31 0m-123 0l31 0m-92 0l31 0m-123 0l31 0m-184 0l123 0m858 -31l61 0m-153 0l61 0m-429 0l61 0m-245 0l153 0m-398 0l153 0m-337 0l31 0m1409 -31l31 0m-92 0l31 0m-368 0l306 0m-368 0l31 0m-92 0l31 0m-123 0l31 0m-337 0l184 0m-245 0l31 0m-123 0l61 0m-153 0l31 0m-92 0l31 0m-123 0l61 0m-123 0l31 0m1379 -31l31 0m-184 0l123 0m-429 0l276 0m-337 0l31 0m-337 0l92 0m-153 0l31 0m-123 0l61 0m-123 0l31 0m-92 0l31 0m-214 0l123 0m-184 0l31 0m-153 0l31 0m1195 -31l368 0m-429 0l31 0m-215 0l123 0m-245 0l31 0m-184 0l61 0m-215 0l123 0m-215 0l31 0m-92 0l31 0m-153 0l61 0m-123 0l31 0m-123 0l61 0m-123 0l31 0m1501 -31l61 0m-123 0l31 0m-276 0l92 0m-215 0l31 0m-92 0l31 0m-184 0l123 0m-215 0l61 0m-276 0l153 0m-215 0l31 0m-123 0l31 0m-215 0l61 0m-215 0l123 0m-184 0l31 0m-92 0l31 0m1501 -31l153 0m-276 0l92 0m-153 0l31 0m-184 0l123 0m-245 0l31 0m-92 0l31 0m-215 0l153 0m-276 0l61 0m-184 0l92 0m-153 0l31 0m-153 0l31 0m-398 0l337 0m-429 0l61 0m1685 -31l31 0m-92 0l31 0m-92 0l31 0m-92 0l31 0m-123 0l31 0m-276 0l92 0m-215 0l31 0m-184 0l31 0m-276 0l184 0m-245 0l31 0m-123 0l31 0m-337 0l184 0m-245 0l31 0m-92 0l31 0m-92 0l31 0m-123 0l31 0m1593 -31l184 0m-276 0l61 0m-123 0l31 0m-92 0l31 0m-92 0l31 0m-92 0l31 0m-123 0l61 0m-153 0l31 0m-92 0l31 0m-153 0l31 0m-184 0l123 0m-184 0l31 0m-92 0l31 0m-276 0l153 0m-215 0l31 0m-123 0l31 0m-245 0l31 0m-123 0l61 0m1747 -31l61 0m-153 0l61 0m-123 0l31 0m-398 0l92 0m-184 0l31 0m-184 0l31 0m-153 0l61 0m-184 0l92 0m-245 0l31 0m-123 0l61 0m-123 0l31 0m-123 0l61 0m-123 0l31 0m-184 0l31 0m-92 0l31 0m-153 0l31 0m1746 -31l61 0m-306 0l214 0m-276 0l31 0m-92 0l31 0m-215 0l92 0m-184 0l31 0m-306 0l92 0m-184 0l61 0m-123 0l31 0m-215 0l123 0m-184 0l31 0m-276 0l31 0m-184 0l31 0m-123 0l31 0m1716 -31l153 0m-245 0l61 0m-245 0l153 0m-215 0l31 0m-92 0l31 0m-92 0l31 0m-92 0l31 0m-123 0l31 0m-123 0l31 0m-245 0l123 0m-306 0l92 0m-153 0l31 0m-92 0l31 0m-92 0l31 0m-92 0l31 0m-153 0l31 0m-92 0l31 0m-92 0l31 0m-123 0l31 0m-123 0l31 0m1869 -31l31 0m-368 0l306 0m-398 0l61 0m-123 0l31 0m-184 0l92 0m-153 0l31 0m-521 0l215 0m-337 0l92 0m-153 0l31 0m-215 0l31 0m-276 0l31 0m-92 0l31 0m1746 -31l123 0m-215 0l61 0m-153 0l61 0m-245 0l153 0m-215 0l31 0m-123 0l61 0m-123 0l31 0m-123 0l31 0m-123 0l31 0m-184 0l31 0m-153 0l92 0m-215 0l92 0m-184 0l31 0m-123 0l31 0m-123 0l31 0m-184 0l31 0m-215 0l31 0m1808 -31l61 0m-398 0l306 0m-643 0l306 0m-398 0l31 0m-184 0l31 0m-123 0l61 0m-215 0l123 0m-245 0l92 0m-153 0l31 0m-123 0l31 0m-184 0l31 0m-245 0l31 0m-1777 0l123 0m-337 0l92 0m-858 0l31 0m4351 -31l184 0m-398 0l184 0m-306 0l92 0m-184 0l61 0m-184 0l92 0m-245 0l31 0m-245 0l184 0m-306 0l92 0m-184 0l31 0m-123 0l31 0m-153 0l61 0m-307 0l92 0m-1839 0l61 0m-184 0l92 0m-306 0l153 0m-889 0l31 0m4504 -31l92 0m-153 0l31 0m-153 0l92 0m-153 0l31 0m-429 0l368 0m-521 0l123 0m-215 0l61 0m-153 0l61 0m-184 0l92 0m-215 0l61 0m-153 0l31 0m-245 0l31 0m-123 0l61 0m-1961 0l123 0m-215 0l61 0m-245 0l153 0m-858 0l31 0m-92 0l31 0m4382 -31l215 0m-368 0l123 0m-215 0l61 0m-153 0l61 0m-153 0l61 0m-215 0l123 0m-337 0l184 0m-306 0l92 0m-184 0l31 0m-153 0l31 0m-184 0l31 0m-92 0l31 0m-2022 0l92 0m-215 0l92 0m-306 0l153 0m-613 0l153 0m-337 0l31 0m-153 0l92 0m4535 -31l61 0m-123 0l31 0m-92 0l31 0m-153 0l92 0m-306 0l184 0m-398 0l184 0m-368 0l153 0m-215 0l31 0m-153 0l92 0m-184 0l31 0m-153 0l31 0m-184 0l31 0m-215 0l31 0m-2022 0l153 0m-368 0l184 0m-245 0l31 0m-368 0l31 0m-214 0l92 0m-245 0l92 0m-184 0l31 0m4412 -31l215 0m-552 0l307 0m-521 0l184 0m-245 0l31 0m-215 0l153 0m-245 0l31 0m-245 0l31 0m-92 0l31 0m-215 0l61 0m-2145 0l153 0m-429 0l245 0m-643 0l123 0m-184 0l31 0m-153 0l92 0m-245 0l123 0m4504 -31l61 0m-153 0l61 0m-123 0l31 0m-153 0l92 0m-184 0l61 0m-276 0l184 0m-245 0l31 0m-92 0l31 0m-184 0l123 0m-184 0l31 0m-153 0l31 0m-153 0l31 0m-337 0l31 0m-2145 0l123 0m-398 0l245 0m-552 0l31 0m-92 0l31 0m-123 0l31 0m-153 0l92 0m-153 0l31 0m-92 0l31 0m-92 0l31 0m4627 -31l31 0m-123 0l61 0m-214 0l123 0m-337 0l184 0m-245 0l31 0m-92 0l31 0m-245 0l184 0m-245 0l31 0m-92 0l31 0m-92 0l31 0m-92 0l31 0m-368 0l31 0m-153 0l92 0m-2267 0l184 0m-337 0l123 0m-184 0l31 0m-368 0l61 0m-153 0l31 0m-92 0l31 0m-92 0l31 0m-153 0l92 0m-184 0l61 0m4412 -31l215 0m-368 0l123 0m-184 0l31 0m-276 0l215 0m-276 0l31 0m-92 0l31 0m-92 0l31 0m-92 0l31 0m-245 0l31 0m-245 0l31 0m-123 0l61 0m-123 0l31 0m-2176 0l123 0m-215 0l61 0m-276 0l184 0m-521 0l92 0m-184 0l31 0m-184 0l123 0m-215 0l61 0m-123 0l31 0m4627 -31l31 0m-92 0l31 0m-92 0l31 0m-123 0l61 0m-123 0l31 0m-123 0l61 0m-123 0l31 0m-123 0l61 0m-276 0l184 0m-245 0l31 0m-92 0l31 0m-92 0l31 0m-123 0l31 0m-276 0l31 0m-123 0l61 0m-153 0l61 0m-2267 0l123 0m-368 0l214 0m-521 0l31 0m-123 0l61 0m-123 0l31 0m-306 0l215 0m4228 -31l215 0m-276 0l31 0m-92 0l31 0m-92 0l31 0m-92 0l31 0m-92 0l31 0m-123 0l61 0m-123 0l31 0m-123 0l31 0m-613 0l153 0m-214 0l31 0m-92 0l31 0m-2298 0l215 0m-337 0l92 0m-184 0l61 0m-398 0l92 0m-153 0l31 0m-92 0l31 0m-153 0l61 0m-215 0l61 0m4565 -31l31 0m-92 0l31 0m-92 0l31 0m-92 0l31 0m-92 0l31 0m-92 0l31 0m-92 0l31 0m-245 0l153 0m-245 0l31 0m-123 0l31 0m-123 0l31 0m-123 0l31 0m-215 0l61 0m-123 0l31 0m-92 0l31 0m-92 0l31 0m-92 0l31 0m-2237 0l123 0m-184 0l31 0m-306 0l245 0m-521 0l61 0m-184 0l92 0m-215 0l92 0m-153 0l31 0m-92 0l31 0m-92 0l31 0m4504 -31l153 0m-215 0l31 0m-123 0l31 0m-215 0l31 0m-92 0l31 0m-92 0l31 0m-92 0l31 0m-123 0l31 0m-368 0l31 0m-153 0l92 0m-337 0l215 0m-2482 0l184 0m-429 0l215 0m-552 0l92 0m-184 0l61 0m-153 0l61 0m-123 0l31 0m-123 0l31 0m-92 0l31 0m4627 -31l31 0m-92 0l31 0m-92 0l31 0m-92 0l31 0m-123 0l31 0m-92 0l31 0m-153 0l31 0m-92 0l31 0m-92 0l31 0m-92 0l31 0m-153 0l31 0m-337 0l31 0m-153 0l92 0m-153 0l31 0m-123 0l61 0m-184 0l92 0m-2359 0l276 0m-490 0l184 0m-460 0l61 0m-123 0l31 0m-123 0l61 0m-123 0l31 0m-123 0l61 0m-214 0l31 0m4627 -31l92 0m-153 0l31 0m-184 0l31 0m-184 0l31 0m-123 0l31 0m-123 0l61 0m-184 0l31 0m-184 0l31 0m-245 0l61 0m-123 0l31 0m-123 0l61 0m-153 0l61 0m-153 0l61 0m-153 0l61 0m-1685 0l61 0m-123 0l31 0m-552 0l214 0m-398 0l153 0m-245 0l61 0m-398 0l123 0m-184 0l31 0m-123 0l61 0m-153 0l31 0m-92 0l31 0m-123 0l31 0m4688 -31l31 0m-92 0l31 0m-123 0l31 0m-92 0l31 0m-153 0l31 0m-153 0l31 0m-92 0l31 0m-153 0l31 0m-398 0l61 0m-337 0l92 0m-153 0l31 0m-123 0l31 0m-123 0l61 0m-1624 0l92 0m-153 0l31 0m-123 0l61 0m-490 0l184 0m-490 0l276 0m-582 0l61 0m-184 0l31 0m-153 0l31 0m-184 0l31 0m-92 0l31 0m4749 -31l31 0m-92 0l31 0m-92 0l31 0m-214 0l31 0m-153 0l31 0m-123 0l31 0m-123 0l31 0m-552 0l123 0m-276 0l31 0m-92 0l31 0m-92 0l31 0m-276 0l92 0m-153 0l31 0m-1471 0l92 0m-153 0l31 0m-153 0l61 0m-490 0l245 0m-306 0l31 0m-215 0l153 0m-521 0l123 0m-276 0l92 0m-153 0l31 0m-92 0l31 0m-123 0l31 0m-92 0l31 0m4780 -31l31 0m-92 0l31 0m-123 0l31 0m-92 0l31 0m-184 0l31 0m-123 0l31 0m-123 0l31 0m-123 0l31 0m-215 0l31 0m-215 0l61 0m-123 0l31 0m-123 0l61 0m-123 0l31 0m-153 0l61 0m-153 0l31 0m-429 0l276 0m-858 0l31 0m-368 0l306 0m-735 0l92 0m-184 0l61 0m-123 0l31 0m-368 0l153 0m-521 0l337 0m-613 0l61 0m-153 0l61 0m-215 0l31 0m-153 0l31 0m-123 0l31 0m-123 0l61 0m4780 -31l31 0m-92 0l31 0m-215 0l31 0m-92 0l31 0m-306 0l31 0m-153 0l31 0m-245 0l31 0m-215 0l153 0m-398 0l31 0m-153 0l31 0m-184 0l61 0m-123 0l31 0m-245 0l184 0m-306 0l31 0m-92 0l31 0m-92 0l31 0m-184 0l123 0m-398 0l245 0m-306 0l31 0m-92 0l31 0m-92 0l31 0m-398 0l61 0m-123 0l31 0m-123 0l31 0m-123 0l61 0m-398 0l184 0m-245 0l31 0m-245 0l184 0m-552 0l123 0m-184 0l31 0m-92 0l31 0m-123 0l31 0m-92 0l31 0m-92 0l31 0m-215 0l31 0m4872 -31l31 0m-92 0l31 0m-184 0l31 0m-214 0l31 0m-123 0l31 0m-92 0l31 0m-521 0l153 0m-215 0l31 0m-92 0l31 0m-245 0l61 0m-276 0l31 0m-215 0l153 0m-245 0l61 0m-215 0l123 0m-398 0l245 0m-398 0l123 0m-184 0l31 0m-92 0l31 0m-153 0l92 0m-184 0l61 0m-123 0l31 0m-398 0l92 0m-153 0l31 0m-123 0l61 0m-368 0l123 0m-306 0l153 0m-337 0l153 0m-521 0l153 0m-215 0l31 0m-123 0l31 0m-123 0l31 0m-123 0l31 0m-92 0l31 0m-92 0l31 0m-123 0l31 0m4902 -31l31 0m-153 0l31 0m-153 0l31 0m-337 0l31 0m-368 0l61 0m-123 0l31 0m-184 0l123 0m-184 0l31 0m-245 0l31 0m-276 0l61 0m-123 0l31 0m-123 0l61 0m-184 0l92 0m-306 0l184 0m-276 0l61 0m-153 0l61 0m-123 0l31 0m-184 0l123 0m-184 0l31 0m-153 0l31 0m-123 0l31 0m-398 0l61 0m-123 0l31 0m-184 0l61 0m-398 0l184 0m-245 0l31 0m-184 0l123 0m-245 0l92 0m-490 0l215 0m-276 0l31 0m-123 0l31 0m-92 0l31 0m-276 0l31 0m-123 0l31 0m4994 -31l31 0m-92 0l31 0m-184 0l31 0m-184 0l31 0m-123 0l31 0m-245 0l31 0m-123 0l31 0m-276 0l184 0m-245 0l31 0m-92 0l31 0m-123 0l31 0m-245 0l31 0m-276 0l61 0m-123 0l31 0m-123 0l61 0m-123 0l31 0m-92 0l31 0m-92 0l31 0m-92 0l31 0m-153 0l92 0m-153 0l31 0m-184 0l123 0m-184 0l31 0m-184 0l31 0m-276 0l31 0m-368 0l61 0m-153 0l61 0m-184 0l61 0m-276 0l61 0m-245 0l153 0m-429 0l245 0m-521 0l123 0m-245 0l92 0m-184 0l61 0m-184 0l31 0m-92 0l31 0m-92 0l31 0m-153 0l31 0m-123 0l31 0m5025 -31l31 0m-153 0l31 0m-245 0l31 0m-215 0l31 0m-123 0l31 0m-245 0l31 0m-92 0l31 0m-184 0l31 0m-92 0l31 0m-92 0l31 0m-153 0l31 0m-460 0l31 0m-92 0l31 0m-123 0l31 0m-92 0l31 0m-92 0l31 0m-153 0l92 0m-153 0l31 0m-92 0l31 0m-92 0l31 0m-184 0l31 0m-123 0l31 0m-337 0l31 0m-429 0l92 0m-215 0l61 0m-123 0l31 0m-337 0l184 0m-460 0l245 0m-398 0l123 0m-521 0l306 0m-398 0l61 0m-306 0l31 0m-153 0l31 0m-92 0l31 0m-92 0l31 0m5056 -31l31 0m-245 0l31 0m-215 0l31 0m-337 0l31 0m-92 0l31 0m-92 0l31 0m-92 0l31 0m-92 0l31 0m-92 0l31 0m-123 0l31 0m-92 0l31 0m-429 0l31 0m-92 0l31 0m-184 0l31 0m-276 0l92 0m-153 0l31 0m-123 0l31 0m-153 0l31 0m-92 0l31 0m-92 0l31 0m-337 0l31 0m-460 0l61 0m-153 0l31 0m-184 0l92 0m-429 0l215 0m-276 0l31 0m-245 0l184 0m-276 0l61 0m-245 0l92 0m-153 0l31 0m-245 0l184 0m-276 0l31 0m-92 0l31 0m-92 0l31 0m-184 0l31 0m-214 0l31 0m-92 0l31 0m5209 -31l31 0m-153 0l31 0m-123 0l31 0m-214 0l31 0m-337 0l31 0m-429 0l31 0m-705 0l31 0m-215 0l31 0m-123 0l31 0m-92 0l31 0m-92 0l31 0m-153 0l31 0m-460 0l31 0m-582 0l92 0m-184 0l31 0m-92 0l31 0m-92 0l31 0m-184 0l61 0m-153 0l61 0m-306 0l215 0m-276 0l31 0m-184 0l123 0m-398 0l184 0m-245 0l31 0m-184 0l123 0m-306 0l31 0m-92 0l31 0m-153 0l31 0m-92 0l31 0m-276 0l123 0m5209 -31l31 0m-306 0l31 0m-184 0l31 0m-123 0l31 0m-123 0l31 0m-153 0l31 0m-92 0l31 0m-92 0l31 0m-123 0l31 0m-92 0l31 0m-123 0l31 0m-123 0l31 0m-153 0l31 0m-123 0l31 0m-184 0l31 0m-123 0l31 0m-245 0l31 0m-184 0l31 0m-215 0l31 0m-306 0l31 0m-153 0l31 0m-644 0l61 0m-123 0l31 0m-92 0l31 0m-92 0l31 0m-123 0l61 0m-337 0l184 0m-613 0l398 0m-735 0l276 0m-490 0l153 0m-337 0l31 0m-215 0l31 0m-92 0l31 0m-153 0l31 0m-184 0l123 0m-184 0l31 0m5423 -31l31 0m-123 0l31 0m-92 0l31 0m-153 0l31 0m-398 0l31 0m-490 0l31 0m-123 0l31 0m-398 0l31 0m-123 0l31 0m-123 0l31 0m-276 0l31 0m-92 0l31 0m-276 0l31 0m-919 0l61 0m-123 0l31 0m-92 0l31 0m-92 0l31 0m-215 0l123 0m-337 0l184 0m-552 0l337 0m-490 0l123 0m-184 0l31 0m-123 0l61 0m-245 0l61 0m-153 0l61 0m-123 0l31 0m-92 0l31 0m-123 0l31 0m-123 0l31 0m-184 0l31 0m-153 0l61 0m-123 0l31 0m-123 0l31 0m-92 0l31 0m5515 -31l31 0m-674 0l31 0m-123 0l31 0m-123 0l31 0m-214 0l31 0m-582 0l31 0m-368 0l31 0m-123 0l31 0m-306 0l31 0m-1011 0l92 0m-337 0l61 0m-306 0l215 0m-490 0l245 0m-735 0l460 0m-674 0l92 0m-153 0l31 0m-184 0l31 0m-123 0l31 0m-184 0l31 0m-184 0l31 0m-153 0l92 0m-184 0l31 0m-92 0l31 0m5638 -31l31 0m-184 0l31 0m-215 0l31 0m-153 0l31 0m-123 0l31 0m-123 0l31 0m-368 0l31 0m-215 0l31 0m-123 0l31 0m-123 0l31 0m-123 0l31 0m-123 0l31 0m-92 0l31 0m-123 0l31 0m-92 0l31 0m-92 0l31 0m-92 0l31 0m-276 0l31 0m-92 0l31 0m-123 0l31 0m-1072 0l61 0m-123 0l31 0m-92 0l31 0m-92 0l31 0m-123 0l31 0m-368 0l306 0m-735 0l398 0m-613 0l184 0m-460 0l123 0m-184 0l31 0m-92 0l31 0m-92 0l31 0m-184 0l31 0m-184 0l31 0m-123 0l31 0m-153 0l61 0m-153 0l31 0m-92 0l31 0m5638 -31l31 0m-245 0l31 0m-184 0l31 0m-368 0l31 0m-215 0l31 0m-1011 0l31 0m-92 0l31 0m-92 0l31 0m-1348 0l61 0m-245 0l31 0m-92 0l31 0m-92 0l31 0m-215 0l153 0m-306 0l123 0m-337 0l184 0m-429 0l215 0m-337 0l92 0m-306 0l31 0m-92 0l31 0m-92 0l31 0m-92 0l31 0m-92 0l31 0m-92 0l31 0m-337 0l31 0m-92 0l31 0m-153 0l61 0m-153 0l31 0m-92 0l31 0m5607 -31l31 0m-123 0l31 0m-153 0l31 0m-398 0l31 0m-184 0l31 0m-245 0l31 0m-2390 0l123 0m-184 0l31 0m-276 0l61 0m-245 0l153 0m-613 0l429 0m-643 0l184 0m-521 0l153 0m-215 0l31 0m-337 0l31 0m-123 0l31 0m-153 0l61 0m-184 0l61 0m-215 0l31 0m5699 -31l31 0m-521 0l31 0m-123 0l31 0m-2788 0l61 0m-215 0l31 0m-92 0l31 0m-92 0l31 0m-153 0l92 0m-153 0l31 0m-245 0l184 0m-705 0l490 0m-797 0l92 0m-153 0l31 0m-123 0l31 0m-123 0l31 0m-368 0l31 0m-123 0l31 0m-92 0l31 0m-92 0l31 0m-92 0l31 0m-123 0l31 0m5669 -31l31 0m-153 0l31 0m-215 0l31 0m-368 0l31 0m-2696 0l92 0m-153 0l31 0m-215 0l31 0m-215 0l153 0m-276 0l92 0m-184 0l61 0m-398 0l306 0m-398 0l61 0m-153 0l61 0m-153 0l61 0m-337 0l245 0m-337 0l31 0m-153 0l31 0m-245 0l31 0m-123 0l61 0m-215 0l61 0m-184 0l31 0m5730 -31l31 0m-674 0l31 0m-2819 0l61 0m-123 0l31 0m-92 0l31 0m-123 0l31 0m-1011 0l889 0m-981 0l61 0m-123 0l31 0m-123 0l61 0m-123 0l31 0m-92 0l31 0m-368 0l31 0m-215 0l31 0m-215 0l61 0m-153 0l31 0m5699 -31l31 0m-123 0l31 0m-184 0l31 0m-429 0l31 0m-2758 0l61 0m-123 0l31 0m-92 0l31 0m-92 0l31 0m-123 0l31 0m-245 0l31 0m-398 0l337 0m-613 0l245 0m-674 0l398 0m-460 0l31 0m-92 0l31 0m-153 0l31 0m-245 0l31 0m-153 0l31 0m-92 0l31 0m-153 0l31 0m5730 -31l31 0m-582 0l31 0m-92 0l31 0m-2880 0l61 0m-123 0l31 0m-184 0l31 0m-215 0l31 0m-153 0l31 0m-582 0l521 0m-889 0l337 0m-398 0l31 0m-460 0l31 0m-184 0l31 0m-214 0l31 0m-123 0l31 0m5577 -31l31 0m-3370 0l123 0m-184 0l31 0m-153 0l31 0m-92 0l31 0m-153 0l31 0m-184 0l31 0m-184 0l123 0m-215 0l61 0m-398 0l307 0m-429 0l92 0m-153 0l31 0m-123 0l61 0m-123 0l31 0m-92 0l31 0m-153 0l31 0m-337 0l31 0m-123 0l31 0m-92 0l31 0m-92 0l31 0m-92 0l31 0m5730 -31l31 0m-92 0l31 0m-92 0l31 0m-3370 0l31 0m-123 0l61 0m-153 0l31 0m-245 0l31 0m-153 0l31 0m-337 0l153 0m-214 0l31 0m-92 0l31 0m-92 0l31 0m-153 0l92 0m-306 0l184 0m-398 0l184 0m-245 0l31 0m-215 0l31 0m-92 0l31 0m-429 0l31 0m-92 0l31 0m2237 -31l61 0m-123 0l31 0m-123 0l31 0m-92 0l31 0m-245 0l31 0m-123 0l31 0m-92 0l31 0m-123 0l31 0m-337 0l31 0m-215 0l153 0m-306 0l31 0m-92 0l31 0m-123 0l61 0m-123 0l31 0m-123 0l31 0m-306 0l31 0m-123 0l31 0m-153 0l31 0m-92 0l31 0m2145 -31l61 0m-123 0l31 0m-92 0l31 0m-92 0l31 0m-123 0l31 0m-123 0l31 0m-306 0l31 0m-92 0l31 0m-92 0l31 0m-92 0l31 0m-92 0l31 0m-92 0l31 0m-153 0l61 0m-123 0l31 0m-184 0l61 0m-215 0l123 0m-184 0l31 0m-123 0l31 0m-92 0l31 0m-92 0l31 0m-368 0l31 0m-215 0l31 0m-92 0l31 0m2206 -31l92 0m-153 0l31 0m-123 0l31 0m-123 0l31 0m-123 0l31 0m-92 0l31 0m-92 0l31 0m-92 0l31 0m-490 0l61 0m-123 0l31 0m-92 0l31 0m-92 0l31 0m-153 0l92 0m-276 0l153 0m-398 0l31 0m-429 0l31 0m1961 -31l184 0m-245 0l31 0m-123 0l31 0m-337 0l31 0m-92 0l31 0m-92 0l31 0m-92 0l31 0m-153 0l31 0m-92 0l31 0m-276 0l61 0m-123 0l31 0m-92 0l31 0m-92 0l31 0m-92 0l31 0m-92 0l31 0m-92 0l31 0m-92 0l31 0m-153 0l31 0m-92 0l31 0m-429 0l31 0m2145 -31l31 0m-92 0l31 0m-184 0l123 0m-184 0l31 0m-92 0l31 0m-92 0l31 0m-92 0l31 0m-92 0l31 0m-306 0l31 0m-153 0l31 0m-92 0l31 0m-92 0l31 0m-92 0l31 0m-123 0l61 0m-184 0l92 0m-215 0l92 0m-306 0l31 0m-245 0l31 0m-184 0l31 0m-153 0l31 0m1992 -31l123 0m-184 0l31 0m-92 0l31 0m-153 0l31 0m-245 0l31 0m-92 0l31 0m-123 0l31 0m-184 0l31 0m-245 0l31 0m-92 0l31 0m-92 0l31 0m-92 0l31 0m-92 0l31 0m-184 0l31 0m-92 0l31 0m-92 0l31 0m-153 0l31 0m-92 0l31 0m-153 0l31 0m-184 0l31 0m1838 -31l123 0m-245 0l92 0m-153 0l31 0m-92 0l31 0m-92 0l31 0m-184 0l31 0m-306 0l31 0m-92 0l31 0m-92 0l31 0m-92 0l31 0m-92 0l31 0m-92 0l31 0m-92 0l31 0m-153 0l92 0m-337 0l31 0m-552 0l31 0m1930 -31l92 0m-153 0l31 0m-92 0l31 0m-92 0l31 0m-92 0l31 0m-92 0l31 0m-92 0l31 0m-184 0l31 0m-92 0l31 0m-398 0l31 0m-153 0l31 0m-153 0l31 0m-92 0l31 0m-92 0l31 0m-92 0l31 0m-123 0l31 0m-92 0l31 0m-92 0l31 0m-337 0l31 0m1716 -31l215 0m-276 0l31 0m-123 0l31 0m-123 0l31 0m-92 0l31 0m-245 0l31 0m-153 0l31 0m-92 0l31 0m-92 0l31 0m-92 0l31 0m-92 0l31 0m-92 0l31 0m-92 0l31 0m-306 0l31 0m-245 0l31 0m-153 0l31 0m1532 -31l215 0m-276 0l31 0m-123 0l31 0m-92 0l31 0m-858 0l31 0m-123 0l31 0m-215 0l31 0m-92 0l31 0m-398 0l31 0m1655 -31l92 0m-153 0l31 0m-92 0l31 0m-123 0l31 0m-92 0l31 0m-245 0l31 0m-123 0l31 0m-92 0l31 0m-92 0l31 0m-92 0l31 0m-92 0l31 0m-92 0l31 0m-276 0l31 0m-92 0l31 0m-184 0l31 0m-276 0l31 0m1532 -31l61 0m-184 0l31 0m-215 0l31 0m-950 0l31 0m-153 0l31 0m-92 0l31 0m1348 -31l61 0m-123 0l31 0m-92 0l31 0m-92 0l31 0m-92 0l31 0m-123 0l31 0m-306 0l31 0m-92 0l31 0m-92 0l31 0m-92 0l31 0m-123 0l31 0m-306 0l31 0m-123 0l31 0m-215 0l31 0m-215 0l31 0m1532 -31l92 0m-184 0l31 0m-184 0l31 0m-276 0l31 0m-429 0l31 0m-306 0l31 0m-123 0l31 0m-92 0l31 0m1348 -31l31 0m-123 0l61 0m-153 0l31 0m-92 0l31 0m-153 0l31 0m-92 0l31 0m-92 0l31 0m-153 0l31 0m-153 0l31 0m-368 0l31 0m-123 0l31 0m-123 0l31 0m-306 0l31 0m1440 -31l61 0m-123 0l31 0m-184 0l31 0m-429 0l31 0m-153 0l31 0m-92 0l31 0m-460 0l31 0m-92 0l31 0m-92 0l31 0m-92 0l31 0m1379 -31l31 0m-123 0l61 0m-123 0l31 0m-153 0l31 0m-92 0l31 0m-92 0l31 0m-92 0l31 0m-153 0l31 0m-153 0l31 0m-184 0l31 0m-123 0l31 0m-245 0l31 0m-398 0l31 0m1471 -31l61 0m-153 0l31 0m-92 0l31 0m-92 0l31 0m-306 0l31 0m-153 0l31 0m-644 0l31 0m-92 0l31 0m-92 0l31 0m-123 0l31 0m1379 -31l61 0m-123 0l31 0m-92 0l31 0m-92 0l31 0m-123 0l61 0m-123 0l31 0m-92 0l31 0m-153 0l31 0m-123 0l31 0m-123 0l31 0m-92 0l31 0m-276 0l31 0m-153 0l31 0m-245 0l31 0m-184 0l31 0m1440 -31l61 0m-123 0l31 0m-92 0l31 0m-92 0l31 0m-123 0l31 0m-92 0l31 0m-123 0l61 0m-153 0l31 0m-123 0l31 0m-245 0l31 0m-123 0l31 0m-276 0l31 0m-123 0l31 0m-123 0l31 0m-92 0l31 0m1348 -31l61 0m-276 0l31 0m-92 0l31 0m-92 0l31 0m-153 0l31 0m-123 0l31 0m-123 0l31 0m-92 0l31 0m-92 0l31 0m-337 0l31 0m-153 0l31 0m-123 0l31 0m-184 0l31 0m1226 -31l184 0m-245 0l31 0m-92 0l31 0m-184 0l92 0m-153 0l31 0m-123 0l31 0m-276 0l31 0m-153 0l31 0m-214 0l31 0m-123 0l31 0m-123 0l31 0m-92 0l31 0m1134 -31l31 0m-153 0l92 0m-214 0l31 0m-123 0l31 0m-123 0l31 0m-92 0l31 0m-92 0l31 0m-153 0l31 0m-153 0l31 0m-92 0l31 0m-123 0l31 0m-123 0l31 0m-123 0l31 0m950 -31l31 0m-92 0l31 0m-92 0l31 0m-153 0l92 0m-153 0l31 0m-153 0l31 0m-153 0l31 0m-215 0l31 0m-123 0l31 0m-123 0l31 0m-123 0l31 0m705 -31l31 0m-123 0l61 0m-184 0l31 0m-153 0l31 0m-92 0l31 0m-153 0l31 0m-123 0l31 0m-92 0l31 0m460 -31l92 0m-215 0l31 0m-92 0l31 0m-153 0l31 0m-123 0l31 0m-153 0l31 0m-92 0l31 0m460 -31l92 0m-245 0l31 0m-153 0l31 0m-92 0l31 0m-92 0l31 0m-92 0l31 0m398 -31l31 0m-92 0l31 0m-123 0l31 0m-92 0l31 0m-153 0l31 0m-153 0l31 0m307 -31l31 0m-153 0l31 0m-92 0l31 0m-92 0l31 0m-92 0l31 0m184 -31l31 0m-92 0l31 0m-153 0l31 0m0 -31l61 0m-153 0l61 0"/>
  <polygon fill="fuchsia" fill-rule="nonzero" points="4504,3156 4474,3156 4474,3125 4443,3125 4443,3156 4412,3156 4412,3095 4443,3095 4443,3064 4412,3064 4412,3033 4443,3033 4443,3064 4474,3064 4474,3095 4504,3095 "/>
  <path fill="fuchsia" fill-rule="nonzero" d="M4290 3156l-153 0 0 -31 -31 0 0 -31 31 0 0 31 92 0 0 -31 -61 0 0 -31 92 0 0 -31 -31 0 0 -123 31 0 0 -31 -31 0 0 -31 -31 0 0 -31 -31 0 0 -31 31 0 0 31 31 0 0 -31 -31 0 0 -31 -31 0 0 -31 -61 0 0 -31 -31 0 0 -31 31 0 0 31 31 0 0 -31 92 0 0 31 31 0 0 -31 -31 0 0 -31 -61 0 0 -61 31 0 0 31 61 0 0 31 31 0 0 31 31 0 0 -31 -31 0 0 -31 -31 0 0 -31 -61 0 0 -31 92 0 0 -31 -61 0 0 -92 -31 0 0 -31 -31 0 0 -31 -31 0 0 -31 31 0 0 31 31 0 0 -31 31 0 0 31 31 0 0 -31 31 0 0 31 31 0 0 -31 -31 0 0 -31 31 0 0 31 61 0 0 -61 61 0 0 31 31 0 0 -31 -31 0 0 -31 -31 0 0 -31 31 0 0 31 31 0 0 31 31 0 0 31 31 0 0 -31 -31 0 0 -31 -31 0 0 -31 -31 0 0 -31 31 0 0 31 31 0 0 31 31 0 0 -31 -31 0 0 -31 -31 0 0 -31 -31 0 0 -31 -31 0 0 -31 31 0 0 31 31 0 0 31 31 0 0 31 61 0 0 -31 -61 0 0 -61 31 0 0 31 61 0 0 31 31 0 0 -31 -31 0 0 -31 -61 0 0 -31 61 0 0 31 61 0 0 -31 31 0 0 -31 -31 0 0 -31 31 0 0 31 61 0 0 -31 -31 0 0 -31 31 0 0 31 61 0 0 -31 61 0 0 -31 -31 0 0 -31 31 0 0 31 31 0 0 31 31 0 0 -31 -31 0 0 -31 31 0 0 31 31 0 0 -31 -31 0 0 -31 -31 0 0 -31 31 0 0 31 31 0 0 31 31 0 0 31 31 0 0 -31 -31 0 0 -31 -31 0 0 -31 31 0 0 31 31 0 0 31 31 0 0 -31 -31 0 0 -31 31 0 0 31 31 0 0 31 31 0 0 -31 -31 0 0 -61 31 0 0 31 61 0 0 -31 31 0 0 31 31 0 0 -31 -31 0 0 -31 -31 0 0 -31 -31 0 0 -31 31 0 0 31 31 0 0 31 31 0 0 -31 -31 0 0 -61 61 0 0 31 31 0 0 31 31 0 0 31 31 0 0 92 31 0 0 31 31 0 0 -31 -31 0 0 -61 31 0 0 61 31 0 0 31 31 0 0 -31 -31 0 0 -61 -31 0 0 -31 31 0 0 31 31 0 0 31 31 0 0 31 31 0 0 -31 -31 0 0 -31 -31 0 0 -31 31 0 0 31 31 0 0 31 31 0 0 31 31 0 0 31 31 0 0 -31 -31 0 0 -31 -31 0 0 -31 -31 0 0 -61 -31 0 0 -31 31 0 0 31 31 0 0 61 31 0 0 31 31 0 0 -31 -31 0 0 -31 31 0 0 31 31 0 0 -31 -31 0 0 -31 -31 0 0 -31 31 0 0 31 31 0 0 31 31 0 0 31 31 0 0 -31 -31 0 0 -31 -31 0 0 -31 31 0 0 31 31 0 0 -31 -31 0 0 -31 31 0 0 31 31 0 0 31 31 0 0 -31 -31 0 0 -31 -31 0 0 -31 -31 0 0 -31 -31 0 0 -31 31 0 0 31 31 0 0 31 31 0 0 31 31 0 0 -31 -31 0 0 -61 -31 0 0 -31 31 0 0 31 31 0 0 61 31 0 0 31 31 0 0 643 0 31 -31 0 0 -31 -31 0 0 31 31 0 0 31 -61 0 0 31 -61 0 0 -31 -31 0 0 -31 -31 0 0 -31 -61 0 0 -31 61 0 0 31 31 0 0 31 31 0 0 -31 -31 0 0 -31 -31 0 0 -31 -123 0 0 -31 -31 0 0 31 -31 0 0 -31 -31 0 0 -31 -31 0 0 -31 -31 0 0 -31 -31 0 0 31 31 0 0 31 31 0 0 31 31 0 0 31 -31 0 0 -31 -31 0 0 -31 -31 0 0 -31 -31 0 0 -31 -31 0 0 92 31 0 0 31 61 0 0 61 31 0 0 31 61 0 0 31 31 0 0 31 153 0 0 -31 -92 0 0 -61 -31 0 0 -31 31 0 0 31 31 0 0 31 61 0 0 31 31 0 0 31 31 0 0 31 -92 0 0 31 -31 0 0 -31 -31 0 0 31 31 0 0 31 -31 0 0 -31 -31 0 0 31 -31 0 0 -31 -31 0 0 31 -215 0 0 61 -31 0 0 61 -31 0 0 31 -31 0 0 123 -31 0 0 92 31 0 0 31 -31 0 0 31 31 0 0 31 -31 0 0 61 -31 0 0 31 -31 0 0 -61 31 0 0 -61 -31 0 0 -31 31 0 0 -31 -31 0 0 -31 -31 0 0 -31 -61 0 0 -31 -31 0 0 61 31 0 0 31 -31 0 0 -31 -31 0 0 -31 -31 0 0 -31 -31 0 0 -31 31 0 0 31 31 0 0 -31 -31 0 0 -31 -31 0 0 -31 31 0 0 31 31 0 0 31 31 0 0 -31 -31 0 0 -31 -31 0 0 -31 61 0 0 -31 -61 0 0 -31 61 0 0 31 31 0 0 -31 31 0 0 31 31 0 0 -92 31 0 0 61 31 0 0 31 31 0 0 -31 -31 0 0 -123 -31 0 0 -31 31 0 0 31 31 0 0 31 31 0 0 31 31 0 0 -31 -31 0 0 -31 -31 0 0 -31 -31 0 0 -31 -31 0 0 -31 -31 0 0 31 -31 0 0 31 -31 0 0 -92 -61 0 0 61 -31 0 0 31 -31 0 0 31 -31 0 0 31 -31 0 0 31 -31 0 0 31 -61 0 0 123 -31 0 0 61 -31 0 0 31 -31 0 0 61 -31 0 0 31 31 0 0 31 -31 0 0 153 -31 0 0 31 -31 0 0 -31 -31 0 0 -31 -31 0 0 -31 31 0 0 31 31 0 0 -31 -31 0 0 -61 31 0 0 -31 -31 0 0 -61 -92 0 0 -31 31 0 0 -31 31 0 0 31 31 0 0 -31 -31 0 0 -31 -31 0 0 -31 31 0 0 31 31 0 0 31 31 0 0 -31 -31 0 0 -31 31 0 0 31 31 0 0 -61 -31 0 0 -31 31 0 0 31 31 0 0 -31 -31 0 0 -31 -31 0 0 -31 31 0 0 31 31 0 0 31 31 0 0 -61 -61 0 0 -31 -31 0 0 -31 31 0 0 31 61 0 0 -31 -61 0 0 -31 -61 0 0 -61 31 0 0 31 31 0 0 31 31 0 0 -31 -31 0 0 -31 -31 0 0 -31 31 0 0 31 31 0 0 31 31 0 0 31 31 0 0 -31 -31 0 0 -31 -31 0 0 -31 31 0 0 31 61 0 0 31 31 0 0 -31 -31 0 0 -31 31 0 0 -31 -31 0 0 -31 -31 0 0 -31 31 0 0 31 31 0 0 31 31 0 0 31 31 0 0 -31 -31 0 0 -61 -31 0 0 -31 31 0 0 31 31 0 0 31 31 0 0 -31 -31 0 0 -31 31 0 0 31 31 0 0 -31 -31 0 0 -31 -31 0 0 -31 31 0 0 -31 -92 0 0 31 31 0 0 31 -31 0 0 -31 -61 0 0 31 31 0 0 31 -31 0 0 -31 -31 0 0 61 -92 0 0 61 -31 0 0 31 -31 0 0 31 -31 0 0 61 31 0 0 31 31 0 0 31 -31 0 0 -31 -61 0 0 31 31 0 0 92 -31 0 0 31 -31 0 0 31 31 0 0 31 -31 0 0 61 -31 0 0 31 31 0 0 31 31 0 0 31 -31 0 0 31 -31 0 0 31 31 0 0 31 31 0 0 31 -31 0 0 -31 -31 0 0 31 31 0 0 31 -31 0 0 31 61 0 0 31 -92 0 0 -31 -31 0 0 31 31 0 0 31zm1563 -1501l-31 0 0 -61 -31 0 0 -31 -31 0 0 -31 31 0 0 31 31 0 0 31 31 0 0 31 0 31 0 -92 0 -31 -31 0 0 -31 -31 0 0 -31 -31 0 0 31 31 0 0 31 31 0 0 31 31 0 0 31zm0 -92l-31 0 0 -61 31 0 0 -31 -31 0 0 -31 -31 0 0 -31 31 0 0 31 31 0 0 31zm0 31l0 31 0 31zm0 889l0 -31z"/>
  <polygon fill="fuchsia" fill-rule="nonzero" points="4259,3033 4290,3033 4290,3003 4259,3003 "/>
  <polygon fill="fuchsia" fill-rule="nonzero" points="4504,3003 4535,3003 4535,2972 4504,2972 "/>
  <polygon fill="fuchsia" fill-rule="nonzero" points="4259,2972 4290,2972 4290,2942 4259,2942 "/>
  <polygon fill="fuchsia" fill-rule="nonzero" points="4504,2911 4535,2911 4535,2880 4504,2880 "/>
  <polygon fill="fuchsia" fill-rule="nonzero" points="4290,2911 4320,2911 4320,2880 4290,2880 "/>
  <polygon fill="fuchsia" fill-rule="nonzero" points="4504,2850 4535,2850 4535,2819 4504,2819 "/>
  <polygon fill="fuchsia" fill-rule="nonzero" points="4259,2850 4290,2850 4290,2819 4259,2819 "/>
  <polygon fill="fuchsia" fill-rule="nonzero" points="5025,2819 5056,2819 5056,2788 5025,2788 "/>
  <polygon fill="fuchsia" fill-rule="nonzero" points="4535,2819 4565,2819 4565,2788 4535,2788 "/>
  <polygon fill="fuchsia" fill-rule="nonzero" points="4964,2788 4994,2788 4994,2758 4964,2758 "/>
  <polygon fill="fuchsia" fill-rule="nonzero" points="4290,2788 4320,2788 4320,2758 4290,2758 "/>
  <polygon fill="fuchsia" fill-rule="nonzero" points="4228,2788 4259,2788 4259,2758 4228,2758 4228,2727 4198,2727 4198,2758 4228,2758 "/>
  <polygon fill="fuchsia" fill-rule="nonzero" points="5086,2758 5117,2758 5117,2727 5086,2727 "/>
  <polygon fill="fuchsia" fill-rule="nonzero" points="4565,2758 4596,2758 4596,2727 4565,2727 "/>
  <polygon fill="fuchsia" fill-rule="nonzero" points="5025,2727 5056,2727 5056,2696 5025,2696 "/>
  <polygon fill="fuchsia" fill-rule="nonzero" points="4933,2727 4964,2727 4964,2696 4933,2696 "/>
  <polygon fill="fuchsia" fill-rule="nonzero" points="4596,2727 4627,2727 4627,2696 4596,2696 "/>
  <polygon fill="fuchsia" fill-rule="nonzero" points="4290,2727 4320,2727 4320,2696 4290,2696 "/>
  <polygon fill="fuchsia" fill-rule="nonzero" points="5056,2696 5086,2696 5086,2666 5056,2666 "/>
  <polygon fill="fuchsia" fill-rule="nonzero" points="4964,2696 4994,2696 4994,2666 4964,2666 "/>
  <polygon fill="fuchsia" fill-rule="nonzero" points="4627,2635 4657,2635 4657,2604 4627,2604 "/>
  <polygon fill="fuchsia" fill-rule="nonzero" points="4351,2635 4382,2635 4382,2604 4351,2604 "/>
  <polygon fill="fuchsia" fill-rule="nonzero" points="4290,2604 4320,2604 4320,2574 4290,2574 "/>
  <polygon fill="fuchsia" fill-rule="nonzero" points="5117,2574 5148,2574 5148,2543 5117,2543 "/>
  <polygon fill="fuchsia" fill-rule="nonzero" points="4627,2574 4657,2574 4657,2543 4627,2543 "/>
  <polygon fill="fuchsia" fill-rule="nonzero" points="4320,2574 4351,2574 4351,2543 4320,2543 "/>
  <polygon fill="fuchsia" fill-rule="nonzero" points="4688,2543 4719,2543 4719,2513 4688,2513 "/>
  <polygon fill="fuchsia" fill-rule="nonzero" points="4351,2513 4382,2513 4382,2482 4351,2482 "/>
  <polygon fill="fuchsia" fill-rule="nonzero" points="4290,2513 4320,2513 4320,2482 4290,2482 4290,2451 4259,2451 4259,2482 4290,2482 "/>
  <polygon fill="fuchsia" fill-rule="nonzero" points="5393,2482 5423,2482 5423,2451 5393,2451 "/>
  <polygon fill="fuchsia" fill-rule="nonzero" points="4719,2482 4749,2482 4749,2451 4719,2451 "/>
  <polygon fill="fuchsia" fill-rule="nonzero" points="5301,2451 5331,2451 5331,2421 5393,2421 5393,2390 5331,2390 5331,2359 5301,2359 5301,2329 5240,2329 5240,2298 5270,2298 5270,2267 5209,2267 5209,2237 5178,2237 5178,2176 5148,2176 5148,2145 5117,2145 5117,2114 5086,2114 5086,2084 4964,2084 4964,2053 4933,2053 4933,2084 4964,2084 4964,2114 4933,2114 4933,2084 4903,2084 4903,2145 4872,2145 4872,2114 4841,2114 4841,2206 4903,2206 4903,2237 4933,2237 4933,2267 4964,2267 4964,2298 4994,2298 4994,2329 4964,2329 4964,2298 4933,2298 4933,2329 4964,2329 4964,2359 5025,2359 5025,2329 5056,2329 5056,2359 5117,2359 5117,2390 5148,2390 5148,2359 5178,2359 5178,2421 5209,2421 5209,2451 5270,2451 5270,2390 5301,2390 "/>
  <polygon fill="fuchsia" fill-rule="nonzero" points="4780,2451 4811,2451 4811,2421 4780,2421 "/>
  <polygon fill="fuchsia" fill-rule="nonzero" points="4351,2451 4382,2451 4382,2421 4351,2421 "/>
  <polygon fill="fuchsia" fill-rule="nonzero" points="4290,2451 4320,2451 4320,2421 4290,2421 "/>
  <polygon fill="fuchsia" fill-rule="nonzero" points="4382,2421 4412,2421 4412,2390 4382,2390 "/>
  <polygon fill="fuchsia" fill-rule="nonzero" points="4228,2421 4259,2421 4259,2390 4228,2390 "/>
  <polygon fill="fuchsia" fill-rule="nonzero" points="4811,2390 4841,2390 4841,2359 4811,2359 "/>
  <polygon fill="fuchsia" fill-rule="nonzero" points="5730,2359 5760,2359 5760,2329 5730,2329 "/>
  <polygon fill="fuchsia" fill-rule="nonzero" points="5301,2329 5331,2329 5331,2298 5301,2298 "/>
  <polygon fill="fuchsia" fill-rule="nonzero" points="4412,2329 4443,2329 4443,2298 4412,2298 "/>
  <polygon fill="fuchsia" fill-rule="nonzero" points="5852,2267 5852,2237 5822,2237 5822,2267 5852,2267 "/>
  <polygon fill="fuchsia" fill-rule="nonzero" points="5760,2298 5791,2298 5791,2267 5760,2267 5760,2237 5730,2237 5730,2267 5760,2267 "/>
  <polygon fill="fuchsia" fill-rule="nonzero" points="5669,2298 5699,2298 5699,2267 5669,2267 "/>
  <polygon fill="fuchsia" fill-rule="nonzero" points="4872,2298 4903,2298 4903,2267 4872,2267 "/>
  <polygon fill="fuchsia" fill-rule="nonzero" points="4811,2267 4841,2267 4841,2237 4811,2237 "/>
  <polygon fill="fuchsia" fill-rule="nonzero" points="5669,2237 5699,2237 5699,2206 5669,2206 "/>
  <polygon fill="fuchsia" fill-rule="nonzero" points="5577,2237 5607,2237 5607,2206 5577,2206 "/>
  <polygon fill="fuchsia" fill-rule="nonzero" points="5209,2237 5240,2237 5240,2206 5209,2206 "/>
  <polygon fill="fuchsia" fill-rule="nonzero" points="4565,2237 4596,2237 4596,2206 4565,2206 "/>
  <polygon fill="fuchsia" fill-rule="nonzero" points="5791,2206 5822,2206 5822,2176 5791,2176 "/>
  <polygon fill="fuchsia" fill-rule="nonzero" points="5454,2206 5485,2206 5485,2176 5454,2176 "/>
  <polygon fill="fuchsia" fill-rule="nonzero" points="4596,2206 4627,2206 4627,2176 4596,2176 "/>
  <polygon fill="fuchsia" fill-rule="nonzero" points="5699,2176 5730,2176 5730,2145 5699,2145 "/>
  <polygon fill="fuchsia" fill-rule="nonzero" points="5607,2176 5638,2176 5638,2145 5607,2145 "/>
  <polygon fill="fuchsia" fill-rule="nonzero" points="5515,2176 5546,2176 5546,2145 5515,2145 "/>
  <polygon fill="fuchsia" fill-rule="nonzero" points="5178,2176 5209,2176 5209,2145 5178,2145 "/>
  <polygon fill="fuchsia" fill-rule="nonzero" points="4780,2176 4811,2176 4811,2145 4780,2145 4780,2114 4749,2114 4749,2145 4780,2145 "/>
  <polygon fill="fuchsia" fill-rule="nonzero" points="4657,2176 4688,2176 4688,2145 4657,2145 "/>
  <polygon fill="fuchsia" fill-rule="nonzero" points="5760,2145 5791,2145 5791,2114 5760,2114 "/>
  <polygon fill="fuchsia" fill-rule="nonzero" points="5423,2145 5454,2145 5454,2114 5423,2114 5423,2084 5393,2084 5393,2114 5423,2114 "/>
  <polygon fill="fuchsia" fill-rule="nonzero" points="5822,2114 5852,2114 5852,2084 5822,2084 "/>
  <polygon fill="fuchsia" fill-rule="nonzero" points="5607,2114 5638,2114 5638,2084 5607,2084 "/>
  <polygon fill="fuchsia" fill-rule="nonzero" points="5270,2114 5301,2114 5301,2084 5270,2084 "/>
  <polygon fill="fuchsia" fill-rule="nonzero" points="5178,2114 5209,2114 5209,2084 5178,2084 "/>
  <polygon fill="fuchsia" fill-rule="nonzero" points="4688,2114 4719,2114 4719,2084 4688,2084 "/>
  <polygon fill="fuchsia" fill-rule="nonzero" points="5730,2084 5760,2084 5760,2053 5730,2053 "/>
  <polygon fill="fuchsia" fill-rule="nonzero" points="5669,2084 5699,2084 5699,2053 5669,2053 "/>
  <polygon fill="fuchsia" fill-rule="nonzero" points="5546,2084 5577,2084 5577,2053 5546,2053 "/>
  <polygon fill="fuchsia" fill-rule="nonzero" points="5485,2084 5515,2084 5515,2053 5485,2053 "/>
  <polygon fill="fuchsia" fill-rule="nonzero" points="5086,2084 5117,2084 5117,2053 5086,2053 "/>
  <polygon fill="fuchsia" fill-rule="nonzero" points="4841,2084 4872,2084 4872,2053 4841,2053 "/>
  <polygon fill="fuchsia" fill-rule="nonzero" points="4749,2084 4780,2084 4780,2053 4749,2053 "/>
  <polygon fill="fuchsia" fill-rule="nonzero" points="5822,2053 5852,2053 5852,2022 5822,2022 "/>
  <polygon fill="fuchsia" fill-rule="nonzero" points="5577,2053 5607,2053 5607,2022 5577,2022 "/>
  <polygon fill="fuchsia" fill-rule="nonzero" points="5423,2053 5454,2053 5454,2022 5423,2022 "/>
  <polygon fill="fuchsia" fill-rule="nonzero" points="5331,2053 5362,2053 5362,2022 5331,2022 5331,1992 5301,1992 5301,2022 5331,2022 "/>
  <polygon fill="fuchsia" fill-rule="nonzero" points="5240,2053 5270,2053 5270,2022 5240,2022 "/>
  <polygon fill="fuchsia" fill-rule="nonzero" points="5148,2053 5178,2053 5178,2022 5148,2022 "/>
  <polygon fill="fuchsia" fill-rule="nonzero" points="4994,2053 5025,2053 5025,2022 4994,2022 "/>
  <polygon fill="fuchsia" fill-rule="nonzero" points="4780,2053 4811,2053 4811,2022 4780,2022 "/>
  <polygon fill="fuchsia" fill-rule="nonzero" points="5760,2022 5791,2022 5791,1992 5760,1992 "/>
  <polygon fill="fuchsia" fill-rule="nonzero" points="5699,2022 5730,2022 5730,1992 5699,1992 "/>
  <polygon fill="fuchsia" fill-rule="nonzero" points="5638,2022 5669,2022 5669,1992 5638,1992 "/>
  <polygon fill="fuchsia" fill-rule="nonzero" points="5515,2022 5546,2022 5546,1992 5515,1992 "/>
  <polygon fill="fuchsia" fill-rule="nonzero" points="5086,2022 5117,2022 5117,1992 5086,1992 "/>
  <polygon fill="fuchsia" fill-rule="nonzero" points="4903,2022 4933,2022 4933,1992 4903,1992 "/>
  <polygon fill="fuchsia" fill-rule="nonzero" points="4841,2022 4872,2022 4872,1992 4841,1992 "/>
  <polygon fill="fuchsia" fill-rule="nonzero" points="5822,1992 5852,1992 5852,1961 5822,1961 "/>
  <polygon fill="fuchsia" fill-rule="nonzero" points="5577,1992 5607,1992 5607,1961 5577,1961 "/>
  <polygon fill="fuchsia" fill-rule="nonzero" points="5240,1992 5270,1992 5270,1961 5240,1961 "/>
  <polygon fill="fuchsia" fill-rule="nonzero" points="5025,1992 5056,1992 5056,1961 5025,1961 "/>
  <polygon fill="fuchsia" fill-rule="nonzero" points="4964,1992 4994,1992 4994,1961 4964,1961 "/>
  <polygon fill="fuchsia" fill-rule="nonzero" points="5760,1961 5791,1961 5791,1930 5760,1930 "/>
  <polygon fill="fuchsia" fill-rule="nonzero" points="5669,1961 5699,1961 5699,1930 5669,1930 "/>
  <polygon fill="fuchsia" fill-rule="nonzero" points="5607,1961 5638,1961 5638,1930 5607,1930 "/>
  <polygon fill="fuchsia" fill-rule="nonzero" points="5485,1961 5515,1961 5515,1930 5485,1930 "/>
  <polygon fill="fuchsia" fill-rule="nonzero" points="5393,1961 5423,1961 5423,1930 5393,1930 "/>
  <polygon fill="fuchsia" fill-rule="nonzero" points="5178,1961 5209,1961 5209,1930 5178,1930 "/>
  <polygon fill="fuchsia" fill-rule="nonzero" points="5117,1961 5148,1961 5148,1930 5117,1930 "/>
  <polygon fill="fuchsia" fill-rule="nonzero" points="5056,1961 5086,1961 5086,1930 5056,1930 "/>
  <polygon fill="fuchsia" fill-rule="nonzero" points="5791,1930 5822,1930 5822,1900 5791,1900 "/>
  <polygon fill="fuchsia" fill-rule="nonzero" points="5699,1930 5730,1930 5730,1900 5699,1900 "/>
  <polygon fill="fuchsia" fill-rule="nonzero" points="5546,1930 5577,1930 5577,1900 5546,1900 "/>
  <polygon fill="fuchsia" fill-rule="nonzero" points="5331,1930 5362,1930 5362,1900 5331,1900 "/>
  <polygon fill="fuchsia" fill-rule="nonzero" points="5270,1930 5301,1930 5301,1900 5270,1900 "/>
  <polygon fill="fuchsia" fill-rule="nonzero" points="5209,1930 5240,1930 5240,1900 5209,1900 "/>
  <polygon fill="fuchsia" fill-rule="nonzero" points="5148,1900 5178,1900 5178,1869 5148,1869 "/>
  <polygon fill="fuchsia" fill-rule="nonzero" points="5791,1869 5822,1869 5822,1838 5791,1838 "/>
  <polygon fill="fuchsia" fill-rule="nonzero" points="5730,1869 5760,1869 5760,1838 5730,1838 "/>
  <polygon fill="fuchsia" fill-rule="nonzero" points="5669,1869 5699,1869 5699,1838 5669,1838 "/>
  <polygon fill="fuchsia" fill-rule="nonzero" points="5270,1869 5301,1869 5301,1838 5270,1838 "/>
  <polygon fill="fuchsia" fill-rule="nonzero" points="5301,1838 5331,1838 5331,1808 5301,1808 "/>
  <polygon fill="fuchsia" fill-rule="nonzero" points="5822,1808 5852,1808 5852,1777 5822,1777 "/>
  <polygon fill="fuchsia" fill-rule="nonzero" points="5760,1808 5791,1808 5791,1777 5760,1777 "/>
  <polygon fill="fuchsia" fill-rule="nonzero" points="5270,1777 5301,1777 5301,1747 5270,1747 5270,1716 5240,1716 5240,1747 5270,1747 "/>
  <polygon fill="fuchsia" fill-rule="nonzero" points="5822,1747 5852,1747 5852,1716 5822,1716 "/>
  <polygon fill="fuchsia" fill-rule="nonzero" points="5056,3095 5025,3095 5025,3064 5056,3064 "/>
  <polygon fill="fuchsia" fill-rule="nonzero" points="4994,3095 4964,3095 4964,3064 4994,3064 "/>
  <polygon fill="fuchsia" fill-rule="nonzero" points="4933,3095 4903,3095 4903,3064 4933,3064 "/>
  <polygon fill="fuchsia" fill-rule="nonzero" points="4137,3064 4106,3064 4106,3033 4137,3033 "/>
  <polygon fill="fuchsia" fill-rule="nonzero" points="5025,3033 4994,3033 4994,3003 5025,3003 "/>
  <polygon fill="fuchsia" fill-rule="nonzero" points="4964,3033 4933,3033 4933,3003 4903,3003 4903,2972 4933,2972 4933,3003 4964,3003 "/>
  <polygon fill="fuchsia" fill-rule="nonzero" points="4903,3033 4872,3033 4872,3003 4841,3003 4841,2972 4872,2972 4872,3003 4903,3003 "/>
  <polygon fill="fuchsia" fill-rule="nonzero" points="4198,3033 4167,3033 4167,3003 4198,3003 "/>
  <polygon fill="fuchsia" fill-rule="nonzero" points="4137,3003 4106,3003 4106,2972 4075,2972 4075,2942 4106,2942 4106,2972 4137,2972 "/>
  <polygon fill="fuchsia" fill-rule="nonzero" points="5025,2972 4994,2972 4994,2942 5025,2942 "/>
  <polygon fill="fuchsia" fill-rule="nonzero" points="4443,2972 4412,2972 4412,2942 4443,2942 "/>
  <polygon fill="fuchsia" fill-rule="nonzero" points="4198,2972 4167,2972 4167,2942 4198,2942 "/>
  <polygon fill="fuchsia" fill-rule="nonzero" points="4964,2942 4933,2942 4933,2911 4964,2911 "/>
  <polygon fill="fuchsia" fill-rule="nonzero" points="4903,2942 4872,2942 4872,2911 4903,2911 "/>
  <polygon fill="fuchsia" fill-rule="nonzero" points="5025,2911 4994,2911 4994,2880 5025,2880 "/>
  <polygon fill="fuchsia" fill-rule="nonzero" points="4443,2911 4412,2911 4412,2880 4443,2880 "/>
  <polygon fill="fuchsia" fill-rule="nonzero" points="4198,2911 4167,2911 4167,2880 4198,2880 "/>
  <polygon fill="fuchsia" fill-rule="nonzero" points="4137,2911 4106,2911 4106,2880 4137,2880 "/>
  <polygon fill="fuchsia" fill-rule="nonzero" points="4903,2880 4872,2880 4872,2850 4841,2850 4841,2819 4872,2819 4872,2850 4903,2850 "/>
  <polygon fill="fuchsia" fill-rule="nonzero" points="4137,2850 4106,2850 4106,2819 4137,2819 "/>
  <polygon fill="fuchsia" fill-rule="nonzero" points="4137,2788 4106,2788 4106,2758 4137,2758 "/>
  <polygon fill="fuchsia" fill-rule="nonzero" points="4075,2788 4045,2788 4045,2758 4075,2758 "/>
  <polygon fill="fuchsia" fill-rule="nonzero" points="4474,2696 4443,2696 4443,2666 4474,2666 "/>
  <polygon fill="fuchsia" fill-rule="nonzero" points="4474,2635 4443,2635 4443,2604 4474,2604 "/>
  <polygon fill="fuchsia" fill-rule="nonzero" points="4137,2635 4106,2635 4106,2604 4075,2604 4075,2574 4106,2574 4106,2604 4137,2604 "/>
  <polygon fill="fuchsia" fill-rule="nonzero" points="4994,2574 4964,2574 4964,2543 4994,2543 "/>
  <polygon fill="fuchsia" fill-rule="nonzero" points="4933,2574 4903,2574 4903,2543 4933,2543 "/>
  <polygon fill="fuchsia" fill-rule="nonzero" points="4137,2543 4106,2543 4106,2513 4137,2513 "/>
  <polygon fill="fuchsia" fill-rule="nonzero" points="5056,2513 5025,2513 5025,2482 5056,2482 "/>
  <polygon fill="fuchsia" fill-rule="nonzero" points="4964,2513 4933,2513 4933,2482 4964,2482 "/>
  <polygon fill="fuchsia" fill-rule="nonzero" points="4198,2513 4167,2513 4167,2482 4198,2482 "/>
  <polygon fill="fuchsia" fill-rule="nonzero" points="4137,2482 4106,2482 4106,2451 4137,2451 "/>
  <polygon fill="fuchsia" fill-rule="nonzero" points="4198,2451 4167,2451 4167,2421 4137,2421 4137,2390 4075,2390 4075,2359 4045,2359 4045,2329 3983,2329 3983,2267 3953,2267 3953,2237 3922,2237 3922,2206 3953,2206 3953,2237 3983,2237 3983,2267 4014,2267 4014,2298 4045,2298 4045,2329 4075,2329 4075,2359 4137,2359 4137,2390 4167,2390 4167,2421 4198,2421 "/>
  <polygon fill="fuchsia" fill-rule="nonzero" points="5240,2421 5209,2421 5209,2359 5178,2359 5178,2329 5148,2329 5148,2298 5178,2298 5178,2329 5209,2329 5209,2359 5240,2359 "/>
  <polygon fill="fuchsia" fill-rule="nonzero" points="4627,2421 4596,2421 4596,2390 4627,2390 "/>
  <polygon fill="fuchsia" fill-rule="nonzero" points="5515,2390 5485,2390 5485,2359 5515,2359 "/>
  <polygon fill="fuchsia" fill-rule="nonzero" points="4565,2390 4535,2390 4535,2359 4565,2359 "/>
  <polygon fill="fuchsia" fill-rule="nonzero" points="5485,2329 5454,2329 5454,2298 5485,2298 "/>
  <polygon fill="fuchsia" fill-rule="nonzero" points="5423,2329 5393,2329 5393,2298 5423,2298 "/>
  <polygon fill="fuchsia" fill-rule="nonzero" points="5117,2329 5086,2329 5086,2298 5117,2298 "/>
  <polygon fill="fuchsia" fill-rule="nonzero" points="4106,2329 4075,2329 4075,2298 4106,2298 "/>
  <polygon fill="fuchsia" fill-rule="nonzero" points="5209,2298 5178,2298 5178,2267 5209,2267 "/>
  <polygon fill="fuchsia" fill-rule="nonzero" points="5056,2298 5025,2298 5025,2267 5056,2267 "/>
  <polygon fill="fuchsia" fill-rule="nonzero" points="4351,2298 4320,2298 4320,2267 4351,2267 "/>
  <polygon fill="fuchsia" fill-rule="nonzero" points="4198,2298 4167,2298 4167,2267 4198,2267 "/>
  <polygon fill="fuchsia" fill-rule="nonzero" points="4137,2298 4106,2298 4106,2267 4137,2267 "/>
  <path fill="fuchsia" fill-rule="nonzero" d="M2359 2145l-123 0 0 -31 -61 0 0 -31 -31 0 0 -61 -61 0 0 31 31 0 0 92 -92 0 0 -31 -61 0 0 -61 -31 0 0 -61 -31 0 0 -31 31 0 0 -61 -31 0 0 -31 31 0 0 -31 -31 0 0 -31 -31 0 0 -61 -31 0 0 -31 -31 0 0 -92 -31 0 0 -31 31 0 0 -31 -31 0 0 -31 -31 0 0 -31 -31 0 0 -31 -61 0 0 -61 -31 0 0 -31 -31 0 0 -61 -31 0 0 31 -31 0 0 61 31 0 0 276 31 0 0 31 31 0 0 61 31 0 0 184 -31 0 0 -31 -31 0 0 -31 -31 0 0 -31 -31 0 0 -31 -31 0 0 -31 -31 0 0 -31 -31 0 0 -31 -31 0 0 -61 -31 0 0 -31 -92 0 0 -31 -31 0 0 -31 -31 0 0 -31 31 0 0 31 31 0 0 31 92 0 0 31 31 0 0 31 31 0 0 31 31 0 0 31 31 0 0 31 31 0 0 -31 -31 0 0 -31 -31 0 0 -31 31 0 0 -31 -61 0 0 -31 -31 0 0 -31 -31 0 0 -31 -31 0 0 -61 -31 0 0 -31 -31 0 0 31 31 0 0 31 -31 0 0 -31 -61 0 0 -31 -61 0 0 -31 31 0 0 -31 -61 0 0 -31 -92 0 0 -31 -31 0 0 -31 -31 0 0 -92 -31 0 0 61 -31 0 0 -92 -31 0 0 -31 -31 0 0 -31 -31 0 0 -61 31 0 0 -31 -31 0 0 -31 -31 0 0 -31 -31 0 0 -31 31 0 0 31 31 0 0 -31 -31 0 0 -31 -31 0 0 -31 -31 0 0 -31 31 0 0 31 31 0 0 -31 -31 0 0 -31 92 0 0 31 31 0 0 31 31 0 0 31 31 0 0 -31 -31 0 0 -31 -31 0 0 -31 -31 0 0 -31 -92 0 0 -61 31 0 0 31 61 0 0 31 31 0 0 31 31 0 0 -31 -31 0 0 -61 -31 0 0 -31 31 0 0 31 31 0 0 61 31 0 0 31 31 0 0 31 31 0 0 31 31 0 0 31 31 0 0 31 -61 0 0 -31 -31 0 0 31 31 0 0 31 123 0 0 -31 31 0 0 -31 -31 0 0 -31 31 0 0 31 31 0 0 31 31 0 0 -31 -31 0 0 -31 31 0 0 31 31 0 0 -31 31 0 0 -61 31 0 0 92 -31 0 0 61 31 0 0 31 31 0 0 -31 -31 0 0 -31 31 0 0 31 31 0 0 31 31 0 0 -31 31 0 0 31 31 0 0 31 31 0 0 -31 -31 0 0 -31 31 0 0 31 31 0 0 -31 92 0 0 -31 -31 0 0 -31 31 0 0 31 31 0 0 31 31 0 0 31 31 0 0 31 31 0 0 -31 31 0 0 31 31 0 0 31 31 0 0 -31 31 0 0 61 31 0 0 -31 31 0 0 31 153 0 0 31 31 0 0 31 31 0 0 31 31 0 0 31 31 0 0 61 31 0 0 31 31 0 0 -31 -31 0 0 -61 31 0 0 61 61 0 0 31 -31 0 0 31 61 0 0 61 31 0 0 -61 -31 0 0 -31 31 0 0 31 31 0 0 61 31 0 0 31 61 0 0 31 61 0 0 31 31 0 0 31 31 0 0 -31 -31 0 0 -31 -31 0 0 -31 31 0 0 -31 -61 0 0 -31 -31 0 0 -31 -31 0 0 -31 31 0 0 31 31 0 0 31 31 0 0 -31 -31 0 0 -31 -31 0 0 -61 -31 0 0 -31 -61 0 0 -31 31 0 0 -31 -61 0 0 -92 -31 0 0 -31 -31 0 0 31 31 0 0 92 -31 0 0 -92 -31 0 0 -31 -31 0 0 -61 -31 0 0 -92 -31 0 0 61 -31 0 0 -61 -61 0 0 -31 -31 0 0 31 31 0 0 31 31 0 0 31 31 0 0 31 31 0 0 31 31 0 0 31 -31 0 0 -31 -31 0 0 -31 -31 0 0 -31 -31 0 0 -31 -31 0 0 -31 -31 0 0 -31 -61 0 0 -31 -31 0 0 -31 -92 0 0 -31 -31 0 0 -31 -31 0 0 -31 -31 0 0 31 31 0 0 31 31 0 0 31 31 0 0 31 31 0 0 31 -31 0 0 -31 -31 0 0 -31 -31 0 0 -31 -31 0 0 -31 -31 0 0 -61 -31 0 0 31 -31 0 0 -61 -31 0 0 -31 -31 0 0 -31 -31 0 0 31 -31 0 0 -61 -31 0 0 -31 -31 0 0 -31 -31 0 0 -31 -31 0 0 -61 -31 0 0 -31 31 0 0 31 31 0 0 61 61 0 0 61 31 0 0 -61 -31 0 0 -31 -31 0 0 -31 -31 0 0 -31 -31 0 0 -31 -184 0 0 -31 184 0 0 31 61 0 0 31 31 0 0 31 31 0 0 31 31 0 0 61 31 0 0 31 31 0 0 61 31 0 0 31 31 0 0 31 61 0 0 31 184 0 0 31 61 0 0 31 31 0 0 31 61 0 0 31 92 0 0 31 31 0 0 31 61 0 0 31 31 0 0 31 31 0 0 61 31 0 0 61 31 0 0 31 31 0 0 61 31 0 0 31 31 0 0 31 31 0 0 61 31 0 0 31 31 0 0 61 31 0 0 61 31 0 0 92 31 0 0 61 31 0 0 61 31 0 0 31 31 0 0 31 -61 0 0 31 -61 0 0 -31 -31 0 0 -31 -31 0 0 -31 -61 0 0 -31 -31 0 0 -31 -31 0 0 31 31 0 0 31 31 0 0 31 61 0 0 31 31 0 0 31 -31 0 0 -31 -61 0 0 -31 -61 0 0 -61 -61 0 0 -31 31 0 0 -31 -31 0 0 -31 -31 0 0 -61 -31 0 0 -31 -31 0 0 -31 -31 0 0 -31 -92 0 0 31 31 0 0 61 31 0 0 31 -31 0 0 31 31 0 0 92 31 0 0 123 31 0 0 31 -31 0 0 31 31 0 0 61 -31 0 0 31 31 0 0 123 31 0 0 153zm-92 -31l31 0 0 -31 -31 0 0 31zm-61 -31l31 0 0 -31 -31 0 0 31zm31 -31l31 0 0 -31 -31 0 0 31zm-61 -31l31 0 0 -31 -31 0 0 -31 -31 0 0 31 31 0 0 31zm-215 0l31 0 0 -31 -31 0 0 31zm215 -61l31 0 0 -31 -31 0 0 31zm-61 -31l31 0 0 -31 -31 0 0 -31 -31 0 0 31 31 0 0 31zm-153 0l31 0 0 -31 -31 0 0 31zm215 -31l31 0 0 -31 -31 0 0 -31 -31 0 0 31 31 0 0 31zm-582 -31l31 0 0 -31 -31 0 0 31zm490 -31l31 0 0 -31 -31 0 0 31zm-123 0l31 0 0 -31 -31 0 0 31zm-429 0l31 0 0 -31 -31 0 0 31zm644 -31l31 0 0 -31 -31 0 0 31zm-61 0l31 0 0 -31 -31 0 0 -31 -31 0 0 31 31 0 0 31zm-551 0l31 0 0 -31 -31 0 0 31zm460 -61l31 0 0 -31 -31 0 0 31zm-490 0l31 0 0 -31 -31 0 0 31zm521 -31l31 0 0 -31 -31 0 0 31zm-184 0l31 0 0 -31 -31 0 0 31zm797 -31l31 0 0 -31 -31 0 0 -31 -31 0 0 -31 -31 0 0 -61 -31 0 0 -31 -61 0 0 -31 -61 0 0 -31 -31 0 0 31 31 0 0 31 31 0 0 31 31 0 0 31 31 0 0 31 61 0 0 31 31 0 0 31 31 0 0 31zm-582 0l31 0 0 -31 -31 0 0 31zm-61 -31l31 0 0 -31 -31 0 0 31zm-61 0l31 0 0 -31 -31 0 0 31zm153 -31l31 0 0 -31 -31 0 0 31zm-643 0l31 0 0 -31 -31 0 0 31zm1164 -31l31 0 0 -31 -31 0 0 31zm-582 0l31 0 0 -31 -31 0 0 31zm-61 0l31 0 0 -31 -31 0 0 31zm-582 0l31 0 0 -31 -31 0 0 -31 -31 0 0 31 31 0 0 31zm705 -31l31 0 0 -31 -31 0 0 31zm-184 0l31 0 0 -31 -31 0 0 31zm123 -31l31 0 0 -31 -31 0 0 31zm-61 0l31 0 0 -31 -31 0 0 -31 -31 0 0 31 31 0 0 31zm-153 0l31 0 0 -31 -31 0 0 31zm306 -31l31 0 0 -31 -31 0 0 31zm-735 0l31 0 0 -31 -31 0 0 31zm643 -31l31 0 0 -31 -31 0 0 31zm-276 0l31 0 0 -31 -31 0 0 31zm-552 0l31 0 0 -31 -31 0 0 31zm766 -31l31 0 0 -31 -31 0 0 31zm-61 0l31 0 0 -31 -31 0 0 31zm-215 0l31 0 0 -31 -31 0 0 31zm-276 0l31 0 0 -31 -31 0 0 31zm-61 0l31 0 0 -31 -31 0 0 31zm766 -31l31 0 0 -31 -31 0 0 31zm-92 0l31 0 0 -31 -31 0 0 31zm-245 0l31 0 0 -31 -31 0 0 31zm-61 0l31 0 0 -31 -31 0 0 31zm-429 0l31 0 0 -31 -31 0 0 31zm-61 0l31 0 0 -31 -31 0 0 -31 31 0 0 -31 -31 0 0 -153 -31 0 0 -31 -31 0 0 -31 -31 0 0 31 31 0 0 31 -61 0 0 -31 -31 0 0 -31 -31 0 0 31 31 0 0 31 -61 0 0 31 31 0 0 61 31 0 0 31 31 0 0 31 31 0 0 31 31 0 0 31 61 0 0 31zm735 -31l31 0 0 -31 -31 0 0 31zm153 -31l31 0 0 -31 -31 0 0 31zm-214 0l31 0 0 -31 -31 0 0 31zm-521 0l31 0 0 -31 -31 0 0 31zm-61 0l31 0 0 -31 -31 0 0 31zm-276 0l31 0 0 -31 -31 0 0 31zm919 -31l31 0 0 -31 -31 0 0 31zm-276 0l31 0 0 -31 -31 0 0 31zm-705 0l31 0 0 -31 -31 0 0 31zm858 -31l31 0 0 -31 -31 0 0 31zm-429 0l31 0 0 -31 -31 0 0 31zm705 -31l31 0 0 -31 -31 0 0 31zm-184 0l31 0 0 -31 -31 0 0 31zm-153 0l31 0 0 -31 -31 0 0 31zm-215 0l31 0 0 -31 -31 0 0 31zm-245 0l31 0 0 -31 -31 0 0 31zm-337 0l31 0 0 -31 -31 0 0 31zm1073 -31l31 0 0 -31 -31 0 0 31zm-184 0l31 0 0 -31 -31 0 0 31zm-460 0l31 0 0 -31 -31 0 0 31zm582 -31l31 0 0 -31 -31 0 0 31zm-61 0l31 0 0 -31 -31 0 0 -31 -31 0 0 31 31 0 0 31zm-215 0l31 0 0 -31 -31 0 0 -31 -31 0 0 31 31 0 0 31zm-827 0l31 0 0 -31 -31 0 0 31zm889 -31l31 0 0 -31 -31 0 0 31zm-429 0l31 0 0 -31 -31 0 0 31zm-92 0l31 0 0 -31 -31 0 0 31zm-276 -31l31 0 0 -31 -31 0 0 31zm-92 0l31 0 0 -31 -31 0 0 31zm-61 0l31 0 0 -31 -31 0 0 31zm644 -31l31 0 0 -31 -31 0 0 31zm-276 0l31 0 0 -31 -31 0 0 31zm31 -31l31 0 0 -31 -31 0 0 31zm-368 0l31 0 0 -31 -31 0 0 -31 -31 0 0 31 31 0 0 31zm674 -31l31 0 0 -31 -31 0 0 31zm-429 0l31 0 0 -31 -31 0 0 31zm-123 0l31 0 0 -31 -31 0 0 -31 -31 0 0 -31 -31 0 0 31 31 0 0 31 31 0 0 31zm-61 0l31 0 0 -31 -31 0 0 31zm1379 -31l31 0 0 -31 -31 0 0 31zm-1134 0l31 0 0 -31 -31 0 0 31zm1072 -31l31 0 0 -61 -31 0 0 61zm-1379 0l31 0 0 -31 -31 0 0 31zm-61 -31l31 0 0 -31 -31 0 0 31zm123 -61l31 0 0 -31 -31 0 0 31zm-123 0l31 0 0 -31 -31 0 0 31zm1348 -31l31 0 0 -31 -31 0 0 31zm-61 0l31 0 0 -31 -31 0 0 31zm-61 -31l31 0 0 -31 -31 0 0 31zm-61 0l31 0 0 -31 -31 0 0 -31 -31 0 0 -31 -31 0 0 31 31 0 0 31 31 0 0 31zm-123 -61l31 0 0 -31 -31 0 0 31zm-276 -215l31 0 0 -31 -31 0 0 31zm-306 1593l-31 0 0 -31 -31 0 0 -31 -31 0 0 -31 -31 0 0 -184 31 0 0 31 31 0 0 31 31 0 0 31 31 0 0 31 31 0 0 -31 -31 0 0 -31 -31 0 0 -31 -31 0 0 -31 -31 0 0 -31 -31 0 0 -61 -31 0 0 -31 -31 0 0 -31 -31 0 0 -31 -31 0 0 -31 -31 0 0 -31 -61 0 0 -31 -31 0 0 -31 31 0 0 31 61 0 0 31 31 0 0 31 31 0 0 31 31 0 0 31 31 0 0 31 31 0 0 31 31 0 0 31 31 0 0 31 92 0 0 -31 -31 0 0 -61 -31 0 0 -31 -31 0 0 -31 31 0 0 31 61 0 0 92 31 0 0 -92 -31 0 0 -31 61 0 0 61 31 0 0 31 31 0 0 31 31 0 0 31 31 0 0 61 31 0 0 31 -31 0 0 -31 -31 0 0 -61 -31 0 0 -31 -61 0 0 31 31 0 0 31 31 0 0 31 31 0 0 31 31 0 0 31 61 0 0 -31 31 0 0 31 31 0 0 92 -153 0 0 -31 -61 0 0 -31 -61 0 0 31 -31 0 0 31 -31 0 0 -31 -31 0 0 -31 -61 0 0 31 61 0 0 31 31 0 0 31 -31 0 0 -31 -31 0 0 31 31 0 0 31 31 0 0 31zm215 -123l92 0 0 -31 -92 0 0 -31 -31 0 0 -31 -31 0 0 -31 -31 0 0 31 31 0 0 31 31 0 0 31 31 0 0 31zm-92 -31l31 0 0 -31 -31 0 0 31zm-92 -31l31 0 0 -31 -31 0 0 31zm-123 0l31 0 0 -31 -31 0 0 31zm153 -31l31 0 0 -31 -31 0 0 31zm-61 -31l31 0 0 -31 -31 0 0 31zm-31 -92l-31 0 0 -31 -31 0 0 -31 31 0 0 31 31 0 0 31zm-61 -92l-31 0 0 -31 31 0 0 31zm92 -31l-31 0 0 -31 -31 0 0 -31 31 0 0 31 31 0 0 31zm-153 0l-31 0 0 -31 -31 0 0 -31 -31 0 0 -31 31 0 0 31 31 0 0 31 31 0 0 31zm61 -31l-31 0 0 -31 -31 0 0 -31 -31 0 0 -31 -31 0 0 -31 31 0 0 31 31 0 0 31 31 0 0 31 31 0 0 31zm153 -61l-31 0 0 -31 31 0 0 31zm-153 0l-31 0 0 -61 -31 0 0 -31 -31 0 0 -31 31 0 0 31 31 0 0 31 31 0 0 61zm1379 -31l-31 0 0 -31 31 0 0 31zm-1287 0l-31 0 0 -31 31 0 0 31zm-245 0l-31 0 0 -31 31 0 0 31zm-61 0l-31 0 0 -31 31 0 0 31zm-92 0l-31 0 0 -31 31 0 0 31zm337 -31l-31 0 0 -31 31 0 0 31zm-306 0l-31 0 0 -31 -31 0 0 -31 31 0 0 31 31 0 0 31zm-92 0l-31 0 0 -31 -31 0 0 -31 -31 0 0 -31 31 0 0 31 31 0 0 31 31 0 0 31zm245 -31l-31 0 0 -31 31 0 0 31zm-61 0l-31 0 0 -31 31 0 0 31zm-61 -31l-31 0 0 -31 31 0 0 31zm-123 0l-31 0 0 -31 31 0 0 31zm-123 0l-31 0 0 -31 -31 0 0 -31 31 0 0 31 31 0 0 31zm1838 -31l-31 0 0 -31 31 0 0 31zm-1409 0l-31 0 0 -31 31 0 0 31zm-61 0l-31 0 0 -31 31 0 0 31zm-61 0l-31 0 0 -31 -31 0 0 -31 31 0 0 31 31 0 0 31zm-153 0l-31 0 0 -31 31 0 0 31zm-245 0l-31 0 0 -31 -123 0 0 -31 -123 0 0 -31 31 0 0 -31 -61 0 0 -31 -31 0 0 -31 -31 0 0 -31 -31 0 0 -61 -31 0 0 -31 -61 0 0 -31 61 0 0 31 61 0 0 61 31 0 0 31 31 0 0 31 31 0 0 31 61 0 0 61 31 0 0 -61 -31 0 0 -31 -31 0 0 -31 -31 0 0 -31 31 0 0 -31 -31 0 0 -31 -31 0 0 -31 31 0 0 31 61 0 0 123 31 0 0 31 31 0 0 31 31 0 0 31 31 0 0 31 61 0 0 31 31 0 0 31zm-153 -61l31 0 0 -31 -31 0 0 31zm2022 31l-31 0 0 -61 -31 0 0 -31 31 0 0 31 31 0 0 61zm-1563 0l-31 0 0 -31 -31 0 0 -31 31 0 0 31 31 0 0 31zm-123 0l-31 0 0 -31 31 0 0 31zm-61 0l-31 0 0 -31 -31 0 0 -31 31 0 0 31 31 0 0 31zm-92 -31l-31 0 0 -31 31 0 0 31zm-337 0l-31 0 0 -61 31 0 0 61zm674 -31l-31 0 0 -31 31 0 0 31zm-61 0l-31 0 0 -31 31 0 0 31zm-92 0l-31 0 0 -31 31 0 0 31zm-92 0l-31 0 0 -31 31 0 0 31zm-153 0l-31 0 0 -31 31 0 0 31zm-337 0l-31 0 0 -61 -31 0 0 -31 -31 0 0 -31 31 0 0 31 31 0 0 31 31 0 0 61zm613 -31l-31 0 0 -31 -31 0 0 -61 31 0 0 61 31 0 0 31zm-92 0l-31 0 0 -31 31 0 0 31zm-153 0l-31 0 0 -31 31 0 0 31zm-429 0l-31 0 0 -31 -31 0 0 -31 -31 0 0 -31 -31 0 0 -31 31 0 0 31 31 0 0 31 31 0 0 31 31 0 0 31zm2298 -31l-31 0 0 -31 31 0 0 31zm-61 0l-31 0 0 -31 31 0 0 31zm-61 0l-31 0 0 -31 -31 0 0 -31 31 0 0 31 31 0 0 31zm-1471 0l-31 0 0 -92 31 0 0 92zm-215 0l-31 0 0 -31 31 0 0 31zm-153 0l-31 0 0 -31 31 0 0 31zm245 -31l-31 0 0 -31 31 0 0 31zm-306 0l-31 0 0 -31 31 0 0 31zm1930 -31l-31 0 0 -31 31 0 0 31zm-1808 0l-31 0 0 -31 31 0 0 31zm-92 0l-31 0 0 -31 31 0 0 31zm1838 -31l-31 0 0 -31 31 0 0 31zm-61 0l-31 0 0 -31 31 0 0 31zm-61 0l-31 0 0 -31 -31 0 0 -31 31 0 0 31 31 0 0 31zm-1379 0l-31 0 0 -31 -31 0 0 -31 31 0 0 31 31 0 0 31zm-92 0l-31 0 0 -31 31 0 0 31zm-429 0l-31 0 0 -31 31 0 0 31zm-123 0l-31 0 0 -31 31 0 0 31zm-61 0l-31 0 0 -31 -31 0 0 -31 -31 0 0 -31 31 0 0 31 31 0 0 31 31 0 0 31zm-92 0l-31 0 0 -31 31 0 0 31zm-31 -61l0 31zm674 0l-31 0 0 -31 31 0 0 31zm-215 0l-31 0 0 -31 31 0 0 31zm1838 -31l-31 0 0 -61 31 0 0 61zm-92 0l-31 0 0 -31 31 0 0 31zm-1685 0l-31 0 0 -31 31 0 0 31zm1716 -31l-31 0 0 -31 31 0 0 31zm-92 0l-31 0 0 -31 31 0 0 31zm-1348 0l-31 0 0 -31 31 0 0 31zm-61 0l-31 0 0 -31 31 0 0 31zm-123 0l-31 0 0 -31 31 0 0 31zm-214 0l-31 0 0 -31 31 0 0 31zm-123 0l-31 0 0 -31 31 0 0 31zm-61 0l-31 0 0 -31 31 0 0 31zm-123 0l-31 0 0 -31 31 0 0 31zm2084 -31l-31 0 0 -31 31 0 0 31zm-184 0l-31 0 0 -31 31 0 0 31zm-1532 0l-31 0 0 -31 31 0 0 31zm-153 0l-31 0 0 -31 -31 0 0 -31 31 0 0 31 31 0 0 31zm-184 0l-31 0 0 -31 -31 0 0 -31 -31 0 0 -31 31 0 0 31 31 0 0 31 31 0 0 31zm-92 0l-31 0 0 -31 31 0 0 31zm-31 -61l0 31zm2114 0l-31 0 0 -31 31 0 0 31zm-61 0l-31 0 0 -31 31 0 0 31zm-123 0l-31 0 0 -31 31 0 0 31zm-1134 0l-31 0 0 -31 -31 0 0 -31 31 0 0 31 31 0 0 31zm-123 0l-31 0 0 -31 31 0 0 31zm-306 0l-31 0 0 -31 31 0 0 31zm-153 0l-31 0 0 -31 31 0 0 31zm-61 0l-31 0 0 -31 -31 0 0 -31 31 0 0 31 31 0 0 31zm1838 -31l-31 0 0 -31 31 0 0 31zm-123 0l-31 0 0 -31 31 0 0 31zm-1287 0l-31 0 0 -31 31 0 0 31zm-61 0l-31 0 0 -31 31 0 0 31zm1593 -31l-31 0 0 -31 31 0 0 31zm-214 0l-31 0 0 -31 31 0 0 31zm-92 0l-31 0 0 -31 31 0 0 31zm-61 0l-31 0 0 -31 31 0 0 31zm-1042 0l-31 0 0 -31 -31 0 0 -31 31 0 0 31 31 0 0 31zm-276 0l-31 0 0 -31 31 0 0 31zm-92 0l-31 0 0 -31 31 0 0 31zm-123 0l-31 0 0 -31 31 0 0 31zm-61 0l-31 0 0 -31 31 0 0 31zm1900 -31l-31 0 0 -31 -31 0 0 -31 -31 0 0 -31 -31 0 0 -31 31 0 0 31 31 0 0 31 31 0 0 31 31 0 0 31zm-92 0l-31 0 0 -31 -31 0 0 -31 31 0 0 31 31 0 0 31zm-276 0l-31 0 0 -31 31 0 0 31zm-123 0l-31 0 0 -31 31 0 0 31zm-61 0l-31 0 0 -31 31 0 0 31zm-61 0l-31 0 0 -31 31 0 0 31zm-61 0l-31 0 0 -31 31 0 0 31zm-643 0l-31 0 0 -31 31 0 0 31zm-123 0l-31 0 0 -31 31 0 0 31zm-337 0l-31 0 0 -31 31 0 0 31zm-184 0l-31 0 0 -31 31 0 0 31zm-61 0l-31 0 0 -31 31 0 0 31zm1839 -31l-31 0 0 -31 31 0 0 31zm-61 0l-31 0 0 -31 31 0 0 31zm-61 0l-31 0 0 -31 31 0 0 31zm-643 0l-31 0 0 -31 -31 0 0 -31 -31 0 0 -31 -31 0 0 -31 -31 0 0 -31 31 0 0 31 31 0 0 31 31 0 0 -31 -31 0 0 -61 -31 0 0 -31 31 0 0 31 31 0 0 61 31 0 0 61 31 0 0 61zm-552 0l-31 0 0 -31 -31 0 0 -31 31 0 0 31 31 0 0 31zm-398 0l-31 0 0 -31 31 0 0 31zm1532 -31l-31 0 0 -31 31 0 0 31zm-61 0l-31 0 0 -31 31 0 0 31zm-61 0l-31 0 0 -31 31 0 0 31zm-61 0l-31 0 0 -31 31 0 0 31zm-123 0l-31 0 0 -31 31 0 0 31zm-674 0l-31 0 0 -31 31 0 0 31zm-61 0l-31 0 0 -31 31 0 0 31zm-184 0l-31 0 0 -31 31 0 0 31zm-398 0l-31 0 0 -31 31 0 0 31zm1777 -31l-31 0 0 -31 31 0 0 31zm-61 0l-31 0 0 -31 31 0 0 31zm-61 0l-31 0 0 -31 31 0 0 31zm-276 0l-31 0 0 -31 31 0 0 31zm-184 0l-31 0 0 -31 31 0 0 31zm-61 0l-31 0 0 -31 31 0 0 31zm-61 0l-31 0 0 -61 -31 0 0 -31 31 0 0 31 31 0 0 61zm-552 0l-31 0 0 -31 31 0 0 31zm-215 0l-31 0 0 -31 31 0 0 31zm-153 0l-31 0 0 -31 31 0 0 31zm-123 0l-31 0 0 -31 31 0 0 31zm1563 -31l-31 0 0 -31 31 0 0 31zm-61 0l-31 0 0 -31 -31 0 0 -31 31 0 0 31 31 0 0 31zm-92 0l-31 0 0 -31 31 0 0 31zm-153 0l-31 0 0 -31 31 0 0 31zm-613 0l-31 0 0 -31 31 0 0 31zm-61 0l-31 0 0 -31 31 0 0 31zm-61 0l-31 0 0 -31 31 0 0 31zm-123 0l-31 0 0 -31 31 0 0 31zm-61 0l-31 0 0 -31 31 0 0 31zm-123 0l-31 0 0 -31 31 0 0 31zm-153 0l-31 0 0 -31 31 0 0 31zm1624 -31l-31 0 0 -31 -31 0 0 -31 31 0 0 31 31 0 0 31zm-61 0l-31 0 0 -31 -31 0 0 -61 31 0 0 61 31 0 0 31zm-429 0l-31 0 0 -31 31 0 0 31zm-61 0l-31 0 0 -31 31 0 0 31zm-61 0l-31 0 0 -31 31 0 0 31zm-613 0l-31 0 0 -31 -31 0 0 -31 31 0 0 31 31 0 0 31zm-521 0l-31 0 0 -31 31 0 0 31zm1593 -31l-31 0 0 -31 -31 0 0 -31 -31 0 0 -31 31 0 0 31 31 0 0 31 31 0 0 31zm-153 0l-31 0 0 -31 31 0 0 31zm-61 0l-31 0 0 -31 31 0 0 31zm-674 0l-31 0 0 -31 31 0 0 31zm-61 0l-31 0 0 -31 31 0 0 31zm-61 0l-31 0 0 -31 31 0 0 31zm-153 0l-31 0 0 -31 31 0 0 31zm-61 0l-31 0 0 -31 31 0 0 31zm-306 0l-31 0 0 -31 31 0 0 31zm1440 -31l-31 0 0 -31 31 0 0 31zm-215 0l-31 0 0 -31 31 0 0 31zm-123 0l-31 0 0 -31 31 0 0 31zm-61 0l-31 0 0 -31 31 0 0 31zm-61 0l-31 0 0 -31 31 0 0 31zm-123 0l-31 0 0 -31 31 0 0 31zm-123 0l-31 0 0 -31 31 0 0 31zm-276 0l-31 0 0 -31 31 0 0 31zm-214 0l-31 0 0 -31 31 0 0 31zm-123 0l-31 0 0 -31 31 0 0 31zm1409 -31l-31 0 0 -31 -31 0 0 -31 -31 0 0 -31 -31 0 0 -31 -31 0 0 -31 -31 0 0 -31 31 0 0 31 31 0 0 31 31 0 0 31 31 0 0 31 31 0 0 31 31 0 0 31zm-889 0l-31 0 0 -31 31 0 0 31zm-92 0l-31 0 0 -31 31 0 0 31zm-184 0l-31 0 0 -31 31 0 0 31zm-61 0l-31 0 0 -31 -31 0 0 -31 -31 0 0 -31 31 0 0 31 31 0 0 31 31 0 0 31zm-368 0l-31 0 0 -31 31 0 0 31zm1624 -31l-31 0 0 -31 31 0 0 31zm-153 0l-31 0 0 -31 31 0 0 31zm-61 0l-31 0 0 -31 31 0 0 31zm-215 0l-31 0 0 -31 31 0 0 31zm-92 0l-31 0 0 -31 31 0 0 31zm-61 0l-31 0 0 -31 31 0 0 31zm-61 0l-31 0 0 -31 31 0 0 31zm-61 0l-31 0 0 -31 31 0 0 31zm-61 0l-31 0 0 -31 31 0 0 31zm-61 0l-31 0 0 -31 31 0 0 31zm-245 0l-31 0 0 -31 31 0 0 31zm-61 0l-31 0 0 -31 31 0 0 31zm-398 0l-31 0 0 -31 31 0 0 31zm1256 -31l-31 0 0 -31 31 0 0 31zm-919 0l-31 0 0 -31 31 0 0 31zm-184 0l-31 0 0 -31 31 0 0 31zm1195 -31l-31 0 0 -31 31 0 0 31zm-61 0l-31 0 0 -31 31 0 0 31zm-92 0l-31 0 0 -31 31 0 0 31zm-276 0l-31 0 0 -31 31 0 0 31zm-61 0l-31 0 0 -31 31 0 0 31zm-61 0l-31 0 0 -31 31 0 0 31zm-61 0l-31 0 0 -31 31 0 0 31zm-92 0l-31 0 0 -31 31 0 0 31zm-276 0l-31 0 0 -31 31 0 0 31zm-92 0l-31 0 0 -31 31 0 0 31zm-184 0l-31 0 0 -31 31 0 0 31zm-184 0l-31 0 0 -31 31 0 0 31zm1318 -31l-31 0 0 -31 31 0 0 31zm-245 0l-31 0 0 -31 31 0 0 31zm-398 0l-31 0 0 -31 31 0 0 31zm-276 0l-31 0 0 -31 -31 0 0 -31 -31 0 0 -31 31 0 0 31 31 0 0 31 31 0 0 31zm-92 0l-31 0 0 -31 31 0 0 31zm-61 0l-31 0 0 -31 31 0 0 31zm1134 -31l-31 0 0 -31 -31 0 0 -31 31 0 0 31 31 0 0 31zm-123 0l-31 0 0 -31 31 0 0 31zm-61 0l-31 0 0 -31 31 0 0 31zm-61 0l-31 0 0 -31 31 0 0 31zm-123 0l-31 0 0 -31 31 0 0 31zm-123 0l-31 0 0 -31 31 0 0 31zm-337 0l-31 0 0 -31 31 0 0 31zm-92 0l-31 0 0 -31 31 0 0 31zm-368 0l-31 0 0 -31 31 0 0 31zm858 -31l-31 0 0 -31 31 0 0 31zm-123 0l-31 0 0 -31 31 0 0 31zm-61 0l-31 0 0 -31 31 0 0 31zm-490 0l-31 0 0 -31 31 0 0 31zm-61 0l-31 0 0 -31 31 0 0 31zm-61 0l-31 0 0 -31 31 0 0 31zm1256 -31l-31 0 0 -31 -31 0 0 -61 -31 0 0 -31 31 0 0 31 31 0 0 61 31 0 0 31zm-123 0l-31 0 0 -31 31 0 0 31zm-61 0l-31 0 0 -31 31 0 0 31zm-61 0l-31 0 0 -31 31 0 0 31zm-61 0l-31 0 0 -31 31 0 0 31zm-123 0l-31 0 0 -31 31 0 0 31zm-123 0l-31 0 0 -31 31 0 0 31zm-153 0l-31 0 0 -31 31 0 0 31zm-92 0l-31 0 0 -31 31 0 0 31zm-215 0l-31 0 0 -31 31 0 0 31zm-368 0l-31 0 0 -31 31 0 0 31zm1287 -31l-31 0 0 -61 -31 0 0 -31 31 0 0 31 31 0 0 61zm-276 0l-31 0 0 -31 31 0 0 31zm-123 0l-31 0 0 -31 -31 0 0 -31 -31 0 0 -31 31 0 0 31 31 0 0 31 31 0 0 31zm-613 0l-31 0 0 -31 31 0 0 31zm-61 0l-31 0 0 -31 31 0 0 31zm-61 0l-31 0 0 -31 -31 0 0 -31 -31 0 0 -31 31 0 0 31 31 0 0 31 31 0 0 31zm-92 0l-31 0 0 -31 31 0 0 31zm1164 -31l-61 0 0 -31 -31 0 0 -31 -31 0 0 -31 -31 0 0 -31 -61 0 0 -31 -31 0 0 -31 31 0 0 31 92 0 0 61 31 0 0 31 31 0 0 31 61 0 0 31zm-92 0l-31 0 0 -31 -31 0 0 -31 -31 0 0 -31 31 0 0 31 31 0 0 31 31 0 0 31zm-61 0l-31 0 0 -31 -61 0 0 -31 61 0 0 31 31 0 0 31zm-123 0l-31 0 0 -31 -31 0 0 -31 31 0 0 31 31 0 0 31zm-184 0l-31 0 0 -31 31 0 0 31zm-61 0l-31 0 0 -31 31 0 0 31zm-245 0l-31 0 0 -31 31 0 0 31zm-123 0l-31 0 0 -31 31 0 0 31zm-368 0l-31 0 0 -31 31 0 0 31zm644 -31l-31 0 0 -31 31 0 0 31zm-92 0l-31 0 0 -31 31 0 0 31zm-245 0l-31 0 0 -31 31 0 0 31zm-92 0l-31 0 0 -31 31 0 0 31zm-153 0l-31 0 0 -31 31 0 0 31zm1164 -31l-31 0 0 -31 -31 0 0 -61 31 0 0 61 31 0 0 31zm-245 0l-31 0 0 -61 -31 0 0 -31 -31 0 0 -31 31 0 0 31 31 0 0 31 92 0 0 31 -61 0 0 31zm-92 0l-31 0 0 -31 31 0 0 31zm-92 0l-31 0 0 -31 31 0 0 31zm-61 0l-31 0 0 -31 31 0 0 31zm-61 0l-31 0 0 -31 31 0 0 31zm-306 0l-31 0 0 -31 31 0 0 31zm-123 0l-31 0 0 -31 31 0 0 31zm-92 0l-31 0 0 -31 31 0 0 31zm-153 0l-31 0 0 -31 31 0 0 31zm919 -31l-31 0 0 -31 31 0 0 31zm-92 0l-31 0 0 -31 31 0 0 31zm-245 0l-31 0 0 -31 31 0 0 31zm-123 0l-31 0 0 -31 31 0 0 31zm-184 0l-31 0 0 -31 -31 0 0 -31 -31 0 0 -31 31 0 0 31 31 0 0 31 31 0 0 31zm-92 0l-31 0 0 -31 -31 0 0 -31 -31 0 0 -31 -31 0 0 -31 -31 0 0 -31 -31 0 0 -31 -31 0 0 -31 31 0 0 31 31 0 0 31 31 0 0 31 31 0 0 31 31 0 0 31 31 0 0 31 31 0 0 31zm-215 -245l0 31zm123 214l-31 0 0 -31 -31 0 0 -31 -31 0 0 -31 31 0 0 31 31 0 0 31 31 0 0 31zm-61 0l-31 0 0 -31 31 0 0 31zm827 -31l-31 0 0 -31 -61 0 0 -31 -31 0 0 -31 31 0 0 31 92 0 0 61zm-92 0l-31 0 0 -31 -31 0 0 -31 -61 0 0 -31 -92 0 0 -31 -92 0 0 -31 -31 0 0 -31 31 0 0 31 92 0 0 31 92 0 0 31 61 0 0 31 31 0 0 31 31 0 0 31zm-61 0l-31 0 0 -31 31 0 0 31zm-61 0l-31 0 0 -31 -31 0 0 -31 31 0 0 31 31 0 0 31zm-123 0l-31 0 0 -31 -31 0 0 -31 31 0 0 31 31 0 0 31zm-123 0l-31 0 0 -31 31 0 0 31zm-61 0l-31 0 0 -31 -31 0 0 -31 31 0 0 31 31 0 0 31zm643 -31l-31 0 0 -31 31 0 0 31zm-429 -31l-31 0 0 -31 31 0 0 31zm-123 0l-31 0 0 -31 -31 0 0 -31 31 0 0 31 31 0 0 31zm-61 0l-31 0 0 -31 31 0 0 31zm-123 0l-31 0 0 -31 31 0 0 31zm-92 0l-31 0 0 -31 31 0 0 31zm306 -31l-31 0 0 -31 31 0 0 31zm-184 0l-31 0 0 -31 31 0 0 31zm-92 0l-31 0 0 -31 -31 0 0 -31 -31 0 0 -31 -31 0 0 -31 -31 0 0 -31 -61 0 0 -31 61 0 0 31 31 0 0 31 31 0 0 31 31 0 0 31 31 0 0 31 31 0 0 31zm-215 -215l0 31zm31 184l-31 0 0 -31 31 0 0 31zm337 -31l-31 0 0 -31 -31 0 0 -31 31 0 0 31 31 0 0 31zm-123 0l-31 0 0 -31 31 0 0 31zm-123 0l-31 0 0 -31 31 0 0 31zm306 -31l-31 0 0 -31 31 0 0 31zm-153 0l-31 0 0 -31 -31 0 0 -31 -31 0 0 -31 31 0 0 31 31 0 0 31 31 0 0 31zm92 -31l-31 0 0 -31 31 0 0 31zm-184 0l-31 0 0 -31 31 0 0 31zm-123 0l-31 0 0 -31 31 0 0 31zm215 -31l-31 0 0 -31 31 0 0 31zm-123 -31l-61 0 0 -31 61 0 0 31z"/>
  <polygon fill="fuchsia" fill-rule="nonzero" points="5148,2267 5117,2267 5117,2237 5086,2237 5086,2206 5117,2206 5117,2237 5148,2237 "/>
  <polygon fill="fuchsia" fill-rule="nonzero" points="4228,2267 4198,2267 4198,2237 4167,2237 4167,2206 4198,2206 4198,2237 4228,2237 "/>
  <polygon fill="fuchsia" fill-rule="nonzero" points="4075,2267 4045,2267 4045,2237 4014,2237 4014,2176 4045,2176 4045,2237 4075,2237 "/>
  <polygon fill="fuchsia" fill-rule="nonzero" points="5331,2237 5301,2237 5301,2206 5331,2206 "/>
  <polygon fill="fuchsia" fill-rule="nonzero" points="5025,2237 4994,2237 4994,2206 5025,2206 "/>
  <polygon fill="fuchsia" fill-rule="nonzero" points="4382,2237 4351,2237 4351,2206 4382,2206 "/>
  <polygon fill="fuchsia" fill-rule="nonzero" points="4259,2237 4228,2237 4228,2206 4259,2206 "/>
  <polygon fill="fuchsia" fill-rule="nonzero" points="4137,2237 4106,2237 4106,2206 4137,2206 "/>
  <polygon fill="fuchsia" fill-rule="nonzero" points="5148,2206 5117,2206 5117,2176 5148,2176 "/>
  <polygon fill="fuchsia" fill-rule="nonzero" points="4290,2206 4259,2206 4259,2176 4290,2176 "/>
  <polygon fill="fuchsia" fill-rule="nonzero" points="3983,2206 3953,2206 3953,2145 3983,2145 "/>
  <polygon fill="fuchsia" fill-rule="nonzero" points="5086,2176 5056,2176 5056,2145 5025,2145 5025,2114 5056,2114 5056,2145 5086,2145 "/>
  <polygon fill="fuchsia" fill-rule="nonzero" points="4994,2176 4964,2176 4964,2145 4994,2145 "/>
  <polygon fill="fuchsia" fill-rule="nonzero" points="4412,2176 4382,2176 4382,2145 4351,2145 4351,2114 4290,2114 4290,2084 4351,2084 4351,2114 4382,2114 4382,2145 4412,2145 "/>
  <polygon fill="fuchsia" fill-rule="nonzero" points="4320,2176 4290,2176 4290,2145 4320,2145 "/>
  <polygon fill="fuchsia" fill-rule="nonzero" points="4167,2176 4137,2176 4137,2145 4167,2145 "/>
  <polygon fill="fuchsia" fill-rule="nonzero" points="4228,2145 4198,2145 4198,2114 4228,2114 "/>
  <polygon fill="fuchsia" fill-rule="nonzero" points="4014,2145 3983,2145 3983,2114 4014,2114 "/>
  <polygon fill="fuchsia" fill-rule="nonzero" points="4137,2114 4045,2114 4045,2084 4137,2084 "/>
  <polygon fill="fuchsia" fill-rule="nonzero" points="4474,2084 4443,2084 4443,2053 4474,2053 "/>
  <polygon fill="fuchsia" fill-rule="nonzero" points="4259,2084 4228,2084 4228,2053 4259,2053 "/>
  <polygon fill="fuchsia" fill-rule="nonzero" points="4198,2084 4137,2084 4137,2053 4198,2053 "/>
  <polygon fill="fuchsia" fill-rule="nonzero" points="4627,2053 4596,2053 4596,2022 4627,2022 "/>
  <polygon fill="fuchsia" fill-rule="nonzero" points="4504,2053 4474,2053 4474,2022 4504,2022 "/>
  <polygon fill="fuchsia" fill-rule="nonzero" points="4351,2053 4320,2053 4320,2022 4351,2022 "/>
  <polygon fill="fuchsia" fill-rule="nonzero" points="4290,2053 4259,2053 4259,2022 4290,2022 "/>
  <polygon fill="fuchsia" fill-rule="nonzero" points="4565,2022 4535,2022 4535,1992 4504,1992 4504,1961 4535,1961 4535,1992 4565,1992 "/>
  <polygon fill="fuchsia" fill-rule="nonzero" points="4412,2022 4382,2022 4382,1992 4412,1992 "/>
  <polygon fill="fuchsia" fill-rule="nonzero" points="4228,2022 4198,2022 4198,1992 4228,1992 "/>
  <polygon fill="fuchsia" fill-rule="nonzero" points="4474,1992 4443,1992 4443,1961 4474,1961 "/>
  <polygon fill="fuchsia" fill-rule="nonzero" points="4320,1992 4259,1992 4259,1961 4320,1961 "/>
  <polygon fill="fuchsia" fill-rule="nonzero" points="4780,1961 4749,1961 4749,1930 4780,1930 "/>
  <polygon fill="fuchsia" fill-rule="nonzero" points="4657,1961 4627,1961 4627,1930 4657,1930 "/>
  <polygon fill="fuchsia" fill-rule="nonzero" points="4351,1961 4320,1961 4320,1900 4351,1900 4351,1869 4382,1869 4382,1900 4412,1900 4412,1930 4351,1930 "/>
  <polygon fill="fuchsia" fill-rule="nonzero" points="4811,1930 4780,1930 4780,1900 4811,1900 "/>
  <polygon fill="fuchsia" fill-rule="nonzero" points="4474,1930 4443,1930 4443,1900 4412,1900 4412,1869 4382,1869 4382,1808 4412,1808 4412,1838 4443,1838 4443,1869 4474,1869 "/>
  <polygon fill="fuchsia" fill-rule="nonzero" points="4749,1900 4719,1900 4719,1869 4749,1869 "/>
  <polygon fill="fuchsia" fill-rule="nonzero" points="4535,1900 4504,1900 4504,1869 4474,1869 4474,1838 4443,1838 4443,1808 4412,1808 4412,1777 4382,1777 4382,1747 4320,1747 4320,1716 4290,1716 4290,1685 4259,1685 4259,1655 4167,1655 4167,1624 4137,1624 4137,1655 4106,1655 4106,1624 3983,1624 3983,1593 3891,1593 3891,1563 3799,1563 3799,1532 3769,1532 3769,1563 3799,1563 3799,1593 3769,1593 3769,1563 3738,1563 3738,1593 3708,1593 3708,1563 3677,1563 3677,1593 3646,1593 3646,1563 3616,1563 3616,1593 3493,1593 3493,1563 3462,1563 3462,1593 3432,1593 3432,1624 3401,1624 3401,1593 3370,1593 3370,1624 3064,1624 3064,1593 3033,1593 3033,1532 3003,1532 3003,1501 3033,1501 3033,1532 3095,1532 3095,1563 3125,1563 3125,1593 3156,1593 3156,1563 3125,1563 3125,1532 3095,1532 3095,1501 3125,1501 3125,1532 3217,1532 3217,1563 3248,1563 3248,1532 3217,1532 3217,1501 3187,1501 3187,1471 3217,1471 3217,1501 3248,1501 3248,1532 3279,1532 3279,1563 3309,1563 3309,1532 3279,1532 3279,1501 3340,1501 3340,1471 3370,1471 3370,1501 3401,1501 3401,1532 3432,1532 3432,1501 3401,1501 3401,1471 3370,1471 3370,1440 3340,1440 3340,1410 3370,1410 3370,1440 3401,1440 3401,1471 3524,1471 3524,1501 3554,1501 3554,1532 3585,1532 3585,1501 3554,1501 3554,1471 3524,1471 3524,1440 3554,1440 3554,1471 3585,1471 3585,1501 3616,1501 3616,1471 3585,1471 3585,1410 3616,1410 3616,1471 3646,1471 3646,1440 3677,1440 3677,1471 3708,1471 3708,1501 3738,1501 3738,1471 3708,1471 3708,1440 3677,1440 3677,1410 3646,1410 3646,1379 3677,1379 3677,1410 3708,1410 3708,1440 3738,1440 3738,1410 3708,1410 3708,1379 3738,1379 3738,1410 3769,1410 3769,1348 3738,1348 3738,1318 3769,1318 3769,1348 3799,1348 3799,1410 3830,1410 3830,1440 3861,1440 3861,1471 3891,1471 3891,1501 3922,1501 3922,1471 3891,1471 3891,1440 3922,1440 3922,1471 3953,1471 3953,1501 3983,1501 3983,1532 4014,1532 4014,1563 4045,1563 4045,1532 4014,1532 4014,1501 3983,1501 3983,1471 3953,1471 3953,1440 3983,1440 3983,1471 4045,1471 4045,1501 4075,1501 4075,1532 4106,1532 4106,1501 4075,1501 4075,1471 4045,1471 4045,1440 4075,1440 4075,1471 4106,1471 4106,1501 4137,1501 4137,1532 4167,1532 4167,1501 4137,1501 4137,1471 4106,1471 4106,1440 4137,1440 4137,1471 4198,1471 4198,1501 4228,1501 4228,1532 4259,1532 4259,1563 4228,1563 4228,1532 4198,1532 4198,1563 4228,1563 4228,1593 4259,1593 4259,1655 4320,1655 4320,1685 4351,1685 4351,1716 4382,1716 4382,1685 4351,1685 4351,1655 4382,1655 4382,1685 4443,1685 4443,1716 4474,1716 4474,1685 4443,1685 4443,1655 4412,1655 4412,1624 4382,1624 4382,1593 4412,1593 4412,1624 4443,1624 4443,1655 4474,1655 4474,1685 4504,1685 4504,1655 4474,1655 4474,1593 4443,1593 4443,1532 4412,1532 4412,1501 4382,1501 4382,1471 4412,1471 4412,1501 4443,1501 4443,1532 4504,1532 4504,1563 4474,1563 4474,1593 4535,1593 4535,1624 4565,1624 4565,1655 4596,1655 4596,1685 4627,1685 4627,1716 4657,1716 4657,1685 4688,1685 4688,1747 4719,1747 4719,1808 4657,1808 4657,1777 4627,1777 4627,1747 4596,1747 4596,1716 4565,1716 4565,1685 4535,1685 4535,1716 4565,1716 4565,1747 4596,1747 4596,1777 4627,1777 4627,1808 4657,1808 4657,1838 4596,1838 4596,1869 4565,1869 4565,1838 4535,1838 "/>
  <polygon fill="fuchsia" fill-rule="nonzero" points="4474,1838 4504,1838 4504,1808 4474,1808 4474,1777 4443,1777 4443,1808 4474,1808 "/>
  <polygon fill="fuchsia" fill-rule="nonzero" points="4565,1808 4596,1808 4596,1777 4565,1777 "/>
  <polygon fill="fuchsia" fill-rule="nonzero" points="4504,1808 4535,1808 4535,1777 4504,1777 "/>
  <polygon fill="fuchsia" fill-rule="nonzero" points="4504,1747 4535,1747 4535,1716 4504,1716 "/>
  <polygon fill="fuchsia" fill-rule="nonzero" points="4412,1747 4443,1747 4443,1716 4412,1716 "/>
  <polygon fill="fuchsia" fill-rule="nonzero" points="4504,1655 4535,1655 4535,1624 4504,1624 "/>
  <polygon fill="fuchsia" fill-rule="nonzero" points="4137,1593 4167,1593 4167,1563 4137,1563 "/>
  <polygon fill="fuchsia" fill-rule="nonzero" points="4075,1593 4106,1593 4106,1563 4075,1563 "/>
  <polygon fill="fuchsia" fill-rule="nonzero" points="3187,1593 3217,1593 3217,1563 3187,1563 "/>
  <polygon fill="fuchsia" fill-rule="nonzero" points="3064,1593 3095,1593 3095,1563 3064,1563 "/>
  <polygon fill="fuchsia" fill-rule="nonzero" points="3922,1563 3953,1563 3953,1532 3922,1532 "/>
  <polygon fill="fuchsia" fill-rule="nonzero" points="3493,1563 3524,1563 3524,1532 3493,1532 3493,1501 3462,1501 3462,1532 3493,1532 "/>
  <polygon fill="fuchsia" fill-rule="nonzero" points="3340,1563 3370,1563 3370,1532 3340,1532 "/>
  <polygon fill="fuchsia" fill-rule="nonzero" points="3861,1532 3891,1532 3891,1501 3861,1501 3861,1471 3830,1471 3830,1440 3799,1440 3799,1471 3830,1471 3830,1501 3861,1501 "/>
  <polygon fill="fuchsia" fill-rule="nonzero" points="3646,1532 3677,1532 3677,1501 3646,1501 "/>
  <polygon fill="fuchsia" fill-rule="nonzero" points="3769,1501 3799,1501 3799,1471 3769,1471 "/>
  <polygon fill="fuchsia" fill-rule="nonzero" points="4841,1869 4811,1869 4811,1838 4841,1838 "/>
  <polygon fill="fuchsia" fill-rule="nonzero" points="5148,1808 5117,1808 5117,1777 5086,1777 5086,1747 5117,1747 5117,1777 5148,1777 "/>
  <polygon fill="fuchsia" fill-rule="nonzero" points="5056,1808 5025,1808 5025,1777 5056,1777 "/>
  <polygon fill="fuchsia" fill-rule="nonzero" points="4964,1808 4933,1808 4933,1777 4964,1777 "/>
  <polygon fill="fuchsia" fill-rule="nonzero" points="4872,1808 4841,1808 4841,1777 4872,1777 "/>
  <polygon fill="fuchsia" fill-rule="nonzero" points="5393,1777 5362,1777 5362,1747 5331,1747 5331,1716 5301,1716 5301,1685 5270,1685 5270,1655 5301,1655 5301,1685 5331,1685 5331,1716 5362,1716 5362,1747 5393,1747 "/>
  <polygon fill="fuchsia" fill-rule="nonzero" points="4780,1777 4749,1777 4749,1747 4719,1747 4719,1685 4780,1685 4780,1716 4749,1716 4749,1747 4780,1747 "/>
  <polygon fill="fuchsia" fill-rule="nonzero" points="5485,1747 5454,1747 5454,1716 5485,1716 "/>
  <polygon fill="fuchsia" fill-rule="nonzero" points="5056,1747 5025,1747 5025,1716 5056,1716 "/>
  <polygon fill="fuchsia" fill-rule="nonzero" points="5577,1716 5546,1716 5546,1685 5577,1685 "/>
  <polygon fill="fuchsia" fill-rule="nonzero" points="5423,1716 5393,1716 5393,1685 5423,1685 "/>
  <polygon fill="fuchsia" fill-rule="nonzero" points="5117,1716 5086,1716 5086,1685 5117,1685 "/>
  <polygon fill="fuchsia" fill-rule="nonzero" points="4964,1716 4933,1716 4933,1685 4964,1685 "/>
  <polygon fill="fuchsia" fill-rule="nonzero" points="5669,1685 5638,1685 5638,1655 5669,1655 "/>
  <polygon fill="fuchsia" fill-rule="nonzero" points="5607,1685 5577,1685 5577,1655 5607,1655 "/>
  <polygon fill="fuchsia" fill-rule="nonzero" points="5485,1685 5454,1685 5454,1655 5485,1655 "/>
  <polygon fill="fuchsia" fill-rule="nonzero" points="5362,1685 5331,1685 5331,1655 5301,1655 5301,1624 5270,1624 5270,1593 5301,1593 5301,1624 5331,1624 5331,1655 5362,1655 "/>
  <polygon fill="fuchsia" fill-rule="nonzero" points="5178,1685 5148,1685 5148,1655 5178,1655 "/>
  <polygon fill="fuchsia" fill-rule="nonzero" points="4841,1685 4780,1685 4780,1655 4688,1655 4688,1624 4657,1624 4657,1593 4688,1593 4688,1563 4657,1563 4657,1532 4627,1532 4627,1501 4596,1501 4596,1471 4627,1471 4627,1501 4657,1501 4657,1532 4688,1532 4688,1563 4719,1563 4719,1532 4688,1532 4688,1471 4657,1471 4657,1410 4688,1410 4688,1471 4719,1471 4719,1501 4749,1501 4749,1471 4719,1471 4719,1440 4749,1440 4749,1471 4780,1471 4780,1501 4811,1501 4811,1532 4841,1532 4841,1501 4811,1501 4811,1471 4780,1471 4780,1440 4749,1440 4749,1410 4719,1410 4719,1379 4688,1379 4688,1348 4719,1348 4719,1379 4749,1379 4749,1410 4780,1410 4780,1440 4811,1440 4811,1471 4933,1471 4933,1410 4964,1410 4964,1471 4994,1471 4994,1501 4964,1501 4964,1532 4933,1532 4933,1563 4903,1563 4903,1593 4872,1593 4872,1563 4841,1563 4841,1593 4872,1593 4872,1624 4811,1624 4811,1593 4780,1593 4780,1624 4811,1624 4811,1655 4841,1655 "/>
  <polygon fill="fuchsia" fill-rule="nonzero" points="4719,1624 4749,1624 4749,1593 4719,1593 "/>
  <polygon fill="fuchsia" fill-rule="nonzero" points="4749,1563 4780,1563 4780,1532 4749,1532 "/>
  <polygon fill="fuchsia" fill-rule="nonzero" points="4872,1532 4903,1532 4903,1501 4872,1501 "/>
  <polygon fill="fuchsia" fill-rule="nonzero" points="5546,1655 5515,1655 5515,1624 5546,1624 "/>
  <polygon fill="fuchsia" fill-rule="nonzero" points="5423,1655 5393,1655 5393,1624 5362,1624 5362,1593 5393,1593 5393,1624 5423,1624 "/>
  <polygon fill="fuchsia" fill-rule="nonzero" points="5240,1655 5209,1655 5209,1624 5178,1624 5178,1593 5209,1593 5209,1624 5240,1624 "/>
  <polygon fill="fuchsia" fill-rule="nonzero" points="5638,1624 5607,1624 5607,1593 5638,1593 "/>
  <polygon fill="fuchsia" fill-rule="nonzero" points="5485,1624 5454,1624 5454,1593 5485,1593 "/>
  <polygon fill="fuchsia" fill-rule="nonzero" points="5025,1624 4994,1624 4994,1593 5025,1593 "/>
  <polygon fill="fuchsia" fill-rule="nonzero" points="4627,1624 4596,1624 4596,1593 4627,1593 "/>
  <polygon fill="fuchsia" fill-rule="nonzero" points="5577,1593 5546,1593 5546,1563 5577,1563 "/>
  <polygon fill="fuchsia" fill-rule="nonzero" points="5515,1593 5485,1593 5485,1563 5515,1563 "/>
  <polygon fill="fuchsia" fill-rule="nonzero" points="5240,1593 5209,1593 5209,1563 5240,1563 "/>
  <polygon fill="fuchsia" fill-rule="nonzero" points="5117,1593 5086,1593 5086,1563 5117,1563 "/>
  <polygon fill="fuchsia" fill-rule="nonzero" points="4351,1593 4320,1593 4320,1563 4351,1563 "/>
  <polygon fill="fuchsia" fill-rule="nonzero" points="5638,1563 5607,1563 5607,1532 5638,1532 "/>
  <polygon fill="fuchsia" fill-rule="nonzero" points="5454,1563 5423,1563 5423,1532 5454,1532 "/>
  <polygon fill="fuchsia" fill-rule="nonzero" points="5362,1563 5331,1563 5331,1532 5362,1532 "/>
  <polygon fill="fuchsia" fill-rule="nonzero" points="5301,1563 5270,1563 5270,1532 5240,1532 5240,1501 5270,1501 5270,1532 5301,1532 "/>
  <polygon fill="fuchsia" fill-rule="nonzero" points="3003,1563 2972,1563 2972,1532 3003,1532 "/>
  <polygon fill="fuchsia" fill-rule="nonzero" points="5699,1532 5669,1532 5669,1501 5699,1501 "/>
  <polygon fill="fuchsia" fill-rule="nonzero" points="5577,1532 5546,1532 5546,1501 5577,1501 "/>
  <polygon fill="fuchsia" fill-rule="nonzero" points="5638,1501 5607,1501 5607,1471 5638,1471 "/>
  <polygon fill="fuchsia" fill-rule="nonzero" points="5485,1501 5454,1501 5454,1471 5485,1471 "/>
  <polygon fill="fuchsia" fill-rule="nonzero" points="5393,1501 5362,1501 5362,1471 5393,1471 "/>
  <polygon fill="fuchsia" fill-rule="nonzero" points="5178,1501 5148,1501 5148,1471 5178,1471 "/>
  <polygon fill="fuchsia" fill-rule="nonzero" points="5086,1501 5056,1501 5056,1471 5086,1471 "/>
  <polygon fill="fuchsia" fill-rule="nonzero" points="2972,1501 2942,1501 2942,1471 2972,1471 "/>
  <polygon fill="fuchsia" fill-rule="nonzero" points="5730,1471 5699,1471 5699,1440 5730,1440 "/>
  <polygon fill="fuchsia" fill-rule="nonzero" points="5515,1471 5485,1471 5485,1440 5515,1440 "/>
  <polygon fill="fuchsia" fill-rule="nonzero" points="5331,1471 5301,1471 5301,1440 5331,1440 "/>
  <polygon fill="fuchsia" fill-rule="nonzero" points="5240,1471 5209,1471 5209,1440 5240,1440 "/>
  <polygon fill="fuchsia" fill-rule="nonzero" points="5025,1471 4994,1471 4994,1410 5025,1410 "/>
  <polygon fill="fuchsia" fill-rule="nonzero" points="4565,1471 4535,1471 4535,1440 4565,1440 "/>
  <polygon fill="fuchsia" fill-rule="nonzero" points="3309,1471 3279,1471 3279,1440 3309,1440 "/>
  <polygon fill="fuchsia" fill-rule="nonzero" points="3003,1471 2972,1471 2972,1440 3003,1440 "/>
  <polygon fill="fuchsia" fill-rule="nonzero" points="5791,1440 5760,1440 5760,1410 5791,1410 "/>
  <polygon fill="fuchsia" fill-rule="nonzero" points="5577,1440 5546,1440 5546,1410 5577,1410 "/>
  <polygon fill="fuchsia" fill-rule="nonzero" points="5393,1440 5362,1440 5362,1410 5393,1410 "/>
  <polygon fill="fuchsia" fill-rule="nonzero" points="5086,1440 5056,1440 5056,1410 5086,1410 "/>
  <polygon fill="fuchsia" fill-rule="nonzero" points="4903,1440 4872,1440 4872,1410 4903,1410 "/>
  <polygon fill="fuchsia" fill-rule="nonzero" points="4841,1440 4811,1440 4811,1410 4841,1410 "/>
  <polygon fill="fuchsia" fill-rule="nonzero" points="4627,1440 4596,1440 4596,1410 4627,1410 "/>
  <polygon fill="fuchsia" fill-rule="nonzero" points="4228,1440 4198,1440 4198,1410 4228,1410 "/>
  <polygon fill="fuchsia" fill-rule="nonzero" points="4167,1440 4137,1440 4137,1410 4167,1410 "/>
  <polygon fill="fuchsia" fill-rule="nonzero" points="4014,1440 3983,1440 3983,1410 4014,1410 "/>
  <polygon fill="fuchsia" fill-rule="nonzero" points="3493,1440 3462,1440 3462,1410 3493,1410 "/>
  <polygon fill="fuchsia" fill-rule="nonzero" points="3432,1440 3401,1440 3401,1410 3432,1410 "/>
  <polygon fill="fuchsia" fill-rule="nonzero" points="3064,1440 3033,1440 3033,1410 3064,1410 "/>
  <polygon fill="fuchsia" fill-rule="nonzero" points="5730,1410 5699,1410 5699,1379 5730,1379 "/>
  <polygon fill="fuchsia" fill-rule="nonzero" points="5638,1410 5607,1410 5607,1379 5638,1379 "/>
  <polygon fill="fuchsia" fill-rule="nonzero" points="5454,1410 5423,1410 5423,1379 5454,1379 "/>
  <polygon fill="fuchsia" fill-rule="nonzero" points="5148,1410 5117,1410 5117,1379 5148,1379 "/>
  <polygon fill="fuchsia" fill-rule="nonzero" points="4075,1410 4045,1410 4045,1379 4075,1379 "/>
  <polygon fill="fuchsia" fill-rule="nonzero" points="3891,1410 3861,1410 3861,1379 3891,1379 "/>
  <polygon fill="fuchsia" fill-rule="nonzero" points="3554,1410 3524,1410 3524,1379 3554,1379 "/>
  <polygon fill="fuchsia" fill-rule="nonzero" points="3125,1410 3095,1410 3095,1379 3125,1379 "/>
  <polygon fill="fuchsia" fill-rule="nonzero" points="5546,1379 5515,1379 5515,1348 5546,1348 "/>
  <polygon fill="fuchsia" fill-rule="nonzero" points="5393,1379 5362,1379 5362,1348 5393,1348 "/>
  <polygon fill="fuchsia" fill-rule="nonzero" points="5301,1379 5270,1379 5270,1348 5301,1348 "/>
  <polygon fill="fuchsia" fill-rule="nonzero" points="5209,1379 5178,1379 5178,1348 5209,1348 "/>
  <polygon fill="fuchsia" fill-rule="nonzero" points="5086,1379 5056,1379 5056,1348 5086,1348 "/>
  <polygon fill="fuchsia" fill-rule="nonzero" points="5025,1379 4994,1379 4994,1348 5025,1348 "/>
  <polygon fill="fuchsia" fill-rule="nonzero" points="4964,1379 4933,1379 4933,1348 4964,1348 "/>
  <polygon fill="fuchsia" fill-rule="nonzero" points="4872,1379 4841,1379 4841,1348 4872,1348 "/>
  <polygon fill="fuchsia" fill-rule="nonzero" points="4811,1379 4780,1379 4780,1348 4811,1348 "/>
  <polygon fill="fuchsia" fill-rule="nonzero" points="4627,1379 4596,1379 4596,1348 4627,1348 "/>
  <polygon fill="fuchsia" fill-rule="nonzero" points="4504,1379 4474,1379 4474,1348 4504,1348 "/>
  <polygon fill="fuchsia" fill-rule="nonzero" points="4412,1379 4382,1379 4382,1348 4412,1348 "/>
  <polygon fill="fuchsia" fill-rule="nonzero" points="4259,1379 4228,1379 4228,1348 4259,1348 "/>
  <polygon fill="fuchsia" fill-rule="nonzero" points="4167,1379 4137,1379 4137,1348 4167,1348 "/>
  <polygon fill="fuchsia" fill-rule="nonzero" points="3953,1379 3922,1379 3922,1348 3953,1348 "/>
  <polygon fill="fuchsia" fill-rule="nonzero" points="3616,1379 3585,1379 3585,1348 3616,1348 "/>
  <polygon fill="fuchsia" fill-rule="nonzero" points="3340,1379 3309,1379 3309,1348 3340,1348 "/>
  <polygon fill="fuchsia" fill-rule="nonzero" points="3217,1379 3187,1379 3187,1348 3217,1348 "/>
  <polygon fill="fuchsia" fill-rule="nonzero" points="5760,1348 5730,1348 5730,1318 5760,1318 "/>
  <polygon fill="fuchsia" fill-rule="nonzero" points="5669,1348 5638,1348 5638,1318 5669,1318 "/>
  <polygon fill="fuchsia" fill-rule="nonzero" points="5607,1348 5577,1348 5577,1318 5607,1318 "/>
  <polygon fill="fuchsia" fill-rule="nonzero" points="5485,1348 5454,1348 5454,1318 5485,1318 "/>
  <polygon fill="fuchsia" fill-rule="nonzero" points="5117,1348 5086,1348 5086,1318 5117,1318 "/>
  <polygon fill="fuchsia" fill-rule="nonzero" points="4657,1348 4627,1348 4627,1318 4657,1318 "/>
  <polygon fill="fuchsia" fill-rule="nonzero" points="4565,1348 4535,1348 4535,1318 4565,1318 "/>
  <polygon fill="fuchsia" fill-rule="nonzero" points="4198,1348 4167,1348 4167,1318 4198,1318 "/>
  <polygon fill="fuchsia" fill-rule="nonzero" points="4106,1348 4075,1348 4075,1318 4106,1318 "/>
  <polygon fill="fuchsia" fill-rule="nonzero" points="4014,1348 3983,1348 3983,1318 4014,1318 "/>
  <polygon fill="fuchsia" fill-rule="nonzero" points="3708,1348 3677,1348 3677,1318 3708,1318 "/>
  <polygon fill="fuchsia" fill-rule="nonzero" points="3462,1348 3432,1348 3432,1318 3462,1318 "/>
  <polygon fill="fuchsia" fill-rule="nonzero" points="5791,1318 5760,1318 5760,1287 5791,1287 "/>
  <polygon fill="fuchsia" fill-rule="nonzero" points="5148,1318 5117,1318 5117,1287 5148,1287 "/>
  <polygon fill="fuchsia" fill-rule="nonzero" points="5056,1318 5025,1318 5025,1287 5056,1287 "/>
  <polygon fill="fuchsia" fill-rule="nonzero" points="4964,1318 4933,1318 4933,1287 4964,1287 "/>
  <polygon fill="fuchsia" fill-rule="nonzero" points="4780,1318 4749,1318 4749,1287 4780,1287 "/>
  <polygon fill="fuchsia" fill-rule="nonzero" points="4228,1318 4198,1318 4198,1287 4228,1287 "/>
  <polygon fill="fuchsia" fill-rule="nonzero" points="3891,1318 3861,1318 3861,1287 3891,1287 "/>
  <polygon fill="fuchsia" fill-rule="nonzero" points="3799,1318 3769,1318 3769,1287 3799,1287 "/>
  <polygon fill="fuchsia" fill-rule="nonzero" points="3524,1318 3493,1318 3493,1287 3524,1287 "/>
  <polygon fill="fuchsia" fill-rule="nonzero" points="5852,1287 5822,1287 5822,1256 5791,1256 5791,1226 5822,1226 5822,1256 5852,1256 "/>
  <polygon fill="fuchsia" fill-rule="nonzero" points="5699,1287 5669,1287 5669,1256 5699,1256 "/>
  <polygon fill="fuchsia" fill-rule="nonzero" points="5515,1287 5485,1287 5485,1256 5515,1256 "/>
  <polygon fill="fuchsia" fill-rule="nonzero" points="5393,1287 5362,1287 5362,1256 5393,1256 "/>
  <polygon fill="fuchsia" fill-rule="nonzero" points="5301,1287 5270,1287 5270,1256 5301,1256 "/>
  <polygon fill="fuchsia" fill-rule="nonzero" points="5209,1287 5178,1287 5178,1256 5209,1256 "/>
  <polygon fill="fuchsia" fill-rule="nonzero" points="4872,1287 4841,1287 4841,1256 4872,1256 "/>
  <polygon fill="fuchsia" fill-rule="nonzero" points="4688,1287 4657,1287 4657,1256 4688,1256 "/>
  <polygon fill="fuchsia" fill-rule="nonzero" points="4596,1287 4565,1287 4565,1256 4596,1256 "/>
  <polygon fill="fuchsia" fill-rule="nonzero" points="4504,1287 4474,1287 4474,1256 4504,1256 "/>
  <polygon fill="fuchsia" fill-rule="nonzero" points="4412,1287 4382,1287 4382,1256 4412,1256 "/>
  <polygon fill="fuchsia" fill-rule="nonzero" points="4320,1287 4290,1287 4290,1256 4320,1256 "/>
  <polygon fill="fuchsia" fill-rule="nonzero" points="4259,1287 4228,1287 4228,1256 4259,1256 "/>
  <polygon fill="fuchsia" fill-rule="nonzero" points="4167,1287 4137,1287 4137,1256 4167,1256 "/>
  <polygon fill="fuchsia" fill-rule="nonzero" points="4106,1287 4075,1287 4075,1256 4106,1256 "/>
  <polygon fill="fuchsia" fill-rule="nonzero" points="4045,1287 4014,1287 4014,1256 4045,1256 "/>
  <polygon fill="fuchsia" fill-rule="nonzero" points="3983,1287 3953,1287 3953,1256 3922,1256 3922,1226 3953,1226 3953,1256 3983,1256 "/>
  <polygon fill="fuchsia" fill-rule="nonzero" points="3738,1287 3708,1287 3708,1256 3738,1256 "/>
  <polygon fill="fuchsia" fill-rule="nonzero" points="3677,1287 3646,1287 3646,1256 3677,1256 "/>
  <polygon fill="fuchsia" fill-rule="nonzero" points="3585,1287 3554,1287 3554,1256 3585,1256 "/>
  <polygon fill="fuchsia" fill-rule="nonzero" points="5607,1256 5577,1256 5577,1226 5607,1226 "/>
  <polygon fill="fuchsia" fill-rule="nonzero" points="5454,1256 5423,1256 5423,1226 5454,1226 "/>
  <polygon fill="fuchsia" fill-rule="nonzero" points="5117,1256 5086,1256 5086,1226 5117,1226 "/>
  <polygon fill="fuchsia" fill-rule="nonzero" points="4933,1256 4903,1256 4903,1226 4933,1226 "/>
  <polygon fill="fuchsia" fill-rule="nonzero" points="3891,1256 3861,1256 3861,1226 3891,1226 "/>
  <polygon fill="fuchsia" fill-rule="nonzero" points="3830,1256 3799,1256 3799,1226 3830,1226 "/>
  <polygon fill="fuchsia" fill-rule="nonzero" points="5760,1226 5730,1226 5730,1195 5760,1195 "/>
  <polygon fill="fuchsia" fill-rule="nonzero" points="5669,1226 5638,1226 5638,1195 5669,1195 "/>
  <polygon fill="fuchsia" fill-rule="nonzero" points="5546,1226 5515,1226 5515,1195 5546,1195 "/>
  <polygon fill="fuchsia" fill-rule="nonzero" points="5178,1226 5148,1226 5148,1195 5178,1195 "/>
  <polygon fill="fuchsia" fill-rule="nonzero" points="5025,1226 4994,1226 4994,1195 5025,1195 "/>
  <polygon fill="fuchsia" fill-rule="nonzero" points="4811,1226 4780,1226 4780,1195 4811,1195 "/>
  <polygon fill="fuchsia" fill-rule="nonzero" points="5822,1195 5791,1195 5791,1164 5822,1164 "/>
  <polygon fill="fuchsia" fill-rule="nonzero" points="5331,1195 5301,1195 5301,1164 5331,1164 "/>
  <polygon fill="fuchsia" fill-rule="nonzero" points="5240,1195 5209,1195 5209,1164 5240,1164 "/>
  <polygon fill="fuchsia" fill-rule="nonzero" points="5730,1164 5699,1164 5699,1134 5730,1134 "/>
  <polygon fill="fuchsia" fill-rule="nonzero" points="5607,1164 5577,1164 5577,1134 5607,1134 "/>
  <polygon fill="fuchsia" fill-rule="nonzero" points="5423,1164 5393,1164 5393,1134 5423,1134 "/>
  <polygon fill="fuchsia" fill-rule="nonzero" points="5086,1164 5056,1164 5056,1134 5086,1134 "/>
  <polygon fill="fuchsia" fill-rule="nonzero" points="5852,1134 5822,1134 5822,1103 5852,1103 "/>
  <polygon fill="fuchsia" fill-rule="nonzero" points="5209,1134 5178,1134 5178,1103 5209,1103 "/>
  <polygon fill="fuchsia" fill-rule="nonzero" points="5791,1103 5760,1103 5760,1072 5791,1072 "/>
  <polygon fill="fuchsia" fill-rule="nonzero" points="5699,1103 5669,1103 5669,1072 5699,1072 "/>
  <polygon fill="fuchsia" fill-rule="nonzero" points="5546,1103 5515,1103 5515,1072 5546,1072 "/>
  <polygon fill="fuchsia" fill-rule="nonzero" points="5148,1103 5117,1103 5117,1072 5148,1072 "/>
  <polygon fill="fuchsia" fill-rule="nonzero" points="5852,1072 5822,1072 5822,1042 5852,1042 "/>
  <polygon fill="fuchsia" fill-rule="nonzero" points="5301,1072 5270,1072 5270,1042 5301,1042 "/>
  <polygon fill="fuchsia" fill-rule="nonzero" points="5240,1072 5209,1072 5209,1042 5240,1042 "/>
  <polygon fill="fuchsia" fill-rule="nonzero" points="5638,1042 5607,1042 5607,1011 5638,1011 "/>
  <polygon fill="fuchsia" fill-rule="nonzero" points="5852,1011 5822,1011 5822,981 5852,981 "/>
  <polygon fill="fuchsia" fill-rule="nonzero" points="5791,1011 5760,1011 5760,981 5791,981 "/>
  <polygon fill="fuchsia" fill-rule="nonzero" points="5730,1011 5699,1011 5699,981 5730,981 "/>
 </g>
</svg>
