<?xml version="1.0" encoding="UTF-8"?>
<!DOCTYPE svg PUBLIC "-//W3C//DTD SVG 1.1//EN" "http://www.w3.org/Graphics/SVG/1.1/DTD/svg11.dtd">
<!-- Creator: CorelDRAW 2020 (64-Bit) -->
<svg xmlns="http://www.w3.org/2000/svg" xml:space="preserve" width="9px" height="36px" version="1.1" shape-rendering="geometricPrecision" text-rendering="geometricPrecision" image-rendering="optimizeQuality" fill-rule="evenodd" clip-rule="evenodd"
viewBox="0 0 1530 6090"
 xmlns:xlink="http://www.w3.org/1999/xlink"
 xmlns:xodm="http://www.corel.com/coreldraw/odm/2003">
 <g id="Слой_x0020_1">
  <metadata id="CorelCorpID_0Corel-Layer"/>
  <path fill="none" fill-rule="nonzero" stroke="gray" stroke-width="30" stroke-miterlimit="22.9256" d="M10 3190l60 0c340,0 510,250 510,660l0 1330c0,620 280,890 820,890l110 0 0 -290 -110 0c-380,0 -500,-240 -500,-590l0 -1350c0,-400 -110,-670 -420,-800 310,-130 420,-400 420,-790l0 -1360c0,-340 120,-590 500,-590l110 0 0 -290 -110 0c-540,0 -820,280 -820,900l0 1320c0,420 -170,670 -510,670l-60 0 0 290z"/>
 </g>
</svg>
