<?xml version="1.0" encoding="UTF-8"?>
<!DOCTYPE svg PUBLIC "-//W3C//DTD SVG 1.1//EN" "http://www.w3.org/Graphics/SVG/1.1/DTD/svg11.dtd">
<!-- Creator: CorelDRAW 2020 (64-Bit) -->
<svg xmlns="http://www.w3.org/2000/svg" xml:space="preserve" width="21px" height="40px" version="1.1" shape-rendering="geometricPrecision" text-rendering="geometricPrecision" image-rendering="optimizeQuality" fill-rule="evenodd" clip-rule="evenodd"
viewBox="0 0 1100 2070"
 xmlns:xlink="http://www.w3.org/1999/xlink"
 xmlns:xodm="http://www.corel.com/coreldraw/odm/2003"
 xmlns:serif="http://www.serif.com/">
 <g id="Слой_x0020_1">
  <metadata id="CorelCorpID_0Corel-Layer"/>
  <g id="_2774155126272">
   <path fill="white" fill-rule="nonzero" d="M1030 1160l60 -370 -360 0 0 -250c0,-100 50,-200 210,-200l160 0 0 -310c0,0 -140,-30 -290,-30 -290,0 -480,180 -480,500l0 290 -330 0 0 370 330 0 0 900c60,10 130,10 200,10 70,0 130,0 200,-10l0 -900 300 0 0 0z"/>
  </g>
 </g>
</svg>
