<?xml version="1.0" encoding="UTF-8"?>
<!DOCTYPE svg PUBLIC "-//W3C//DTD SVG 1.1//EN" "http://www.w3.org/Graphics/SVG/1.1/DTD/svg11.dtd">
<!-- Creator: CorelDRAW 2020 (64-Bit) -->
<svg xmlns="http://www.w3.org/2000/svg" xml:space="preserve" width="100px" height="17px" version="1.1" style="shape-rendering:geometricPrecision; text-rendering:geometricPrecision; image-rendering:optimizeQuality; fill-rule:evenodd; clip-rule:evenodd"
viewBox="0 0 4283000 724000"
 xmlns:xlink="http://www.w3.org/1999/xlink"
 xmlns:xodm="http://www.corel.com/coreldraw/odm/2003">
 <defs>
  <style type="text/css">
   <![CDATA[
    .str0 {stroke:#E5097F;stroke-width:12000;stroke-linecap:round;stroke-linejoin:round;stroke-miterlimit:22.9256}
    .fil0 {fill:none}
   ]]>
  </style>
 </defs>
 <g id="Слой_x0020_1">
  <metadata id="CorelCorpID_0Corel-Layer"/>
  <path class="fil0 str0" d="M1301000 27000c-127000,7000 -196000,-26000 -409000,-20000 -218000,6000 -664000,-11000 -822000,145000 -278000,272000 431000,445000 561000,456000 531000,46000 1022000,82000 1557000,71000 473000,-9000 1108000,105000 1565000,-18000 194000,-52000 656000,-137000 488000,-380000 -143000,-208000 -601000,-153000 -662000,-155000 -245000,-9000 -475000,-4000 -721000,-38000 -379000,-53000 -617000,-22000 -981000,-7000 -154000,6000 -262000,-46000 -419000,-15000 -218000,44000 -1015000,32000 -1147000,165000"/>
 </g>
</svg>
