<?xml version="1.0" encoding="UTF-8"?>
<!DOCTYPE svg PUBLIC "-//W3C//DTD SVG 1.1//EN" "http://www.w3.org/Graphics/SVG/1.1/DTD/svg11.dtd">
<!-- Creator: CorelDRAW 2020 (64-Bit) -->
<svg xmlns="http://www.w3.org/2000/svg" xml:space="preserve" width="40px" height="40px" version="1.1" shape-rendering="geometricPrecision" text-rendering="geometricPrecision" image-rendering="optimizeQuality" fill-rule="evenodd" clip-rule="evenodd"
viewBox="0 0 3540 3540"
 xmlns:xlink="http://www.w3.org/1999/xlink"
 xmlns:xodm="http://www.corel.com/coreldraw/odm/2003"
 xmlns:serif="http://www.serif.com/">
 <g id="Слой_x0020_1">
  <metadata id="CorelCorpID_0Corel-Layer"/>
  <g id="_2774154984960">
   <g>
    <path fill="white" fill-rule="nonzero" d="M1770 0c-480,0 -540,0 -730,10 -190,10 -320,40 -430,80 -120,50 -210,110 -310,210 -100,100 -160,190 -210,310 -40,110 -70,240 -80,430 -10,190 -10,250 -10,730 0,480 0,540 10,730 10,190 40,320 80,430 50,120 110,220 210,320 100,100 190,160 310,200 110,50 240,80 430,80 190,10 250,10 730,10 480,0 540,0 730,-10 190,0 320,-30 430,-80 120,-40 220,-100 320,-200 100,-100 160,-200 200,-320 50,-110 80,-240 80,-430 10,-190 10,-250 10,-730 0,-480 0,-540 -10,-730 0,-190 -30,-320 -80,-430 -40,-120 -100,-210 -200,-310 -100,-100 -200,-160 -320,-210 -110,-40 -240,-70 -430,-80 -190,-10 -250,-10 -730,-10zm0 320c480,0 530,0 720,10 170,10 270,40 330,60 80,30 140,70 200,130 60,70 100,120 130,210 30,60 60,150 70,330 0,180 10,240 10,710 0,480 -10,530 -10,720 -10,170 -40,270 -70,330 -30,80 -70,140 -130,200 -60,60 -120,100 -200,130 -60,30 -160,60 -330,70 -190,0 -240,10 -720,10 -470,0 -530,-10 -710,-10 -180,-10 -270,-40 -330,-70 -90,-30 -140,-70 -210,-130 -60,-60 -100,-120 -130,-200 -20,-60 -50,-160 -60,-330 -10,-190 -10,-240 -10,-720 0,-470 0,-530 10,-710 10,-180 40,-270 60,-330 30,-90 70,-140 130,-210 70,-60 120,-100 210,-130 60,-20 150,-50 330,-60 180,-10 240,-10 710,-10z"/>
    <path fill="white" fill-rule="nonzero" d="M1770 2360c-320,0 -590,-260 -590,-590 0,-320 270,-590 590,-590 330,0 590,270 590,590 0,330 -260,590 -590,590zm0 -1500c-500,0 -910,410 -910,910 0,510 410,910 910,910 510,0 910,-400 910,-910 0,-500 -400,-910 -910,-910z"/>
    <path fill="white" fill-rule="nonzero" d="M2930 830c0,110 -90,210 -210,210 -120,0 -210,-100 -210,-210 0,-120 90,-220 210,-220 120,0 210,100 210,220z"/>
   </g>
  </g>
 </g>
</svg>
