<?xml version="1.0" encoding="UTF-8"?>
<!DOCTYPE svg PUBLIC "-//W3C//DTD SVG 1.1//EN" "http://www.w3.org/Graphics/SVG/1.1/DTD/svg11.dtd">
<!-- Creator: CorelDRAW 2020 (64-Bit) -->
<svg xmlns="http://www.w3.org/2000/svg" xml:space="preserve" width="40px" height="40px" version="1.1" shape-rendering="geometricPrecision" text-rendering="geometricPrecision" image-rendering="optimizeQuality" fill-rule="evenodd" clip-rule="evenodd"
viewBox="0 0 2750 2750"
 xmlns:xlink="http://www.w3.org/1999/xlink"
 xmlns:xodm="http://www.corel.com/coreldraw/odm/2003">
 <g id="Слой_x0020_1">
  <metadata id="CorelCorpID_0Corel-Layer"/>
  <path fill="white" fill-rule="nonzero" d="M330 0c-180,0 -330,150 -330,330 0,180 150,330 330,330 180,0 330,-150 330,-330 0,-180 -150,-330 -330,-330z"/>
  <polygon fill="white" fill-rule="nonzero" points="620,910 50,910 50,2750 620,2750 "/>
  <path fill="white" fill-rule="nonzero" d="M2750 2750l0 -1010c0,-490 -110,-870 -680,-870 -280,0 -470,150 -540,290l-10 0 0 -250 -550 0 0 1840 570 0 0 -910c0,-240 50,-470 340,-470 300,0 300,270 300,480l0 900 570 0 0 0z"/>
 </g>
</svg>
