<?xml version="1.0" encoding="UTF-8"?>
<!DOCTYPE svg PUBLIC "-//W3C//DTD SVG 1.1//EN" "http://www.w3.org/Graphics/SVG/1.1/DTD/svg11.dtd">
<!-- Creator: CorelDRAW 2020 (64-Bit) -->
<svg xmlns="http://www.w3.org/2000/svg" xml:space="preserve" width="24px" height="24px" version="1.1" shape-rendering="geometricPrecision" text-rendering="geometricPrecision" image-rendering="optimizeQuality" fill-rule="evenodd" clip-rule="evenodd"
viewBox="0 0 580 580"
 xmlns:xlink="http://www.w3.org/1999/xlink"
 xmlns:xodm="http://www.corel.com/coreldraw/odm/2003"
 enable-background="new 0 0 24 24">
 <g id="Слой_x0020_1">
  <metadata id="CorelCorpID_0Corel-Layer"/>
  <g id="_2880322288800">
   <path fill="white" fill-rule="nonzero" d="M580 580l0 0 0 0 0 -210c0,-110 -20,-190 -150,-190 -50,0 -90,30 -110,60l0 0 0 -50 -120 0 0 390 120 0 0 -190c0,-50 10,-100 80,-100 60,0 60,60 60,100l0 190 120 0z"/>
   <polygon fill="white" fill-rule="nonzero" points="10,190 130,190 130,580 10,580 "/>
   <path fill="white" fill-rule="nonzero" d="M70 0c-40,0 -70,30 -70,70 0,40 30,70 70,70 40,0 70,-30 70,-70 0,-40 -30,-70 -70,-70z"/>
  </g>
 </g>
</svg>
