<?xml version="1.0" encoding="UTF-8"?>
<!DOCTYPE svg PUBLIC "-//W3C//DTD SVG 1.1//EN" "http://www.w3.org/Graphics/SVG/1.1/DTD/svg11.dtd">
<!-- Creator: CorelDRAW 2020 (64-Bit) -->
<svg xmlns="http://www.w3.org/2000/svg" xml:space="preserve" width="120px" height="104px" version="1.1" shape-rendering="geometricPrecision" text-rendering="geometricPrecision" image-rendering="optimizeQuality" fill-rule="evenodd" clip-rule="evenodd"
viewBox="0 0 336100 292600"
 xmlns:xlink="http://www.w3.org/1999/xlink"
 xmlns:xodm="http://www.corel.com/coreldraw/odm/2003">
 <g id="Слой_x0020_1">
  <metadata id="CorelCorpID_0Corel-Layer"/>
  <g id="_2430420989920">
   <rect fill="fuchsia" x="132400" y="28800" width="26000" height="26000"/>
   <rect fill="fuchsia" x="132400" y="80900" width="26000" height="26000"/>
   <rect fill="fuchsia" x="158400" y="54800" width="26000" height="26000"/>
  </g>
  <g id="_2430420991984">
   <path fill="#1A1A1A" fill-rule="nonzero" d="M26700 242700c6900,600 10100,3300 10100,8900 0,7200 -5600,10700 -16000,10700 -6300,0 -11000,-1300 -14900,-4300 -1600,-1200 -2400,-1600 -3200,-1600 -700,0 -1400,300 -1800,700 -700,700 -900,1300 -900,2000 0,1100 900,2100 2300,3100 4900,3400 10600,5200 18700,5200 13100,0 21400,-6100 21400,-15800 0,-10400 -6800,-13200 -15600,-14000l-8700 -800c-7400,-700 -10800,-3400 -10800,-8900 0,-6500 4900,-10200 13600,-10200 4800,0 8800,1000 12500,3000 1300,700 1900,1000 2600,1000 800,0 1500,-300 2000,-1000 400,-400 600,-1000 600,-1300 0,-500 0,-800 -300,-1300 -400,-600 -800,-1000 -2000,-1700 -4200,-2300 -9200,-3600 -15400,-3600 -11600,0 -19100,5900 -19100,15100 0,8300 5300,13000 16000,14000l8900 800z"/>
   <path fill="#1A1A1A" fill-rule="nonzero" d="M90300 241300c800,0 1800,0 2600,-800 800,-800 800,-1900 800,-2600 0,-15400 -8100,-25100 -21400,-25100 -13200,0 -21400,9700 -21400,27300 0,17800 8100,27300 22800,27300 5300,0 9700,-1200 12700,-2900 1800,-1000 5600,-3400 5600,-5700 0,-1300 -1200,-2600 -2500,-2600 -1100,0 -1700,500 -3200,1900 -3400,3000 -7800,4200 -12300,4200 -11300,0 -17400,-7500 -17400,-21000l33700 0zm-33700 -4800c300,-4400 600,-6400 1900,-9800 2200,-5400 7500,-8900 13800,-8900 6400,0 11700,3400 13900,8900 1300,3400 1600,5400 1900,9800l-31500 0z"/>
   <path fill="#1A1A1A" fill-rule="nonzero" d="M136000 257800c-3000,3000 -6600,4500 -11000,4500 -4400,0 -7900,-1500 -10900,-4500 -4200,-4200 -4900,-11400 -4900,-17700 0,-6400 700,-13600 4900,-17800 3000,-3000 6500,-4500 10900,-4500 4400,0 8000,1500 11000,4500 4200,4200 4800,11400 4800,17800 0,6300 -600,13500 -4800,17700zm3800 3700c5800,-5800 6800,-13800 6800,-21400 0,-7700 -1000,-15700 -6800,-21500 -3700,-3700 -8800,-5800 -14800,-5800 -6000,0 -11000,2100 -14800,5800 -5800,5800 -6700,13800 -6700,21500 0,7600 900,15600 6700,21400 3800,3800 8800,5900 14800,5900 6000,0 11100,-2100 14800,-5900z"/>
   <path fill="#1A1A1A" fill-rule="nonzero" d="M159300 288700c0,1500 100,2100 600,2800 400,600 1300,1100 2300,1100 900,0 1800,-500 2200,-1100 500,-700 600,-1300 600,-2800l0 -28800c4700,6200 9900,7500 15800,7500 5600,0 10300,-1900 13100,-4700 5400,-5400 7000,-13700 7000,-22600 0,-9000 -1600,-17300 -7000,-22700 -2800,-2800 -7500,-4600 -13100,-4600 -5900,0 -11100,1300 -15800,7500l0 -3500c0,-1500 -100,-2100 -600,-2700 -400,-700 -1300,-1100 -2200,-1100 -1000,0 -1900,400 -2300,1100 -500,600 -600,1200 -600,2700l0 71900zm20800 -26400c-13100,0 -15100,-11200 -15100,-22200 0,-11100 2000,-22300 15100,-22300 13000,0 15000,11200 15000,22300 0,11000 -2000,22200 -15000,22200z"/>
   <path fill="#1A1A1A" fill-rule="nonzero" d="M228600 266700c1500,0 2200,-200 2700,-500 700,-500 1000,-1200 1000,-2000 0,-900 -300,-1500 -1000,-2000 -500,-400 -1200,-600 -2500,-600l-900 0c-5500,0 -8100,-3300 -8100,-8800l0 -61400c0,-1500 -100,-2100 -600,-2800 -400,-600 -1300,-1100 -2200,-1100 -1000,0 -1900,500 -2300,1100 -400,700 -600,1300 -600,2800l0 61400c0,8100 4400,13900 12800,13900l1700 0z"/>
   <path fill="#1A1A1A" fill-rule="nonzero" d="M277500 263300c0,1500 200,2100 700,2800 400,600 1300,1100 2200,1100 1000,0 1800,-500 2300,-1100 400,-700 600,-1300 600,-2800l0 -33100c0,-11300 -6900,-17400 -20200,-17400 -5900,0 -10100,1000 -13900,3500 -3400,2400 -5100,4300 -5100,5800 0,1000 400,1500 800,1900 500,500 1100,700 1800,700 800,0 1700,-200 2900,-1400 3800,-3900 7000,-5600 13500,-5600 10400,0 14400,4900 14400,13900l0 5100 -17500 0c-11200,0 -18400,5700 -18400,15300 0,4200 1500,8000 3900,10500 3500,3600 7900,4900 15800,4900 7300,0 11700,-1500 16200,-6000l0 1900zm0 -15100c0,4900 -1000,8200 -2900,10100 -3800,3700 -8400,4100 -13300,4100 -9400,0 -13900,-3400 -13900,-10400 0,-6900 4400,-10600 13000,-10600l17100 0 0 6800z"/>
   <path fill="#1A1A1A" fill-rule="nonzero" d="M309100 278500c-1800,5500 -4400,7200 -8900,7200 -1200,0 -1800,300 -2300,600 -600,400 -1000,1200 -1000,2000 0,1000 400,1500 1000,2000 500,300 1200,500 2700,500 3500,0 6700,-900 9400,-3400 1600,-1500 2800,-3800 3600,-6200l22100 -63600c400,-1300 500,-2100 300,-2900 -400,-1000 -1400,-1700 -2600,-1700 -1600,0 -2400,1000 -3000,2800l-14600 43900 -14600 -43900c-600,-1800 -1500,-2800 -3000,-2800 -1300,0 -2200,700 -2600,1700 -300,800 -200,1600 300,2900l17200 49100 -4000 11800z"/>
  </g>
  <path fill="black" fill-rule="nonzero" d="M97300 130300c1500,0 2800,1200 2800,2700 0,1500 -1300,2700 -2800,2700l-15600 0c-1500,0 -2700,-1200 -2700,-2700l0 -130300c0,-1500 1200,-2700 2700,-2700l15600 0c1500,0 2800,1200 2800,2700 0,1500 -1300,2700 -2800,2700l-12900 0 0 124900 12900 0z"/>
  <path fill="black" fill-rule="nonzero" d="M213300 135700c-1500,0 -2700,-1200 -2700,-2700 0,-1500 1200,-2700 2700,-2700l12900 0 0 -124900 -12900 0c-1500,0 -2700,-1200 -2700,-2700 0,-1500 1200,-2700 2700,-2700l15600 0c1500,0 2700,1200 2700,2700l0 130300c0,1500 -1200,2700 -2700,2700l-15600 0z"/>
 </g>
</svg>
