<?xml version="1.0" encoding="UTF-8"?>
<!DOCTYPE svg PUBLIC "-//W3C//DTD SVG 1.1//EN" "http://www.w3.org/Graphics/SVG/1.1/DTD/svg11.dtd">
<!-- Creator: CorelDRAW 2020 (64-Bit) -->
<svg xmlns="http://www.w3.org/2000/svg" xml:space="preserve" width="40px" height="40px" version="1.1" shape-rendering="geometricPrecision" text-rendering="geometricPrecision" image-rendering="optimizeQuality" fill-rule="evenodd" clip-rule="evenodd"
viewBox="0 0 4680 4700"
 xmlns:xlink="http://www.w3.org/1999/xlink"
 xmlns:xodm="http://www.corel.com/coreldraw/odm/2003">
 <g id="Слой_x0020_1">
  <metadata id="CorelCorpID_0Corel-Layer"/>
  <path fill="white" d="M4000 680c-440,-440 -1030,-680 -1650,-680 -1280,0 -2330,1050 -2330,2330 0,410 110,810 310,1160l-330 1210 1240 -320c340,180 720,280 1110,280l0 0c1280,0 2330,-1040 2330,-2330 0,-620 -240,-1210 -680,-1650l0 0zm-1650 3590l0 0c-350,0 -690,-100 -990,-270l-70 -40 -730 190 200 -720 -50 -70c-190,-310 -300,-660 -300,-1030 0,-1070 870,-1940 1940,-1940 520,0 1000,210 1370,570 370,370 570,850 570,1370 0,1070 -870,1940 -1940,1940zm1060 -1450c-60,-30 -340,-170 -400,-190 -50,-20 -90,-30 -130,30 -40,60 -150,190 -180,230 -40,30 -70,40 -130,10 -60,-30 -240,-90 -470,-290 -170,-150 -290,-340 -320,-400 -30,-60 0,-90 30,-120 60,-80 120,-160 140,-200 20,-40 10,-70 0,-100 -20,-30 -130,-320 -180,-430 -50,-120 -100,-100 -130,-100 -40,-10 -80,-10 -120,-10 -30,0 -100,20 -150,80 -50,50 -200,200 -200,480 0,290 200,570 230,600 30,40 410,630 1000,880 140,60 250,100 330,130 140,40 270,30 370,20 110,-20 340,-140 390,-280 50,-130 50,-250 30,-270 -10,-30 -50,-40 -110,-70l0 0zm0 0z"/>
 </g>
</svg>
